%TF.GenerationSoftware,KiCad,Pcbnew,(6.0.8)*%
%TF.CreationDate,2022-11-01T22:15:49+07:00*%
%TF.ProjectId,esp32,65737033-322e-46b6-9963-61645f706362,rev?*%
%TF.SameCoordinates,Original*%
%TF.FileFunction,Copper,L2,Bot*%
%TF.FilePolarity,Positive*%
%FSLAX46Y46*%
G04 Gerber Fmt 4.6, Leading zero omitted, Abs format (unit mm)*
G04 Created by KiCad (PCBNEW (6.0.8)) date 2022-11-01 22:15:49*
%MOMM*%
%LPD*%
G01*
G04 APERTURE LIST*
%TA.AperFunction,ComponentPad*%
%ADD10C,1.524000*%
%TD*%
%TA.AperFunction,ComponentPad*%
%ADD11C,1.600000*%
%TD*%
%TA.AperFunction,ComponentPad*%
%ADD12R,1.524000X1.524000*%
%TD*%
%TA.AperFunction,ComponentPad*%
%ADD13R,1.530000X1.530000*%
%TD*%
%TA.AperFunction,ComponentPad*%
%ADD14C,1.530000*%
%TD*%
%TA.AperFunction,ViaPad*%
%ADD15C,1.600000*%
%TD*%
%TA.AperFunction,Conductor*%
%ADD16C,1.000000*%
%TD*%
%TA.AperFunction,Conductor*%
%ADD17C,0.800000*%
%TD*%
G04 APERTURE END LIST*
D10*
%TO.P,U4,1,M0*%
%TO.N,Net-(U1-Pad25)*%
X179847000Y-78801000D03*
%TO.P,U4,2,M1*%
%TO.N,Net-(U1-Pad26)*%
X182387000Y-78801000D03*
%TO.P,U4,3,RXD*%
%TO.N,Net-(U1-Pad28)*%
X184927000Y-78801000D03*
%TO.P,U4,4,TXD*%
%TO.N,Net-(U1-Pad27)*%
X187467000Y-78801000D03*
%TO.P,U4,5,AUX*%
%TO.N,unconnected-(U4-Pad5)*%
X190007000Y-78801000D03*
%TO.P,U4,6,VCC*%
%TO.N,+3.3V*%
X192547000Y-78801000D03*
%TO.P,U4,7,GND*%
%TO.N,GND*%
X195087000Y-78801000D03*
%TO.P,U4,8,Fixing_Hole*%
%TO.N,unconnected-(U4-Pad8)*%
X185627000Y-47301000D03*
%TO.P,U4,9,Fixing_Hole*%
%TO.N,unconnected-(U4-Pad9)*%
X183087000Y-47301000D03*
%TO.P,U4,10,Fixing_Hole*%
%TO.N,unconnected-(U4-Pad10)*%
X180547000Y-47301000D03*
%TD*%
D11*
%TO.P,U3,1,3.3v*%
%TO.N,+3.3V*%
X152146000Y-119450000D03*
X152228000Y-109450000D03*
%TO.P,U3,2,gnd*%
%TO.N,GND*%
X194228000Y-109450000D03*
X149688000Y-109450000D03*
X149688000Y-119450000D03*
X194228000Y-119450000D03*
%TO.P,U3,3,5v*%
%TO.N,+5V*%
X196768000Y-109450000D03*
X196768000Y-119450000D03*
%TD*%
D12*
%TO.P,U2,6,gnd*%
%TO.N,GND*%
X132334000Y-67564000D03*
D10*
%TO.P,U2,5,Vcc_5V*%
%TO.N,+5V*%
X132334000Y-70104000D03*
%TO.P,U2,4,in4*%
%TO.N,Net-(U1-Pad10)*%
X132334000Y-72644000D03*
%TO.P,U2,3,in3*%
%TO.N,Net-(U1-Pad11)*%
X132334000Y-75184000D03*
%TO.P,U2,2,in2*%
%TO.N,Net-(U1-Pad12)*%
X132334000Y-77724000D03*
%TO.P,U2,1,in1*%
%TO.N,Net-(U1-Pad13)*%
X132334000Y-80264000D03*
%TD*%
D13*
%TO.P,U1,1,3V3*%
%TO.N,+3.3V*%
X145798500Y-49650000D03*
D14*
%TO.P,U1,2,EN*%
%TO.N,unconnected-(U1-Pad2)*%
X145798500Y-52190000D03*
%TO.P,U1,3,SENSOR_VP*%
%TO.N,unconnected-(U1-Pad3)*%
X145798500Y-54730000D03*
%TO.P,U1,4,SENSOR_VN*%
%TO.N,unconnected-(U1-Pad4)*%
X145798500Y-57270000D03*
%TO.P,U1,5,IO34*%
%TO.N,unconnected-(U1-Pad5)*%
X145798500Y-59810000D03*
%TO.P,U1,6,IO35*%
%TO.N,unconnected-(U1-Pad6)*%
X145798500Y-62350000D03*
%TO.P,U1,7,IO32*%
%TO.N,unconnected-(U1-Pad7)*%
X145798500Y-64890000D03*
%TO.P,U1,8,IO33*%
%TO.N,unconnected-(U1-Pad8)*%
X145798500Y-67430000D03*
%TO.P,U1,9,IO25*%
%TO.N,unconnected-(U1-Pad9)*%
X145798500Y-69970000D03*
%TO.P,U1,10,IO26*%
%TO.N,Net-(U1-Pad10)*%
X145798500Y-72510000D03*
%TO.P,U1,11,IO27*%
%TO.N,Net-(U1-Pad11)*%
X145798500Y-75050000D03*
%TO.P,U1,12,IO14*%
%TO.N,Net-(U1-Pad12)*%
X145798500Y-77590000D03*
%TO.P,U1,13,IO12*%
%TO.N,Net-(U1-Pad13)*%
X145798500Y-80130000D03*
%TO.P,U1,14,GND1*%
%TO.N,GND*%
X145798500Y-82670000D03*
%TO.P,U1,15,IO13*%
%TO.N,unconnected-(U1-Pad15)*%
X145798500Y-85210000D03*
%TO.P,U1,16,SD2*%
%TO.N,unconnected-(U1-Pad16)*%
X145798500Y-87750000D03*
%TO.P,U1,17,SD3*%
%TO.N,unconnected-(U1-Pad17)*%
X145798500Y-90290000D03*
%TO.P,U1,18,CMD*%
%TO.N,unconnected-(U1-Pad18)*%
X145798500Y-92830000D03*
%TO.P,U1,19,EXT_5V*%
%TO.N,unconnected-(U1-Pad19)*%
X145798500Y-95370000D03*
%TO.P,U1,20,CLK*%
%TO.N,unconnected-(U1-Pad20)*%
X169198500Y-95370000D03*
%TO.P,U1,21,SD0*%
%TO.N,unconnected-(U1-Pad21)*%
X169198500Y-92830000D03*
%TO.P,U1,22,SD1*%
%TO.N,unconnected-(U1-Pad22)*%
X169198500Y-90290000D03*
%TO.P,U1,23,IO15*%
%TO.N,unconnected-(U1-Pad23)*%
X169198500Y-87750000D03*
%TO.P,U1,24,IO2*%
%TO.N,unconnected-(U1-Pad24)*%
X169198500Y-85210000D03*
%TO.P,U1,25,IO0*%
%TO.N,Net-(U1-Pad25)*%
X169198500Y-82670000D03*
%TO.P,U1,26,IO4*%
%TO.N,Net-(U1-Pad26)*%
X169198500Y-80130000D03*
%TO.P,U1,27,IO16*%
%TO.N,Net-(U1-Pad27)*%
X169198500Y-77590000D03*
%TO.P,U1,28,IO17*%
%TO.N,Net-(U1-Pad28)*%
X169198500Y-75050000D03*
%TO.P,U1,29,IO5*%
%TO.N,unconnected-(U1-Pad29)*%
X169198500Y-72510000D03*
%TO.P,U1,30,IO18*%
%TO.N,unconnected-(U1-Pad30)*%
X169198500Y-69970000D03*
%TO.P,U1,31,IO19*%
%TO.N,unconnected-(U1-Pad31)*%
X169198500Y-67430000D03*
%TO.P,U1,32,GND2*%
%TO.N,GND*%
X169198500Y-64890000D03*
%TO.P,U1,33,IO21*%
%TO.N,unconnected-(U1-Pad33)*%
X169198500Y-62350000D03*
%TO.P,U1,34,RXD0*%
%TO.N,unconnected-(U1-Pad34)*%
X169198500Y-59810000D03*
%TO.P,U1,35,TXD0*%
%TO.N,unconnected-(U1-Pad35)*%
X169198500Y-57270000D03*
%TO.P,U1,36,IO22*%
%TO.N,unconnected-(U1-Pad36)*%
X169198500Y-54730000D03*
%TO.P,U1,37,IO23*%
%TO.N,unconnected-(U1-Pad37)*%
X169198500Y-52190000D03*
%TO.P,U1,38,GND3*%
%TO.N,GND*%
X169198500Y-49650000D03*
%TD*%
D15*
%TO.N,GND*%
X189230000Y-109474000D03*
%TO.N,+3.3V*%
X167894000Y-119380000D03*
%TO.N,GND*%
X164846000Y-49784000D03*
X149860000Y-82804000D03*
X165100000Y-65024000D03*
%TO.N,+5V*%
X137922000Y-68834000D03*
%TO.N,GND*%
X132334000Y-64008000D03*
%TD*%
D16*
%TO.N,+3.3V*%
X192547000Y-65293000D02*
X192547000Y-78801000D01*
X173990000Y-46736000D02*
X192547000Y-65293000D01*
X155074000Y-49650000D02*
X157988000Y-46736000D01*
X145798500Y-49650000D02*
X155074000Y-49650000D01*
X157988000Y-46736000D02*
X173990000Y-46736000D01*
%TO.N,GND*%
X195087000Y-103617000D02*
X189230000Y-109474000D01*
X195087000Y-78801000D02*
X195087000Y-103617000D01*
%TO.N,+3.3V*%
X192547000Y-94727000D02*
X167894000Y-119380000D01*
X192547000Y-78801000D02*
X192547000Y-94727000D01*
%TO.N,+5V*%
X136652000Y-70104000D02*
X137922000Y-68834000D01*
X132334000Y-70104000D02*
X136652000Y-70104000D01*
%TO.N,GND*%
X164980000Y-49650000D02*
X164846000Y-49784000D01*
X169198500Y-49650000D02*
X164980000Y-49650000D01*
X165234000Y-64890000D02*
X165100000Y-65024000D01*
X169198500Y-64890000D02*
X165234000Y-64890000D01*
X149726000Y-82670000D02*
X149860000Y-82804000D01*
X145798500Y-82670000D02*
X149726000Y-82670000D01*
X132334000Y-67564000D02*
X132334000Y-64008000D01*
X147574000Y-117336000D02*
X149688000Y-119450000D01*
X149688000Y-109450000D02*
X147574000Y-111564000D01*
X147574000Y-111564000D02*
X147574000Y-117336000D01*
%TO.N,+5V*%
X198628000Y-117590000D02*
X196768000Y-119450000D01*
X196768000Y-109450000D02*
X198628000Y-111310000D01*
X198628000Y-111310000D02*
X198628000Y-117590000D01*
%TO.N,GND*%
X192278000Y-117500000D02*
X194228000Y-119450000D01*
X194228000Y-109450000D02*
X192278000Y-111400000D01*
X192278000Y-111400000D02*
X192278000Y-117500000D01*
%TO.N,+3.3V*%
X153092000Y-119450000D02*
X152146000Y-119450000D01*
X154686000Y-117856000D02*
X153092000Y-119450000D01*
X154686000Y-111908000D02*
X154686000Y-117856000D01*
X152228000Y-109450000D02*
X154686000Y-111908000D01*
D17*
%TO.N,Net-(U1-Pad27)*%
X187467000Y-93457000D02*
X187467000Y-78801000D01*
X162306000Y-98298000D02*
X165354000Y-101346000D01*
X165354000Y-101346000D02*
X179578000Y-101346000D01*
X162306000Y-82042000D02*
X162306000Y-98298000D01*
X166758000Y-77590000D02*
X162306000Y-82042000D01*
X179578000Y-101346000D02*
X187467000Y-93457000D01*
X169198500Y-77590000D02*
X166758000Y-77590000D01*
%TO.N,Net-(U1-Pad28)*%
X184927000Y-73675000D02*
X184927000Y-78801000D01*
X182372000Y-71120000D02*
X184927000Y-73675000D01*
X177292000Y-71120000D02*
X182372000Y-71120000D01*
X173362000Y-75050000D02*
X177292000Y-71120000D01*
X169198500Y-75050000D02*
X173362000Y-75050000D01*
%TO.N,Net-(U1-Pad26)*%
X181356000Y-75946000D02*
X182387000Y-76977000D01*
X182387000Y-76977000D02*
X182387000Y-78801000D01*
X173108000Y-80130000D02*
X177292000Y-75946000D01*
X177292000Y-75946000D02*
X181356000Y-75946000D01*
X169198500Y-80130000D02*
X173108000Y-80130000D01*
%TO.N,Net-(U1-Pad25)*%
X175978000Y-82670000D02*
X179847000Y-78801000D01*
X169198500Y-82670000D02*
X175978000Y-82670000D01*
%TO.N,Net-(U1-Pad13)*%
X145664500Y-80264000D02*
X145798500Y-80130000D01*
X132334000Y-80264000D02*
X145664500Y-80264000D01*
%TO.N,Net-(U1-Pad12)*%
X145664500Y-77724000D02*
X145798500Y-77590000D01*
X132334000Y-77724000D02*
X145664500Y-77724000D01*
%TO.N,Net-(U1-Pad11)*%
X132334000Y-75184000D02*
X145664500Y-75184000D01*
X145664500Y-75184000D02*
X145798500Y-75050000D01*
%TO.N,Net-(U1-Pad10)*%
X145664500Y-72644000D02*
X145798500Y-72510000D01*
X132334000Y-72644000D02*
X145664500Y-72644000D01*
%TD*%
%TA.AperFunction,Conductor*%
%TO.N,+3.3V*%
G36*
X196786471Y-46248282D02*
G01*
X196833200Y-46301732D01*
X196844717Y-46359632D01*
X195616675Y-76958348D01*
X195593957Y-77025612D01*
X195538480Y-77069915D01*
X195470522Y-77077657D01*
X195245654Y-77041035D01*
X195245655Y-77041035D01*
X195241043Y-77040284D01*
X195113858Y-77038619D01*
X194983777Y-77036916D01*
X194983774Y-77036916D01*
X194979100Y-77036855D01*
X194719528Y-77072181D01*
X194715042Y-77073489D01*
X194715040Y-77073489D01*
X194684492Y-77082393D01*
X194468029Y-77145486D01*
X194230127Y-77255160D01*
X194195107Y-77278120D01*
X194014962Y-77396228D01*
X194014957Y-77396232D01*
X194011049Y-77398794D01*
X193815609Y-77573232D01*
X193648098Y-77774641D01*
X193512198Y-77998598D01*
X193510389Y-78002912D01*
X193510388Y-78002914D01*
X193492971Y-78044450D01*
X193410893Y-78240182D01*
X193409742Y-78244714D01*
X193409741Y-78244717D01*
X193360472Y-78438716D01*
X193346409Y-78494087D01*
X193320164Y-78754734D01*
X193332732Y-79016397D01*
X193383839Y-79273328D01*
X193385418Y-79277726D01*
X193385420Y-79277733D01*
X193431294Y-79405501D01*
X193472361Y-79519883D01*
X193474578Y-79524009D01*
X193571492Y-79704374D01*
X193586500Y-79764012D01*
X193586500Y-102943283D01*
X193566498Y-103011404D01*
X193549595Y-103032378D01*
X188904907Y-107677066D01*
X188851070Y-107708937D01*
X188722319Y-107746464D01*
X188597683Y-107782792D01*
X188354652Y-107894831D01*
X188350743Y-107897394D01*
X188134764Y-108038996D01*
X188134759Y-108039000D01*
X188130851Y-108041562D01*
X188121370Y-108050024D01*
X187958087Y-108195760D01*
X187931197Y-108219760D01*
X187760075Y-108425512D01*
X187757652Y-108429505D01*
X187633193Y-108634607D01*
X187621244Y-108654298D01*
X187517755Y-108901091D01*
X187516604Y-108905623D01*
X187516603Y-108905626D01*
X187453033Y-109155933D01*
X187451881Y-109160470D01*
X187425070Y-109426736D01*
X187437909Y-109694041D01*
X187490118Y-109956512D01*
X187580549Y-110208383D01*
X187582765Y-110212507D01*
X187703971Y-110438083D01*
X187707215Y-110444121D01*
X187710010Y-110447864D01*
X187710012Y-110447867D01*
X187794199Y-110560607D01*
X187867335Y-110658547D01*
X187870642Y-110661825D01*
X187870647Y-110661831D01*
X188035240Y-110824993D01*
X188057390Y-110846950D01*
X188061156Y-110849712D01*
X188061158Y-110849713D01*
X188218147Y-110964822D01*
X188273205Y-111005192D01*
X188277340Y-111007368D01*
X188277344Y-111007370D01*
X188406918Y-111075542D01*
X188510039Y-111129797D01*
X188514458Y-111131340D01*
X188758273Y-111216484D01*
X188758279Y-111216486D01*
X188762690Y-111218026D01*
X189025606Y-111267943D01*
X189152616Y-111272933D01*
X189288345Y-111278266D01*
X189288350Y-111278266D01*
X189293013Y-111278449D01*
X189388943Y-111267943D01*
X189554382Y-111249825D01*
X189554387Y-111249824D01*
X189559035Y-111249315D01*
X189674191Y-111218997D01*
X189813309Y-111182370D01*
X189817829Y-111181180D01*
X189993289Y-111105797D01*
X190059407Y-111077391D01*
X190059410Y-111077389D01*
X190063710Y-111075542D01*
X190067690Y-111073079D01*
X190067694Y-111073077D01*
X190287302Y-110937179D01*
X190287306Y-110937176D01*
X190291275Y-110934720D01*
X190385578Y-110854887D01*
X190491960Y-110764828D01*
X190491961Y-110764827D01*
X190495526Y-110761809D01*
X190586085Y-110658547D01*
X190668894Y-110564122D01*
X190668898Y-110564117D01*
X190671976Y-110560607D01*
X190674541Y-110556619D01*
X190814219Y-110339465D01*
X190814222Y-110339460D01*
X190816747Y-110335534D01*
X190926661Y-110091534D01*
X190993223Y-109855524D01*
X191025397Y-109800631D01*
X192533920Y-108292108D01*
X192596232Y-108258082D01*
X192667047Y-108263147D01*
X192723883Y-108305694D01*
X192748694Y-108372214D01*
X192730734Y-108446568D01*
X192619244Y-108630298D01*
X192515755Y-108877091D01*
X192514604Y-108881623D01*
X192514603Y-108881626D01*
X192468751Y-109062170D01*
X192435723Y-109120250D01*
X191298826Y-110257147D01*
X191285384Y-110268812D01*
X191282507Y-110270972D01*
X191282504Y-110270974D01*
X191278364Y-110274083D01*
X191274788Y-110277825D01*
X191274787Y-110277826D01*
X191203412Y-110352516D01*
X191201413Y-110354560D01*
X191172754Y-110383219D01*
X191171094Y-110385177D01*
X191171087Y-110385184D01*
X191164782Y-110392619D01*
X191159781Y-110398173D01*
X191115873Y-110444121D01*
X191107896Y-110452468D01*
X191104982Y-110456740D01*
X191086410Y-110483965D01*
X191078420Y-110494454D01*
X191053761Y-110523531D01*
X191040678Y-110545391D01*
X191015193Y-110587973D01*
X191011165Y-110594270D01*
X190968851Y-110656300D01*
X190966675Y-110660987D01*
X190966672Y-110660993D01*
X190952796Y-110690887D01*
X190946630Y-110702532D01*
X190927049Y-110735250D01*
X190925156Y-110740057D01*
X190925154Y-110740060D01*
X190899526Y-110805122D01*
X190896581Y-110811993D01*
X190864965Y-110880104D01*
X190863583Y-110885089D01*
X190863581Y-110885093D01*
X190854776Y-110916843D01*
X190850596Y-110929338D01*
X190836619Y-110964822D01*
X190835534Y-110969883D01*
X190820881Y-111038229D01*
X190819099Y-111045487D01*
X190807530Y-111087207D01*
X190799026Y-111117871D01*
X190797587Y-111131340D01*
X190794975Y-111155778D01*
X190792888Y-111168802D01*
X190785981Y-111201018D01*
X190785979Y-111201033D01*
X190784897Y-111206080D01*
X190781558Y-111276895D01*
X190781360Y-111281093D01*
X190780786Y-111288548D01*
X190777500Y-111319292D01*
X190777500Y-111359968D01*
X190777360Y-111365902D01*
X190773274Y-111452547D01*
X190773878Y-111457685D01*
X190776639Y-111481191D01*
X190777500Y-111495892D01*
X190777500Y-117384268D01*
X190776243Y-117402021D01*
X190775007Y-117410706D01*
X190775124Y-117415868D01*
X190775124Y-117415871D01*
X190777468Y-117519150D01*
X190777500Y-117522009D01*
X190777500Y-117562554D01*
X190777710Y-117565109D01*
X190777711Y-117565133D01*
X190778509Y-117574839D01*
X190778901Y-117582298D01*
X190780605Y-117657382D01*
X190781563Y-117662454D01*
X190781564Y-117662460D01*
X190787684Y-117694847D01*
X190789451Y-117707916D01*
X190791329Y-117730753D01*
X190792575Y-117745911D01*
X190799036Y-117771633D01*
X190810869Y-117818746D01*
X190812474Y-117826045D01*
X190826417Y-117899833D01*
X190828192Y-117904684D01*
X190828193Y-117904687D01*
X190839518Y-117935633D01*
X190843395Y-117948236D01*
X190852684Y-117985217D01*
X190854744Y-117989954D01*
X190882629Y-118054087D01*
X190885404Y-118061025D01*
X190911211Y-118131545D01*
X190913762Y-118136053D01*
X190929983Y-118164724D01*
X190935869Y-118176528D01*
X190951072Y-118211493D01*
X190953876Y-118215828D01*
X190953878Y-118215831D01*
X190961097Y-118226989D01*
X190991862Y-118274545D01*
X190995727Y-118280927D01*
X191030164Y-118341795D01*
X191030169Y-118341803D01*
X191032712Y-118346297D01*
X191035957Y-118350319D01*
X191035962Y-118350326D01*
X191056659Y-118375977D01*
X191064386Y-118386651D01*
X191085095Y-118418661D01*
X191135635Y-118474203D01*
X191140492Y-118479871D01*
X191157803Y-118501326D01*
X191157810Y-118501334D01*
X191159917Y-118503945D01*
X191188675Y-118532703D01*
X191192774Y-118536999D01*
X191251154Y-118601158D01*
X191255205Y-118604357D01*
X191255209Y-118604361D01*
X191273793Y-118619037D01*
X191284796Y-118628824D01*
X192436169Y-119780197D01*
X192470653Y-119844710D01*
X192488118Y-119932512D01*
X192578549Y-120184383D01*
X192580765Y-120188507D01*
X192648982Y-120315465D01*
X192705215Y-120420121D01*
X192708010Y-120423864D01*
X192708012Y-120423867D01*
X192792199Y-120536607D01*
X192865335Y-120634547D01*
X192868642Y-120637825D01*
X192868647Y-120637831D01*
X193052074Y-120819663D01*
X193055390Y-120822950D01*
X193271205Y-120981192D01*
X193275340Y-120983368D01*
X193275344Y-120983370D01*
X193404918Y-121051542D01*
X193508039Y-121105797D01*
X193512458Y-121107340D01*
X193752115Y-121191032D01*
X193809833Y-121232374D01*
X193836036Y-121298358D01*
X193836473Y-121315040D01*
X193806876Y-122052494D01*
X193784158Y-122119758D01*
X193728681Y-122164061D01*
X193680398Y-122173440D01*
X138810266Y-121920582D01*
X138742239Y-121900266D01*
X138695993Y-121846397D01*
X138684850Y-121793735D01*
X138688675Y-121225825D01*
X138753384Y-111616547D01*
X146069274Y-111616547D01*
X146069878Y-111621685D01*
X146072639Y-111645191D01*
X146073500Y-111659892D01*
X146073500Y-117220268D01*
X146072243Y-117238021D01*
X146071007Y-117246706D01*
X146071124Y-117251868D01*
X146071124Y-117251871D01*
X146073468Y-117355150D01*
X146073500Y-117358009D01*
X146073500Y-117398554D01*
X146073710Y-117401109D01*
X146073711Y-117401133D01*
X146074509Y-117410839D01*
X146074901Y-117418298D01*
X146076605Y-117493382D01*
X146077563Y-117498454D01*
X146077564Y-117498460D01*
X146083684Y-117530847D01*
X146085451Y-117543916D01*
X146087994Y-117574839D01*
X146088575Y-117581911D01*
X146089835Y-117586926D01*
X146106869Y-117654746D01*
X146108474Y-117662045D01*
X146114434Y-117693585D01*
X146122417Y-117735833D01*
X146124192Y-117740684D01*
X146124193Y-117740687D01*
X146135518Y-117771633D01*
X146139395Y-117784236D01*
X146148684Y-117821217D01*
X146163924Y-117856267D01*
X146178629Y-117890087D01*
X146181404Y-117897025D01*
X146207211Y-117967545D01*
X146219890Y-117989954D01*
X146225983Y-118000724D01*
X146231869Y-118012528D01*
X146247072Y-118047493D01*
X146249876Y-118051828D01*
X146249878Y-118051831D01*
X146253554Y-118057513D01*
X146287862Y-118110545D01*
X146291727Y-118116927D01*
X146326164Y-118177795D01*
X146326169Y-118177803D01*
X146328712Y-118182297D01*
X146331957Y-118186319D01*
X146331962Y-118186326D01*
X146352659Y-118211977D01*
X146360386Y-118222651D01*
X146381095Y-118254661D01*
X146431635Y-118310203D01*
X146436492Y-118315871D01*
X146453803Y-118337326D01*
X146453810Y-118337334D01*
X146455917Y-118339945D01*
X146484675Y-118368703D01*
X146488774Y-118372999D01*
X146547154Y-118437158D01*
X146551205Y-118440357D01*
X146551209Y-118440361D01*
X146569793Y-118455037D01*
X146580796Y-118464824D01*
X147896169Y-119780197D01*
X147930653Y-119844710D01*
X147948118Y-119932512D01*
X148038549Y-120184383D01*
X148040765Y-120188507D01*
X148108982Y-120315465D01*
X148165215Y-120420121D01*
X148168010Y-120423864D01*
X148168012Y-120423867D01*
X148252199Y-120536607D01*
X148325335Y-120634547D01*
X148328642Y-120637825D01*
X148328647Y-120637831D01*
X148512074Y-120819663D01*
X148515390Y-120822950D01*
X148731205Y-120981192D01*
X148735340Y-120983368D01*
X148735344Y-120983370D01*
X148864918Y-121051542D01*
X148968039Y-121105797D01*
X148972458Y-121107340D01*
X149216273Y-121192484D01*
X149216279Y-121192486D01*
X149220690Y-121194026D01*
X149483606Y-121243943D01*
X149610616Y-121248933D01*
X149746345Y-121254266D01*
X149746350Y-121254266D01*
X149751013Y-121254449D01*
X149846943Y-121243943D01*
X150012382Y-121225825D01*
X150012387Y-121225824D01*
X150017035Y-121225315D01*
X150132567Y-121194898D01*
X150271309Y-121158370D01*
X150275829Y-121157180D01*
X150400501Y-121103617D01*
X150517407Y-121053391D01*
X150517410Y-121053389D01*
X150521710Y-121051542D01*
X150525690Y-121049079D01*
X150525694Y-121049077D01*
X150745302Y-120913179D01*
X150745306Y-120913176D01*
X150749275Y-120910720D01*
X150763010Y-120899092D01*
X150949960Y-120740828D01*
X150949961Y-120740827D01*
X150953526Y-120737809D01*
X151047365Y-120630807D01*
X151126894Y-120540122D01*
X151126898Y-120540117D01*
X151129976Y-120536607D01*
X151132506Y-120532674D01*
X151272219Y-120315465D01*
X151272222Y-120315460D01*
X151274747Y-120311534D01*
X151384661Y-120067534D01*
X151422741Y-119932512D01*
X151456032Y-119814473D01*
X151456033Y-119814470D01*
X151457302Y-119809969D01*
X151491075Y-119544495D01*
X151493549Y-119450000D01*
X151473717Y-119183123D01*
X151414655Y-118922109D01*
X151317662Y-118672691D01*
X151276778Y-118601158D01*
X151268268Y-118586270D01*
X151184868Y-118440350D01*
X151019190Y-118230189D01*
X150824269Y-118046825D01*
X150604385Y-117894286D01*
X150600194Y-117892219D01*
X150368559Y-117777989D01*
X150368556Y-117777988D01*
X150364371Y-117775924D01*
X150286278Y-117750926D01*
X150223257Y-117730753D01*
X150109497Y-117694338D01*
X150104894Y-117693588D01*
X150104880Y-117693585D01*
X150083745Y-117690143D01*
X150014904Y-117654877D01*
X149111405Y-116751378D01*
X149077379Y-116689066D01*
X149074500Y-116662283D01*
X149074500Y-112237718D01*
X149094502Y-112169597D01*
X149111405Y-112148623D01*
X150016948Y-111243080D01*
X150073963Y-111210327D01*
X150271309Y-111158370D01*
X150275829Y-111157180D01*
X150400216Y-111103739D01*
X150517407Y-111053391D01*
X150517410Y-111053389D01*
X150521710Y-111051542D01*
X150525690Y-111049079D01*
X150525694Y-111049077D01*
X150745302Y-110913179D01*
X150745306Y-110913176D01*
X150749275Y-110910720D01*
X150815228Y-110854887D01*
X150949960Y-110740828D01*
X150949961Y-110740827D01*
X150953526Y-110737809D01*
X151028758Y-110652024D01*
X151126894Y-110540122D01*
X151126898Y-110540117D01*
X151129976Y-110536607D01*
X151132506Y-110532674D01*
X151272219Y-110315465D01*
X151272222Y-110315460D01*
X151274747Y-110311534D01*
X151384661Y-110067534D01*
X151444454Y-109855524D01*
X151456032Y-109814473D01*
X151456033Y-109814470D01*
X151457302Y-109809969D01*
X151491075Y-109544495D01*
X151493549Y-109450000D01*
X151473717Y-109183123D01*
X151467565Y-109155933D01*
X151415686Y-108926666D01*
X151414655Y-108922109D01*
X151317662Y-108672691D01*
X151184868Y-108440350D01*
X151019190Y-108230189D01*
X150824269Y-108046825D01*
X150604385Y-107894286D01*
X150600194Y-107892219D01*
X150368559Y-107777989D01*
X150368556Y-107777988D01*
X150364371Y-107775924D01*
X150343144Y-107769129D01*
X150113942Y-107695761D01*
X150113944Y-107695761D01*
X150109497Y-107694338D01*
X149964134Y-107670665D01*
X149849976Y-107652073D01*
X149849975Y-107652073D01*
X149845364Y-107651322D01*
X149711569Y-107649570D01*
X149582451Y-107647880D01*
X149582448Y-107647880D01*
X149577774Y-107647819D01*
X149312605Y-107683907D01*
X149308118Y-107685215D01*
X149308117Y-107685215D01*
X149276817Y-107694338D01*
X149055683Y-107758792D01*
X149051430Y-107760752D01*
X149051429Y-107760753D01*
X149006467Y-107781481D01*
X148812652Y-107870831D01*
X148808743Y-107873394D01*
X148592764Y-108014996D01*
X148592759Y-108015000D01*
X148588851Y-108017562D01*
X148389197Y-108195760D01*
X148218075Y-108401512D01*
X148215652Y-108405505D01*
X148081666Y-108626306D01*
X148081664Y-108626310D01*
X148079244Y-108630298D01*
X147975755Y-108877091D01*
X147974604Y-108881623D01*
X147974603Y-108881626D01*
X147928751Y-109062170D01*
X147895723Y-109120250D01*
X146594826Y-110421147D01*
X146581384Y-110432812D01*
X146578507Y-110434972D01*
X146578504Y-110434974D01*
X146574364Y-110438083D01*
X146570788Y-110441825D01*
X146570787Y-110441826D01*
X146499412Y-110516516D01*
X146497413Y-110518560D01*
X146468754Y-110547219D01*
X146467094Y-110549177D01*
X146467087Y-110549184D01*
X146460782Y-110556619D01*
X146455781Y-110562173D01*
X146403896Y-110616468D01*
X146400982Y-110620740D01*
X146382410Y-110647965D01*
X146374420Y-110658454D01*
X146349761Y-110687531D01*
X146323855Y-110730817D01*
X146311193Y-110751973D01*
X146307165Y-110758270D01*
X146264851Y-110820300D01*
X146262675Y-110824987D01*
X146262672Y-110824993D01*
X146248796Y-110854887D01*
X146242630Y-110866532D01*
X146223049Y-110899250D01*
X146221156Y-110904057D01*
X146221154Y-110904060D01*
X146195526Y-110969122D01*
X146192581Y-110975993D01*
X146160965Y-111044104D01*
X146159583Y-111049089D01*
X146159581Y-111049093D01*
X146150776Y-111080843D01*
X146146596Y-111093338D01*
X146132619Y-111128822D01*
X146131534Y-111133883D01*
X146116881Y-111202229D01*
X146115099Y-111209487D01*
X146098838Y-111268126D01*
X146095026Y-111281871D01*
X146091383Y-111315956D01*
X146090975Y-111319778D01*
X146088888Y-111332802D01*
X146081981Y-111365018D01*
X146081979Y-111365033D01*
X146080897Y-111370080D01*
X146077360Y-111445093D01*
X146076786Y-111452547D01*
X146073500Y-111483292D01*
X146073500Y-111523968D01*
X146073360Y-111529902D01*
X146069274Y-111616547D01*
X138753384Y-111616547D01*
X138842939Y-98317625D01*
X160900573Y-98317625D01*
X160901099Y-98322938D01*
X160911222Y-98425263D01*
X160911381Y-98426990D01*
X160920531Y-98534823D01*
X160921871Y-98539987D01*
X160922631Y-98544433D01*
X160923448Y-98548842D01*
X160923973Y-98554144D01*
X160952624Y-98658517D01*
X160953048Y-98660105D01*
X160980240Y-98764874D01*
X160982431Y-98769737D01*
X160983905Y-98773923D01*
X160985475Y-98778189D01*
X160986888Y-98783338D01*
X161032723Y-98881408D01*
X161033386Y-98882855D01*
X161077857Y-98981576D01*
X161080833Y-98985997D01*
X161083028Y-98989940D01*
X161085265Y-98993829D01*
X161087521Y-98998657D01*
X161090563Y-99003042D01*
X161149154Y-99087500D01*
X161150142Y-99088945D01*
X161210591Y-99178732D01*
X161214268Y-99182586D01*
X161217617Y-99186752D01*
X161217262Y-99187037D01*
X161217688Y-99187561D01*
X161218042Y-99187280D01*
X161220630Y-99190531D01*
X161222995Y-99193940D01*
X161225785Y-99197007D01*
X161225788Y-99197010D01*
X161238761Y-99211268D01*
X161238773Y-99211281D01*
X161239767Y-99212373D01*
X161302009Y-99274615D01*
X161304084Y-99276738D01*
X161374645Y-99350705D01*
X161378930Y-99353893D01*
X161378931Y-99353894D01*
X161380764Y-99355258D01*
X161394646Y-99367252D01*
X164325211Y-102297817D01*
X164331282Y-102304332D01*
X164369965Y-102348910D01*
X164374090Y-102353664D01*
X164378221Y-102357051D01*
X164457740Y-102422253D01*
X164459092Y-102423377D01*
X164483994Y-102444383D01*
X164541785Y-102493134D01*
X164546389Y-102495841D01*
X164550069Y-102498446D01*
X164553751Y-102500977D01*
X164557880Y-102504362D01*
X164651899Y-102557880D01*
X164653358Y-102558725D01*
X164742068Y-102610876D01*
X164742077Y-102610880D01*
X164746676Y-102613584D01*
X164751669Y-102615476D01*
X164755706Y-102617410D01*
X164759798Y-102619301D01*
X164764433Y-102621939D01*
X164866153Y-102658863D01*
X164867695Y-102659435D01*
X164968933Y-102697790D01*
X164974168Y-102698812D01*
X164978410Y-102700021D01*
X164982823Y-102701212D01*
X164987844Y-102703034D01*
X165094319Y-102722288D01*
X165095962Y-102722597D01*
X165178528Y-102738720D01*
X165188241Y-102740617D01*
X165202200Y-102743343D01*
X165207535Y-102743469D01*
X165212839Y-102744045D01*
X165212798Y-102744423D01*
X165213475Y-102744491D01*
X165213517Y-102744119D01*
X165217636Y-102744587D01*
X165221725Y-102745326D01*
X165225869Y-102745521D01*
X165225874Y-102745522D01*
X165245131Y-102746430D01*
X165245138Y-102746430D01*
X165246619Y-102746500D01*
X165334692Y-102746500D01*
X165337661Y-102746535D01*
X165439807Y-102748942D01*
X165445086Y-102748167D01*
X165445089Y-102748167D01*
X165446301Y-102747989D01*
X165447344Y-102747836D01*
X165465639Y-102746500D01*
X179523592Y-102746500D01*
X179532489Y-102746815D01*
X179546910Y-102747836D01*
X179592298Y-102751050D01*
X179592300Y-102751050D01*
X179597625Y-102751427D01*
X179705300Y-102740775D01*
X179706990Y-102740619D01*
X179814823Y-102731469D01*
X179819987Y-102730129D01*
X179824433Y-102729369D01*
X179828842Y-102728552D01*
X179834144Y-102728027D01*
X179938517Y-102699376D01*
X179940105Y-102698952D01*
X179966730Y-102692042D01*
X180039709Y-102673101D01*
X180039714Y-102673099D01*
X180044874Y-102671760D01*
X180049737Y-102669569D01*
X180053923Y-102668095D01*
X180058189Y-102666525D01*
X180063338Y-102665112D01*
X180161408Y-102619277D01*
X180162878Y-102618603D01*
X180165527Y-102617410D01*
X180190029Y-102606373D01*
X180256711Y-102576335D01*
X180256716Y-102576332D01*
X180261576Y-102574143D01*
X180265997Y-102571167D01*
X180269940Y-102568972D01*
X180273829Y-102566735D01*
X180278657Y-102564479D01*
X180367507Y-102502841D01*
X180368952Y-102501853D01*
X180387018Y-102489690D01*
X180458732Y-102441409D01*
X180462586Y-102437732D01*
X180466752Y-102434383D01*
X180467037Y-102434738D01*
X180467561Y-102434312D01*
X180467280Y-102433958D01*
X180470531Y-102431370D01*
X180473940Y-102429005D01*
X180477010Y-102426212D01*
X180491268Y-102413239D01*
X180491281Y-102413227D01*
X180492373Y-102412233D01*
X180554615Y-102349991D01*
X180556738Y-102347916D01*
X180626843Y-102281039D01*
X180630705Y-102277355D01*
X180635258Y-102271236D01*
X180647252Y-102257354D01*
X188418817Y-94485789D01*
X188425332Y-94479718D01*
X188470631Y-94440410D01*
X188470633Y-94440408D01*
X188474664Y-94436910D01*
X188521347Y-94379976D01*
X188543253Y-94353260D01*
X188544377Y-94351908D01*
X188610690Y-94273298D01*
X188610692Y-94273296D01*
X188614134Y-94269215D01*
X188616841Y-94264611D01*
X188619446Y-94260931D01*
X188621977Y-94257249D01*
X188625362Y-94253120D01*
X188678880Y-94159101D01*
X188679725Y-94157642D01*
X188731876Y-94068932D01*
X188731880Y-94068923D01*
X188734584Y-94064324D01*
X188736476Y-94059331D01*
X188738410Y-94055294D01*
X188740301Y-94051202D01*
X188742939Y-94046567D01*
X188779863Y-93944847D01*
X188780435Y-93943305D01*
X188818790Y-93842067D01*
X188819812Y-93836833D01*
X188821031Y-93832555D01*
X188822214Y-93828172D01*
X188824034Y-93823156D01*
X188843279Y-93716728D01*
X188843604Y-93715000D01*
X188863320Y-93614038D01*
X188863320Y-93614037D01*
X188864343Y-93608799D01*
X188864469Y-93603464D01*
X188865045Y-93598160D01*
X188865420Y-93598201D01*
X188865489Y-93597525D01*
X188865119Y-93597483D01*
X188865587Y-93593364D01*
X188866326Y-93589275D01*
X188867500Y-93564381D01*
X188867500Y-93476307D01*
X188867535Y-93473339D01*
X188869816Y-93376529D01*
X188869942Y-93371192D01*
X188868836Y-93363655D01*
X188867500Y-93345360D01*
X188867500Y-80399733D01*
X188887502Y-80331612D01*
X188941158Y-80285119D01*
X189011432Y-80275015D01*
X189062013Y-80295677D01*
X189062664Y-80294635D01*
X189066632Y-80297114D01*
X189070398Y-80299876D01*
X189074529Y-80302050D01*
X189074530Y-80302050D01*
X189298099Y-80419675D01*
X189298105Y-80419677D01*
X189302234Y-80421850D01*
X189306642Y-80423389D01*
X189306648Y-80423392D01*
X189477256Y-80482971D01*
X189549552Y-80508218D01*
X189806920Y-80557081D01*
X189931175Y-80561963D01*
X190064015Y-80567182D01*
X190064020Y-80567182D01*
X190068683Y-80567365D01*
X190170540Y-80556210D01*
X190324438Y-80539356D01*
X190324444Y-80539355D01*
X190329091Y-80538846D01*
X190524234Y-80487469D01*
X190577900Y-80473340D01*
X190577902Y-80473339D01*
X190582423Y-80472149D01*
X190750976Y-80399733D01*
X190818820Y-80370585D01*
X190818822Y-80370584D01*
X190823114Y-80368740D01*
X191045876Y-80230891D01*
X191245816Y-80061629D01*
X191415352Y-79868311D01*
X191415460Y-79868188D01*
X191415464Y-79868183D01*
X191418542Y-79864673D01*
X191442632Y-79827221D01*
X191557730Y-79648281D01*
X191557733Y-79648276D01*
X191560258Y-79644350D01*
X191667852Y-79405501D01*
X191738960Y-79153371D01*
X191755802Y-79020985D01*
X191771622Y-78896631D01*
X191771622Y-78896627D01*
X191772020Y-78893501D01*
X191772832Y-78862512D01*
X191774359Y-78804160D01*
X191774442Y-78801000D01*
X191758433Y-78585568D01*
X191755374Y-78544407D01*
X191755373Y-78544403D01*
X191755028Y-78539755D01*
X191697213Y-78284250D01*
X191695520Y-78279896D01*
X191603960Y-78044450D01*
X191603959Y-78044448D01*
X191602267Y-78040097D01*
X191581015Y-78002914D01*
X191474595Y-77816716D01*
X191474593Y-77816714D01*
X191472276Y-77812659D01*
X191310095Y-77606933D01*
X191119287Y-77427440D01*
X191108790Y-77420158D01*
X190907887Y-77280785D01*
X190907884Y-77280783D01*
X190904045Y-77278120D01*
X190899855Y-77276054D01*
X190899852Y-77276052D01*
X190673283Y-77164321D01*
X190673280Y-77164320D01*
X190669095Y-77162256D01*
X190622832Y-77147447D01*
X190568752Y-77130136D01*
X190419601Y-77082393D01*
X190414994Y-77081643D01*
X190414991Y-77081642D01*
X190165654Y-77041035D01*
X190165655Y-77041035D01*
X190161043Y-77040284D01*
X190033858Y-77038619D01*
X189903777Y-77036916D01*
X189903774Y-77036916D01*
X189899100Y-77036855D01*
X189639528Y-77072181D01*
X189635042Y-77073489D01*
X189635040Y-77073489D01*
X189604492Y-77082393D01*
X189388029Y-77145486D01*
X189150127Y-77255160D01*
X189115107Y-77278120D01*
X188934962Y-77396228D01*
X188934957Y-77396232D01*
X188931049Y-77398794D01*
X188898954Y-77427440D01*
X188821059Y-77496964D01*
X188756918Y-77527402D01*
X188686504Y-77518331D01*
X188650825Y-77494736D01*
X188582695Y-77430646D01*
X188579287Y-77427440D01*
X188568790Y-77420158D01*
X188367887Y-77280785D01*
X188367884Y-77280783D01*
X188364045Y-77278120D01*
X188359855Y-77276054D01*
X188359852Y-77276052D01*
X188133283Y-77164321D01*
X188133280Y-77164320D01*
X188129095Y-77162256D01*
X188082832Y-77147447D01*
X188028752Y-77130136D01*
X187879601Y-77082393D01*
X187874994Y-77081643D01*
X187874991Y-77081642D01*
X187625654Y-77041035D01*
X187625655Y-77041035D01*
X187621043Y-77040284D01*
X187493858Y-77038619D01*
X187363777Y-77036916D01*
X187363774Y-77036916D01*
X187359100Y-77036855D01*
X187099528Y-77072181D01*
X187095042Y-77073489D01*
X187095040Y-77073489D01*
X187064492Y-77082393D01*
X186848029Y-77145486D01*
X186610127Y-77255160D01*
X186575107Y-77278120D01*
X186522585Y-77312555D01*
X186454649Y-77333178D01*
X186386349Y-77313798D01*
X186339369Y-77260569D01*
X186327500Y-77207183D01*
X186327500Y-73729412D01*
X186327815Y-73720513D01*
X186332050Y-73660703D01*
X186332050Y-73660700D01*
X186332427Y-73655375D01*
X186324559Y-73575842D01*
X186321775Y-73547698D01*
X186321614Y-73545948D01*
X186312920Y-73443492D01*
X186312469Y-73438177D01*
X186311128Y-73433013D01*
X186310372Y-73428588D01*
X186309554Y-73424175D01*
X186309028Y-73418856D01*
X186280385Y-73314515D01*
X186279937Y-73312836D01*
X186254102Y-73213297D01*
X186252760Y-73208126D01*
X186250567Y-73203259D01*
X186249076Y-73199024D01*
X186247524Y-73194806D01*
X186246112Y-73189662D01*
X186200316Y-73091675D01*
X186199584Y-73090080D01*
X186157338Y-72996297D01*
X186155143Y-72991424D01*
X186152157Y-72986989D01*
X186149963Y-72983047D01*
X186147743Y-72979186D01*
X186145480Y-72974344D01*
X186083790Y-72885419D01*
X186082809Y-72883984D01*
X186025389Y-72798694D01*
X186025387Y-72798692D01*
X186022409Y-72794268D01*
X186018729Y-72790410D01*
X186015381Y-72786246D01*
X186015704Y-72785986D01*
X186015282Y-72785468D01*
X186014962Y-72785723D01*
X186012369Y-72782466D01*
X186010006Y-72779060D01*
X186007217Y-72775995D01*
X186007213Y-72775990D01*
X185994242Y-72761736D01*
X185993233Y-72760627D01*
X185930991Y-72698385D01*
X185928916Y-72696262D01*
X185862039Y-72626157D01*
X185858355Y-72622295D01*
X185852236Y-72617742D01*
X185838354Y-72605748D01*
X183400789Y-70168183D01*
X183394718Y-70161668D01*
X183355410Y-70116369D01*
X183355408Y-70116367D01*
X183351910Y-70112336D01*
X183280480Y-70053767D01*
X183268260Y-70043747D01*
X183266908Y-70042623D01*
X183188298Y-69976310D01*
X183188296Y-69976308D01*
X183184215Y-69972866D01*
X183179611Y-69970159D01*
X183175931Y-69967554D01*
X183172249Y-69965023D01*
X183168120Y-69961638D01*
X183074101Y-69908120D01*
X183072642Y-69907275D01*
X182983928Y-69855122D01*
X182983923Y-69855119D01*
X182979324Y-69852416D01*
X182974339Y-69850528D01*
X182970345Y-69848614D01*
X182966199Y-69846698D01*
X182961567Y-69844061D01*
X182956558Y-69842243D01*
X182956552Y-69842240D01*
X182859842Y-69807136D01*
X182858223Y-69806535D01*
X182757067Y-69768211D01*
X182751825Y-69767187D01*
X182747440Y-69765938D01*
X182743171Y-69764786D01*
X182738156Y-69762966D01*
X182631656Y-69743708D01*
X182630071Y-69743411D01*
X182523800Y-69722657D01*
X182518463Y-69722531D01*
X182513161Y-69721955D01*
X182513202Y-69721577D01*
X182512525Y-69721509D01*
X182512483Y-69721881D01*
X182508364Y-69721413D01*
X182504275Y-69720674D01*
X182500131Y-69720479D01*
X182500126Y-69720478D01*
X182480869Y-69719570D01*
X182480862Y-69719570D01*
X182479381Y-69719500D01*
X182391308Y-69719500D01*
X182388340Y-69719465D01*
X182385485Y-69719398D01*
X182286193Y-69717058D01*
X182280914Y-69717833D01*
X182280911Y-69717833D01*
X182279699Y-69718011D01*
X182278656Y-69718164D01*
X182260361Y-69719500D01*
X177346408Y-69719500D01*
X177337511Y-69719185D01*
X177309250Y-69717184D01*
X177277702Y-69714950D01*
X177277700Y-69714950D01*
X177272375Y-69714573D01*
X177164700Y-69725225D01*
X177163010Y-69725381D01*
X177055177Y-69734531D01*
X177050013Y-69735871D01*
X177045567Y-69736631D01*
X177041159Y-69737448D01*
X177035856Y-69737973D01*
X176931509Y-69766617D01*
X176929887Y-69767050D01*
X176918120Y-69770104D01*
X176830299Y-69792897D01*
X176830295Y-69792898D01*
X176825126Y-69794240D01*
X176820255Y-69796434D01*
X176816042Y-69797918D01*
X176811814Y-69799474D01*
X176806661Y-69800888D01*
X176708603Y-69846717D01*
X176707103Y-69847406D01*
X176608424Y-69891857D01*
X176603989Y-69894843D01*
X176600011Y-69897057D01*
X176596176Y-69899262D01*
X176591343Y-69901521D01*
X176508495Y-69958996D01*
X176502452Y-69963188D01*
X176501018Y-69964168D01*
X176411268Y-70024591D01*
X176407410Y-70028272D01*
X176403249Y-70031617D01*
X176403013Y-70031323D01*
X176402491Y-70031749D01*
X176402722Y-70032039D01*
X176399465Y-70034632D01*
X176396059Y-70036995D01*
X176392994Y-70039784D01*
X176392989Y-70039788D01*
X176381484Y-70050258D01*
X176377627Y-70053767D01*
X176315385Y-70116009D01*
X176313262Y-70118084D01*
X176239295Y-70188645D01*
X176236107Y-70192930D01*
X176236106Y-70192931D01*
X176234742Y-70194764D01*
X176222748Y-70208646D01*
X172818799Y-73612595D01*
X172756487Y-73646621D01*
X172729704Y-73649500D01*
X170795697Y-73649500D01*
X170727576Y-73629498D01*
X170681083Y-73575842D01*
X170670979Y-73505568D01*
X170689726Y-73455337D01*
X170713192Y-73418856D01*
X170754403Y-73354786D01*
X170862180Y-73115530D01*
X170933409Y-72862971D01*
X170966525Y-72602658D01*
X170968951Y-72510000D01*
X170965161Y-72459000D01*
X170949850Y-72252963D01*
X170949849Y-72252959D01*
X170949504Y-72248311D01*
X170891591Y-71992370D01*
X170796483Y-71747801D01*
X170666270Y-71519976D01*
X170504530Y-71314810D01*
X170478065Y-71248932D01*
X170491418Y-71179202D01*
X170508748Y-71153728D01*
X170612445Y-71035484D01*
X170754403Y-70814786D01*
X170862180Y-70575530D01*
X170933409Y-70322971D01*
X170950281Y-70190349D01*
X170966127Y-70065789D01*
X170966127Y-70065783D01*
X170966525Y-70062658D01*
X170967346Y-70031323D01*
X170968868Y-69973160D01*
X170968951Y-69970000D01*
X170965507Y-69923655D01*
X170949850Y-69712963D01*
X170949849Y-69712959D01*
X170949504Y-69708311D01*
X170891591Y-69452370D01*
X170796483Y-69207801D01*
X170788578Y-69193969D01*
X170747917Y-69122828D01*
X170666270Y-68979976D01*
X170504530Y-68774810D01*
X170478065Y-68708932D01*
X170491418Y-68639202D01*
X170508748Y-68613728D01*
X170612445Y-68495484D01*
X170622566Y-68479750D01*
X170751875Y-68278716D01*
X170754403Y-68274786D01*
X170862180Y-68035530D01*
X170933409Y-67782971D01*
X170966525Y-67522658D01*
X170968951Y-67430000D01*
X170949504Y-67168311D01*
X170891591Y-66912370D01*
X170858758Y-66827940D01*
X170798176Y-66672154D01*
X170798175Y-66672152D01*
X170796483Y-66667801D01*
X170666270Y-66439976D01*
X170504530Y-66234810D01*
X170478065Y-66168932D01*
X170491418Y-66099202D01*
X170508748Y-66073728D01*
X170612445Y-65955484D01*
X170754403Y-65734786D01*
X170862180Y-65495530D01*
X170933409Y-65242971D01*
X170966525Y-64982658D01*
X170968951Y-64890000D01*
X170955610Y-64710470D01*
X170949850Y-64632963D01*
X170949849Y-64632959D01*
X170949504Y-64628311D01*
X170891591Y-64372370D01*
X170796483Y-64127801D01*
X170666270Y-63899976D01*
X170504530Y-63694810D01*
X170478065Y-63628932D01*
X170491418Y-63559202D01*
X170508748Y-63533728D01*
X170612445Y-63415484D01*
X170634080Y-63381850D01*
X170734278Y-63226073D01*
X170754403Y-63194786D01*
X170862180Y-62955530D01*
X170933409Y-62702971D01*
X170966525Y-62442658D01*
X170968951Y-62350000D01*
X170949504Y-62088311D01*
X170891591Y-61832370D01*
X170796483Y-61587801D01*
X170666270Y-61359976D01*
X170504530Y-61154810D01*
X170478065Y-61088932D01*
X170491418Y-61019202D01*
X170508748Y-60993728D01*
X170612445Y-60875484D01*
X170754403Y-60654786D01*
X170862180Y-60415530D01*
X170933409Y-60162971D01*
X170966525Y-59902658D01*
X170968951Y-59810000D01*
X170949504Y-59548311D01*
X170891591Y-59292370D01*
X170796483Y-59047801D01*
X170666270Y-58819976D01*
X170504530Y-58614810D01*
X170478065Y-58548932D01*
X170491418Y-58479202D01*
X170508748Y-58453728D01*
X170612445Y-58335484D01*
X170754403Y-58114786D01*
X170862180Y-57875530D01*
X170933409Y-57622971D01*
X170966525Y-57362658D01*
X170968951Y-57270000D01*
X170949504Y-57008311D01*
X170891591Y-56752370D01*
X170796483Y-56507801D01*
X170666270Y-56279976D01*
X170504530Y-56074810D01*
X170478065Y-56008932D01*
X170491418Y-55939202D01*
X170508748Y-55913728D01*
X170612445Y-55795484D01*
X170754403Y-55574786D01*
X170862180Y-55335530D01*
X170933409Y-55082971D01*
X170966525Y-54822658D01*
X170968951Y-54730000D01*
X170949504Y-54468311D01*
X170891591Y-54212370D01*
X170796483Y-53967801D01*
X170666270Y-53739976D01*
X170504530Y-53534810D01*
X170478065Y-53468932D01*
X170491418Y-53399202D01*
X170508748Y-53373728D01*
X170612445Y-53255484D01*
X170754403Y-53034786D01*
X170862180Y-52795530D01*
X170933409Y-52542971D01*
X170966525Y-52282658D01*
X170968951Y-52190000D01*
X170949504Y-51928311D01*
X170891591Y-51672370D01*
X170858758Y-51587940D01*
X170798176Y-51432154D01*
X170798175Y-51432152D01*
X170796483Y-51427801D01*
X170666270Y-51199976D01*
X170504530Y-50994810D01*
X170478065Y-50928932D01*
X170491418Y-50859202D01*
X170508748Y-50833728D01*
X170525960Y-50814101D01*
X170612445Y-50715484D01*
X170661274Y-50639572D01*
X170751875Y-50498716D01*
X170754403Y-50494786D01*
X170862180Y-50255530D01*
X170933409Y-50002971D01*
X170966525Y-49742658D01*
X170968951Y-49650000D01*
X170955610Y-49470470D01*
X170949850Y-49392963D01*
X170949849Y-49392959D01*
X170949504Y-49388311D01*
X170891591Y-49132370D01*
X170855420Y-49039356D01*
X170798176Y-48892154D01*
X170798175Y-48892152D01*
X170796483Y-48887801D01*
X170666270Y-48659976D01*
X170503813Y-48453901D01*
X170312681Y-48274101D01*
X170097072Y-48124528D01*
X169904905Y-48029761D01*
X169865909Y-48010530D01*
X169865905Y-48010529D01*
X169861723Y-48008466D01*
X169611804Y-47928467D01*
X169607197Y-47927717D01*
X169607194Y-47927716D01*
X169357416Y-47887037D01*
X169357417Y-47887037D01*
X169352805Y-47886286D01*
X169221611Y-47884568D01*
X169095093Y-47882912D01*
X169095090Y-47882912D01*
X169090417Y-47882851D01*
X168938909Y-47903471D01*
X168835037Y-47917607D01*
X168835033Y-47917608D01*
X168830403Y-47918238D01*
X168578475Y-47991668D01*
X168340168Y-48101529D01*
X168298463Y-48128872D01*
X168229378Y-48149500D01*
X165632002Y-48149500D01*
X165576274Y-48136506D01*
X165526559Y-48111989D01*
X165526556Y-48111988D01*
X165522371Y-48109924D01*
X165490032Y-48099572D01*
X165271942Y-48029761D01*
X165271944Y-48029761D01*
X165267497Y-48028338D01*
X165034281Y-47990357D01*
X165007976Y-47986073D01*
X165007975Y-47986073D01*
X165003364Y-47985322D01*
X164869569Y-47983571D01*
X164740451Y-47981880D01*
X164740448Y-47981880D01*
X164735774Y-47981819D01*
X164470605Y-48017907D01*
X164466118Y-48019215D01*
X164466117Y-48019215D01*
X164434817Y-48028338D01*
X164213683Y-48092792D01*
X164209430Y-48094752D01*
X164209429Y-48094753D01*
X164157512Y-48118687D01*
X163970652Y-48204831D01*
X163966743Y-48207394D01*
X163750764Y-48348996D01*
X163750759Y-48349000D01*
X163746851Y-48351562D01*
X163547197Y-48529760D01*
X163376075Y-48735512D01*
X163373652Y-48739505D01*
X163283664Y-48887801D01*
X163237244Y-48964298D01*
X163235437Y-48968606D01*
X163235437Y-48968607D01*
X163164855Y-49136927D01*
X163133755Y-49211091D01*
X163067881Y-49470470D01*
X163041070Y-49736736D01*
X163041294Y-49741403D01*
X163041294Y-49741408D01*
X163048330Y-49887886D01*
X163053909Y-50004041D01*
X163106118Y-50266512D01*
X163196549Y-50518383D01*
X163198765Y-50522507D01*
X163302455Y-50715484D01*
X163323215Y-50754121D01*
X163326010Y-50757864D01*
X163326012Y-50757867D01*
X163401683Y-50859202D01*
X163483335Y-50968547D01*
X163486642Y-50971825D01*
X163486647Y-50971831D01*
X163505683Y-50990701D01*
X163673390Y-51156950D01*
X163677156Y-51159712D01*
X163677158Y-51159713D01*
X163765050Y-51224158D01*
X163889205Y-51315192D01*
X163893340Y-51317368D01*
X163893344Y-51317370D01*
X164022918Y-51385542D01*
X164126039Y-51439797D01*
X164130458Y-51441340D01*
X164374273Y-51526484D01*
X164374279Y-51526486D01*
X164378690Y-51528026D01*
X164641606Y-51577943D01*
X164768616Y-51582933D01*
X164904345Y-51588266D01*
X164904350Y-51588266D01*
X164909013Y-51588449D01*
X165004943Y-51577943D01*
X165170382Y-51559825D01*
X165170387Y-51559824D01*
X165175035Y-51559315D01*
X165290567Y-51528898D01*
X165429309Y-51492370D01*
X165433829Y-51491180D01*
X165581349Y-51427801D01*
X165675407Y-51387391D01*
X165675410Y-51387389D01*
X165679710Y-51385542D01*
X165683690Y-51383079D01*
X165683694Y-51383077D01*
X165903302Y-51247179D01*
X165903306Y-51247176D01*
X165907275Y-51244720D01*
X165960129Y-51199976D01*
X165983332Y-51180333D01*
X166048248Y-51151584D01*
X166064744Y-51150500D01*
X167540220Y-51150500D01*
X167608341Y-51170502D01*
X167654834Y-51224158D01*
X167664938Y-51294432D01*
X167647939Y-51341864D01*
X167623448Y-51382224D01*
X167623442Y-51382235D01*
X167621017Y-51386232D01*
X167619208Y-51390546D01*
X167619207Y-51390548D01*
X167536220Y-51588449D01*
X167519539Y-51628228D01*
X167454946Y-51882564D01*
X167428656Y-52143655D01*
X167441246Y-52405764D01*
X167492440Y-52663132D01*
X167581113Y-52910107D01*
X167583330Y-52914233D01*
X167645816Y-53030525D01*
X167705317Y-53141263D01*
X167708112Y-53145006D01*
X167708114Y-53145009D01*
X167859532Y-53347782D01*
X167859537Y-53347788D01*
X167862324Y-53351520D01*
X167865639Y-53354806D01*
X167882401Y-53371423D01*
X167916697Y-53433586D01*
X167911940Y-53504423D01*
X167890569Y-53541473D01*
X167757148Y-53701894D01*
X167621017Y-53926232D01*
X167619208Y-53930546D01*
X167619207Y-53930548D01*
X167603586Y-53967801D01*
X167519539Y-54168228D01*
X167454946Y-54422564D01*
X167428656Y-54683655D01*
X167441246Y-54945764D01*
X167492440Y-55203132D01*
X167581113Y-55450107D01*
X167583330Y-55454233D01*
X167645816Y-55570525D01*
X167705317Y-55681263D01*
X167708112Y-55685006D01*
X167708114Y-55685009D01*
X167859532Y-55887782D01*
X167859537Y-55887788D01*
X167862324Y-55891520D01*
X167865639Y-55894806D01*
X167882401Y-55911423D01*
X167916697Y-55973586D01*
X167911940Y-56044423D01*
X167890569Y-56081473D01*
X167757148Y-56241894D01*
X167621017Y-56466232D01*
X167619208Y-56470546D01*
X167619207Y-56470548D01*
X167603586Y-56507801D01*
X167519539Y-56708228D01*
X167454946Y-56962564D01*
X167428656Y-57223655D01*
X167441246Y-57485764D01*
X167492440Y-57743132D01*
X167581113Y-57990107D01*
X167583330Y-57994233D01*
X167645816Y-58110525D01*
X167705317Y-58221263D01*
X167708112Y-58225006D01*
X167708114Y-58225009D01*
X167859532Y-58427782D01*
X167859537Y-58427788D01*
X167862324Y-58431520D01*
X167865639Y-58434806D01*
X167882401Y-58451423D01*
X167916697Y-58513586D01*
X167911940Y-58584423D01*
X167890569Y-58621473D01*
X167757148Y-58781894D01*
X167621017Y-59006232D01*
X167619208Y-59010546D01*
X167619207Y-59010548D01*
X167603586Y-59047801D01*
X167519539Y-59248228D01*
X167454946Y-59502564D01*
X167428656Y-59763655D01*
X167441246Y-60025764D01*
X167492440Y-60283132D01*
X167581113Y-60530107D01*
X167583330Y-60534233D01*
X167645816Y-60650525D01*
X167705317Y-60761263D01*
X167708112Y-60765006D01*
X167708114Y-60765009D01*
X167859532Y-60967782D01*
X167859537Y-60967788D01*
X167862324Y-60971520D01*
X167865639Y-60974806D01*
X167882401Y-60991423D01*
X167916697Y-61053586D01*
X167911940Y-61124423D01*
X167890569Y-61161473D01*
X167757148Y-61321894D01*
X167621017Y-61546232D01*
X167619208Y-61550546D01*
X167619207Y-61550548D01*
X167603586Y-61587801D01*
X167519539Y-61788228D01*
X167454946Y-62042564D01*
X167428656Y-62303655D01*
X167441246Y-62565764D01*
X167492440Y-62823132D01*
X167581113Y-63070107D01*
X167583330Y-63074233D01*
X167652982Y-63203862D01*
X167667605Y-63273336D01*
X167642347Y-63339688D01*
X167585225Y-63381850D01*
X167541990Y-63389500D01*
X165886002Y-63389500D01*
X165830274Y-63376506D01*
X165780559Y-63351989D01*
X165780556Y-63351988D01*
X165776371Y-63349924D01*
X165521497Y-63268338D01*
X165376134Y-63244665D01*
X165261976Y-63226073D01*
X165261975Y-63226073D01*
X165257364Y-63225322D01*
X165123569Y-63223570D01*
X164994451Y-63221880D01*
X164994448Y-63221880D01*
X164989774Y-63221819D01*
X164724605Y-63257907D01*
X164720118Y-63259215D01*
X164720117Y-63259215D01*
X164688817Y-63268338D01*
X164467683Y-63332792D01*
X164463430Y-63334752D01*
X164463429Y-63334753D01*
X164411512Y-63358687D01*
X164224652Y-63444831D01*
X164220743Y-63447394D01*
X164004764Y-63588996D01*
X164004759Y-63589000D01*
X164000851Y-63591562D01*
X163801197Y-63769760D01*
X163630075Y-63975512D01*
X163627652Y-63979505D01*
X163537664Y-64127801D01*
X163491244Y-64204298D01*
X163489437Y-64208606D01*
X163489437Y-64208607D01*
X163418855Y-64376927D01*
X163387755Y-64451091D01*
X163321881Y-64710470D01*
X163295070Y-64976736D01*
X163295294Y-64981403D01*
X163295294Y-64981408D01*
X163301043Y-65101094D01*
X163307909Y-65244041D01*
X163360118Y-65506512D01*
X163450549Y-65758383D01*
X163452765Y-65762507D01*
X163556455Y-65955484D01*
X163577215Y-65994121D01*
X163580010Y-65997864D01*
X163580012Y-65997867D01*
X163655683Y-66099202D01*
X163737335Y-66208547D01*
X163740642Y-66211825D01*
X163740647Y-66211831D01*
X163920883Y-66390500D01*
X163927390Y-66396950D01*
X163931156Y-66399712D01*
X163931158Y-66399713D01*
X164019050Y-66464158D01*
X164143205Y-66555192D01*
X164147340Y-66557368D01*
X164147344Y-66557370D01*
X164276918Y-66625542D01*
X164380039Y-66679797D01*
X164384458Y-66681340D01*
X164628273Y-66766484D01*
X164628279Y-66766486D01*
X164632690Y-66768026D01*
X164895606Y-66817943D01*
X165022616Y-66822933D01*
X165158345Y-66828266D01*
X165158350Y-66828266D01*
X165163013Y-66828449D01*
X165258943Y-66817943D01*
X165424382Y-66799825D01*
X165424387Y-66799824D01*
X165429035Y-66799315D01*
X165544567Y-66768898D01*
X165683309Y-66732370D01*
X165687829Y-66731180D01*
X165835349Y-66667801D01*
X165929407Y-66627391D01*
X165929410Y-66627389D01*
X165933710Y-66625542D01*
X165937690Y-66623079D01*
X165937694Y-66623077D01*
X166157302Y-66487179D01*
X166157306Y-66487176D01*
X166161275Y-66484720D01*
X166214129Y-66439976D01*
X166237332Y-66420333D01*
X166302248Y-66391584D01*
X166318744Y-66390500D01*
X167540220Y-66390500D01*
X167608341Y-66410502D01*
X167654834Y-66464158D01*
X167664938Y-66534432D01*
X167647939Y-66581864D01*
X167623448Y-66622224D01*
X167623442Y-66622235D01*
X167621017Y-66626232D01*
X167619208Y-66630546D01*
X167619207Y-66630548D01*
X167536220Y-66828449D01*
X167519539Y-66868228D01*
X167518388Y-66872760D01*
X167518387Y-66872763D01*
X167468827Y-67067907D01*
X167454946Y-67122564D01*
X167428656Y-67383655D01*
X167428880Y-67388321D01*
X167428880Y-67388327D01*
X167431034Y-67433160D01*
X167441246Y-67645764D01*
X167492440Y-67903132D01*
X167581113Y-68150107D01*
X167583330Y-68154233D01*
X167645816Y-68270525D01*
X167705317Y-68381263D01*
X167708112Y-68385006D01*
X167708114Y-68385009D01*
X167859532Y-68587782D01*
X167859537Y-68587788D01*
X167862324Y-68591520D01*
X167865639Y-68594806D01*
X167882401Y-68611423D01*
X167916697Y-68673586D01*
X167911940Y-68744423D01*
X167890569Y-68781473D01*
X167757148Y-68941894D01*
X167621017Y-69166232D01*
X167619208Y-69170546D01*
X167619207Y-69170548D01*
X167603586Y-69207801D01*
X167519539Y-69408228D01*
X167518388Y-69412760D01*
X167518387Y-69412763D01*
X167508328Y-69452370D01*
X167454946Y-69662564D01*
X167428656Y-69923655D01*
X167428880Y-69928321D01*
X167428880Y-69928327D01*
X167433842Y-70031617D01*
X167441246Y-70185764D01*
X167492440Y-70443132D01*
X167581113Y-70690107D01*
X167583330Y-70694233D01*
X167645816Y-70810525D01*
X167705317Y-70921263D01*
X167708112Y-70925006D01*
X167708114Y-70925009D01*
X167859532Y-71127782D01*
X167859537Y-71127788D01*
X167862324Y-71131520D01*
X167865639Y-71134806D01*
X167882401Y-71151423D01*
X167916697Y-71213586D01*
X167911940Y-71284423D01*
X167890569Y-71321473D01*
X167757148Y-71481894D01*
X167621017Y-71706232D01*
X167619208Y-71710546D01*
X167619207Y-71710548D01*
X167603586Y-71747801D01*
X167519539Y-71948228D01*
X167454946Y-72202564D01*
X167428656Y-72463655D01*
X167428880Y-72468321D01*
X167428880Y-72468327D01*
X167432347Y-72540502D01*
X167441246Y-72725764D01*
X167492440Y-72983132D01*
X167581113Y-73230107D01*
X167583330Y-73234233D01*
X167692913Y-73438177D01*
X167705317Y-73461263D01*
X167708112Y-73465006D01*
X167708114Y-73465009D01*
X167859532Y-73667782D01*
X167859537Y-73667788D01*
X167862324Y-73671520D01*
X167865639Y-73674806D01*
X167882401Y-73691423D01*
X167916697Y-73753586D01*
X167911940Y-73824423D01*
X167890569Y-73861473D01*
X167757148Y-74021894D01*
X167621017Y-74246232D01*
X167619208Y-74250546D01*
X167619207Y-74250548D01*
X167595411Y-74307296D01*
X167519539Y-74488228D01*
X167518388Y-74492760D01*
X167518387Y-74492763D01*
X167457305Y-74733275D01*
X167454946Y-74742564D01*
X167428656Y-75003655D01*
X167428880Y-75008321D01*
X167428880Y-75008327D01*
X167430731Y-75046851D01*
X167441246Y-75265764D01*
X167492440Y-75523132D01*
X167581113Y-75770107D01*
X167583330Y-75774233D01*
X167705317Y-76001263D01*
X167704027Y-76001956D01*
X167721980Y-76063991D01*
X167701713Y-76132033D01*
X167647876Y-76178317D01*
X167595981Y-76189500D01*
X166812408Y-76189500D01*
X166803511Y-76189185D01*
X166783902Y-76187797D01*
X166743702Y-76184950D01*
X166743700Y-76184950D01*
X166738375Y-76184573D01*
X166692345Y-76189127D01*
X166630698Y-76195225D01*
X166628948Y-76195386D01*
X166526492Y-76204080D01*
X166521177Y-76204531D01*
X166516013Y-76205872D01*
X166511588Y-76206628D01*
X166507175Y-76207446D01*
X166501856Y-76207972D01*
X166397515Y-76236615D01*
X166395858Y-76237057D01*
X166291126Y-76264240D01*
X166286259Y-76266433D01*
X166282024Y-76267924D01*
X166277806Y-76269476D01*
X166272662Y-76270888D01*
X166183039Y-76312775D01*
X166174733Y-76316657D01*
X166173157Y-76317381D01*
X166074424Y-76361857D01*
X166069999Y-76364836D01*
X166066091Y-76367011D01*
X166062176Y-76369262D01*
X166057344Y-76371521D01*
X165968404Y-76433221D01*
X165967071Y-76434132D01*
X165877268Y-76494591D01*
X165873410Y-76498271D01*
X165869246Y-76501619D01*
X165868986Y-76501296D01*
X165868468Y-76501718D01*
X165868723Y-76502038D01*
X165865466Y-76504631D01*
X165862060Y-76506994D01*
X165858995Y-76509783D01*
X165858990Y-76509787D01*
X165847516Y-76520228D01*
X165843627Y-76523767D01*
X165781385Y-76586009D01*
X165779262Y-76588084D01*
X165705295Y-76658645D01*
X165702107Y-76662930D01*
X165702106Y-76662931D01*
X165700742Y-76664764D01*
X165688748Y-76678646D01*
X161354183Y-81013211D01*
X161347668Y-81019282D01*
X161306235Y-81055236D01*
X161298336Y-81062090D01*
X161294949Y-81066221D01*
X161229747Y-81145740D01*
X161228623Y-81147092D01*
X161209721Y-81169500D01*
X161158866Y-81229785D01*
X161156159Y-81234389D01*
X161153554Y-81238069D01*
X161151023Y-81241751D01*
X161147638Y-81245880D01*
X161094120Y-81339899D01*
X161093275Y-81341358D01*
X161041122Y-81430072D01*
X161041119Y-81430077D01*
X161038416Y-81434676D01*
X161036528Y-81439661D01*
X161034614Y-81443655D01*
X161032698Y-81447801D01*
X161030061Y-81452433D01*
X161028243Y-81457442D01*
X161028240Y-81457448D01*
X160993136Y-81554158D01*
X160992535Y-81555777D01*
X160954211Y-81656933D01*
X160953187Y-81662175D01*
X160951938Y-81666560D01*
X160950786Y-81670829D01*
X160948966Y-81675844D01*
X160937699Y-81738158D01*
X160929720Y-81782282D01*
X160929411Y-81783929D01*
X160908657Y-81890200D01*
X160908531Y-81895537D01*
X160907955Y-81900839D01*
X160907577Y-81900798D01*
X160907509Y-81901475D01*
X160907881Y-81901517D01*
X160907413Y-81905636D01*
X160906674Y-81909725D01*
X160905500Y-81934619D01*
X160905500Y-82022692D01*
X160905465Y-82025660D01*
X160903058Y-82127807D01*
X160903833Y-82133086D01*
X160903833Y-82133089D01*
X160904164Y-82135341D01*
X160905500Y-82153639D01*
X160905500Y-98243592D01*
X160905185Y-98252489D01*
X160900573Y-98317625D01*
X138842939Y-98317625D01*
X138954238Y-81789652D01*
X138974698Y-81721667D01*
X139028666Y-81675537D01*
X139080235Y-81664500D01*
X144119589Y-81664500D01*
X144187710Y-81684502D01*
X144234203Y-81738158D01*
X144244307Y-81808432D01*
X144227308Y-81855865D01*
X144221017Y-81866232D01*
X144219208Y-81870546D01*
X144219207Y-81870548D01*
X144153731Y-82026691D01*
X144119539Y-82108228D01*
X144118388Y-82112760D01*
X144118387Y-82112763D01*
X144075745Y-82280666D01*
X144054946Y-82362564D01*
X144028656Y-82623655D01*
X144041246Y-82885764D01*
X144092440Y-83143132D01*
X144181113Y-83390107D01*
X144183330Y-83394233D01*
X144296600Y-83605039D01*
X144305317Y-83621263D01*
X144308112Y-83625006D01*
X144308114Y-83625009D01*
X144459532Y-83827782D01*
X144459537Y-83827788D01*
X144462324Y-83831520D01*
X144465639Y-83834806D01*
X144482401Y-83851423D01*
X144516697Y-83913586D01*
X144511940Y-83984423D01*
X144490569Y-84021473D01*
X144357148Y-84181894D01*
X144221017Y-84406232D01*
X144219208Y-84410546D01*
X144219207Y-84410548D01*
X144136220Y-84608449D01*
X144119539Y-84648228D01*
X144054946Y-84902564D01*
X144028656Y-85163655D01*
X144041246Y-85425764D01*
X144092440Y-85683132D01*
X144181113Y-85930107D01*
X144183330Y-85934233D01*
X144245816Y-86050525D01*
X144305317Y-86161263D01*
X144308112Y-86165006D01*
X144308114Y-86165009D01*
X144459532Y-86367782D01*
X144459537Y-86367788D01*
X144462324Y-86371520D01*
X144465639Y-86374806D01*
X144482401Y-86391423D01*
X144516697Y-86453586D01*
X144511940Y-86524423D01*
X144490569Y-86561473D01*
X144357148Y-86721894D01*
X144221017Y-86946232D01*
X144219208Y-86950546D01*
X144219207Y-86950548D01*
X144203586Y-86987801D01*
X144119539Y-87188228D01*
X144054946Y-87442564D01*
X144028656Y-87703655D01*
X144041246Y-87965764D01*
X144092440Y-88223132D01*
X144181113Y-88470107D01*
X144183330Y-88474233D01*
X144245816Y-88590525D01*
X144305317Y-88701263D01*
X144308112Y-88705006D01*
X144308114Y-88705009D01*
X144459532Y-88907782D01*
X144459537Y-88907788D01*
X144462324Y-88911520D01*
X144465639Y-88914806D01*
X144482401Y-88931423D01*
X144516697Y-88993586D01*
X144511940Y-89064423D01*
X144490569Y-89101473D01*
X144357148Y-89261894D01*
X144221017Y-89486232D01*
X144219208Y-89490546D01*
X144219207Y-89490548D01*
X144203586Y-89527801D01*
X144119539Y-89728228D01*
X144054946Y-89982564D01*
X144028656Y-90243655D01*
X144041246Y-90505764D01*
X144092440Y-90763132D01*
X144181113Y-91010107D01*
X144183330Y-91014233D01*
X144245816Y-91130525D01*
X144305317Y-91241263D01*
X144308112Y-91245006D01*
X144308114Y-91245009D01*
X144459532Y-91447782D01*
X144459537Y-91447788D01*
X144462324Y-91451520D01*
X144465639Y-91454806D01*
X144482401Y-91471423D01*
X144516697Y-91533586D01*
X144511940Y-91604423D01*
X144490569Y-91641473D01*
X144357148Y-91801894D01*
X144221017Y-92026232D01*
X144219208Y-92030546D01*
X144219207Y-92030548D01*
X144203586Y-92067801D01*
X144119539Y-92268228D01*
X144054946Y-92522564D01*
X144028656Y-92783655D01*
X144028880Y-92788321D01*
X144028880Y-92788327D01*
X144033900Y-92892825D01*
X144041246Y-93045764D01*
X144092440Y-93303132D01*
X144181113Y-93550107D01*
X144183330Y-93554233D01*
X144270172Y-93715854D01*
X144305317Y-93781263D01*
X144308112Y-93785006D01*
X144308114Y-93785009D01*
X144459532Y-93987782D01*
X144459537Y-93987788D01*
X144462324Y-93991520D01*
X144465639Y-93994806D01*
X144482401Y-94011423D01*
X144516697Y-94073586D01*
X144511940Y-94144423D01*
X144490569Y-94181473D01*
X144357148Y-94341894D01*
X144221017Y-94566232D01*
X144219208Y-94570546D01*
X144219207Y-94570548D01*
X144203586Y-94607801D01*
X144119539Y-94808228D01*
X144054946Y-95062564D01*
X144028656Y-95323655D01*
X144041246Y-95585764D01*
X144092440Y-95843132D01*
X144181113Y-96090107D01*
X144183330Y-96094233D01*
X144245816Y-96210525D01*
X144305317Y-96321263D01*
X144308112Y-96325006D01*
X144308114Y-96325009D01*
X144459532Y-96527782D01*
X144459537Y-96527788D01*
X144462324Y-96531520D01*
X144648684Y-96716262D01*
X144652446Y-96719020D01*
X144652449Y-96719023D01*
X144856530Y-96868661D01*
X144860304Y-96871428D01*
X144864447Y-96873608D01*
X144864449Y-96873609D01*
X145088384Y-96991427D01*
X145088389Y-96991429D01*
X145092534Y-96993610D01*
X145096957Y-96995155D01*
X145096958Y-96995155D01*
X145335857Y-97078582D01*
X145335863Y-97078584D01*
X145340274Y-97080124D01*
X145344867Y-97080996D01*
X145593490Y-97128199D01*
X145593493Y-97128199D01*
X145598079Y-97129070D01*
X145722692Y-97133966D01*
X145855620Y-97139189D01*
X145855625Y-97139189D01*
X145860288Y-97139372D01*
X145962311Y-97128199D01*
X146116486Y-97111315D01*
X146116492Y-97111314D01*
X146121139Y-97110805D01*
X146125663Y-97109614D01*
X146370379Y-97045185D01*
X146370381Y-97045184D01*
X146374902Y-97043994D01*
X146492174Y-96993610D01*
X146611709Y-96942254D01*
X146611711Y-96942253D01*
X146616003Y-96940409D01*
X146839145Y-96802325D01*
X147039426Y-96632775D01*
X147212445Y-96435484D01*
X147354403Y-96214786D01*
X147462180Y-95975530D01*
X147533409Y-95722971D01*
X147566525Y-95462658D01*
X147568951Y-95370000D01*
X147549504Y-95108311D01*
X147491591Y-94852370D01*
X147396483Y-94607801D01*
X147266270Y-94379976D01*
X147104530Y-94174810D01*
X147078065Y-94108932D01*
X147091418Y-94039202D01*
X147108748Y-94013728D01*
X147212445Y-93895484D01*
X147243599Y-93847051D01*
X147351875Y-93678716D01*
X147354403Y-93674786D01*
X147462180Y-93435530D01*
X147533409Y-93182971D01*
X147566525Y-92922658D01*
X147568951Y-92830000D01*
X147549504Y-92568311D01*
X147491591Y-92312370D01*
X147396483Y-92067801D01*
X147266270Y-91839976D01*
X147104530Y-91634810D01*
X147078065Y-91568932D01*
X147091418Y-91499202D01*
X147108748Y-91473728D01*
X147212445Y-91355484D01*
X147354403Y-91134786D01*
X147462180Y-90895530D01*
X147533409Y-90642971D01*
X147566525Y-90382658D01*
X147568951Y-90290000D01*
X147549504Y-90028311D01*
X147491591Y-89772370D01*
X147396483Y-89527801D01*
X147266270Y-89299976D01*
X147104530Y-89094810D01*
X147078065Y-89028932D01*
X147091418Y-88959202D01*
X147108748Y-88933728D01*
X147212445Y-88815484D01*
X147354403Y-88594786D01*
X147462180Y-88355530D01*
X147533409Y-88102971D01*
X147566525Y-87842658D01*
X147568951Y-87750000D01*
X147549504Y-87488311D01*
X147491591Y-87232370D01*
X147396483Y-86987801D01*
X147266270Y-86759976D01*
X147104530Y-86554810D01*
X147078065Y-86488932D01*
X147091418Y-86419202D01*
X147108748Y-86393728D01*
X147212445Y-86275484D01*
X147354403Y-86054786D01*
X147462180Y-85815530D01*
X147533409Y-85562971D01*
X147566525Y-85302658D01*
X147568951Y-85210000D01*
X147549504Y-84948311D01*
X147491591Y-84692370D01*
X147458758Y-84607940D01*
X147398176Y-84452154D01*
X147398175Y-84452152D01*
X147396483Y-84447801D01*
X147345742Y-84359023D01*
X147329305Y-84289956D01*
X147352818Y-84222966D01*
X147408816Y-84179322D01*
X147455135Y-84170500D01*
X148637349Y-84170500D01*
X148705470Y-84190502D01*
X148711854Y-84194888D01*
X148802977Y-84261702D01*
X148903205Y-84335192D01*
X148907340Y-84337368D01*
X148907344Y-84337370D01*
X149036918Y-84405542D01*
X149140039Y-84459797D01*
X149144458Y-84461340D01*
X149388273Y-84546484D01*
X149388279Y-84546486D01*
X149392690Y-84548026D01*
X149655606Y-84597943D01*
X149782616Y-84602933D01*
X149918345Y-84608266D01*
X149918350Y-84608266D01*
X149923013Y-84608449D01*
X150018943Y-84597943D01*
X150184382Y-84579825D01*
X150184387Y-84579824D01*
X150189035Y-84579315D01*
X150304567Y-84548898D01*
X150443309Y-84512370D01*
X150447829Y-84511180D01*
X150595349Y-84447801D01*
X150689407Y-84407391D01*
X150689410Y-84407389D01*
X150693710Y-84405542D01*
X150697690Y-84403079D01*
X150697694Y-84403077D01*
X150917302Y-84267179D01*
X150917306Y-84267176D01*
X150921275Y-84264720D01*
X151125526Y-84091809D01*
X151185519Y-84023400D01*
X151298894Y-83894122D01*
X151298898Y-83894117D01*
X151301976Y-83890607D01*
X151304506Y-83886674D01*
X151444219Y-83669465D01*
X151444222Y-83669460D01*
X151446747Y-83665534D01*
X151556661Y-83421534D01*
X151629302Y-83163969D01*
X151663075Y-82898495D01*
X151663289Y-82890349D01*
X151665466Y-82807160D01*
X151665549Y-82804000D01*
X151655911Y-82674296D01*
X151646064Y-82541788D01*
X151646063Y-82541784D01*
X151645717Y-82537123D01*
X151586655Y-82276109D01*
X151526908Y-82122470D01*
X151491355Y-82031044D01*
X151491354Y-82031042D01*
X151489662Y-82026691D01*
X151356868Y-81794350D01*
X151191190Y-81584189D01*
X150996269Y-81400825D01*
X150776385Y-81248286D01*
X150772194Y-81246219D01*
X150540559Y-81131989D01*
X150540556Y-81131988D01*
X150536371Y-81129924D01*
X150281497Y-81048338D01*
X150103083Y-81019282D01*
X150021976Y-81006073D01*
X150021975Y-81006073D01*
X150017364Y-81005322D01*
X149883569Y-81003570D01*
X149754451Y-81001880D01*
X149754448Y-81001880D01*
X149749774Y-81001819D01*
X149484605Y-81037907D01*
X149480118Y-81039215D01*
X149480117Y-81039215D01*
X149448817Y-81048338D01*
X149227683Y-81112792D01*
X149223430Y-81114752D01*
X149223429Y-81114753D01*
X149129780Y-81157926D01*
X149077029Y-81169500D01*
X147460020Y-81169500D01*
X147391899Y-81149498D01*
X147345406Y-81095842D01*
X147335302Y-81025568D01*
X147350972Y-80983549D01*
X147349643Y-80982827D01*
X147351874Y-80978718D01*
X147354403Y-80974786D01*
X147462180Y-80735530D01*
X147533409Y-80482971D01*
X147547941Y-80368740D01*
X147566127Y-80225789D01*
X147566127Y-80225783D01*
X147566525Y-80222658D01*
X147568951Y-80130000D01*
X147564928Y-80075861D01*
X147549850Y-79872963D01*
X147549849Y-79872959D01*
X147549504Y-79868311D01*
X147491591Y-79612370D01*
X147396483Y-79367801D01*
X147266270Y-79139976D01*
X147104530Y-78934810D01*
X147078065Y-78868932D01*
X147091418Y-78799202D01*
X147108748Y-78773728D01*
X147165076Y-78709498D01*
X147212445Y-78655484D01*
X147354403Y-78434786D01*
X147462180Y-78195530D01*
X147533409Y-77942971D01*
X147549987Y-77812659D01*
X147566127Y-77685789D01*
X147566127Y-77685783D01*
X147566525Y-77682658D01*
X147568951Y-77590000D01*
X147556672Y-77424771D01*
X147549850Y-77332963D01*
X147549849Y-77332959D01*
X147549504Y-77328311D01*
X147491591Y-77072370D01*
X147489898Y-77068016D01*
X147398176Y-76832154D01*
X147398175Y-76832152D01*
X147396483Y-76827801D01*
X147266270Y-76599976D01*
X147104530Y-76394810D01*
X147078065Y-76328932D01*
X147091418Y-76259202D01*
X147108748Y-76233728D01*
X147212445Y-76115484D01*
X147224806Y-76096268D01*
X147341879Y-75914256D01*
X147354403Y-75894786D01*
X147462180Y-75655530D01*
X147533409Y-75402971D01*
X147566525Y-75142658D01*
X147568951Y-75050000D01*
X147560401Y-74934949D01*
X147549850Y-74792963D01*
X147549849Y-74792959D01*
X147549504Y-74788311D01*
X147491591Y-74532370D01*
X147396483Y-74287801D01*
X147266270Y-74059976D01*
X147104530Y-73854810D01*
X147078065Y-73788932D01*
X147091418Y-73719202D01*
X147108748Y-73693728D01*
X147212445Y-73575484D01*
X147230881Y-73546823D01*
X147351875Y-73358716D01*
X147354403Y-73354786D01*
X147462180Y-73115530D01*
X147533409Y-72862971D01*
X147566525Y-72602658D01*
X147568951Y-72510000D01*
X147565161Y-72459000D01*
X147549850Y-72252963D01*
X147549849Y-72252959D01*
X147549504Y-72248311D01*
X147491591Y-71992370D01*
X147396483Y-71747801D01*
X147266270Y-71519976D01*
X147104530Y-71314810D01*
X147078065Y-71248932D01*
X147091418Y-71179202D01*
X147108748Y-71153728D01*
X147212445Y-71035484D01*
X147354403Y-70814786D01*
X147462180Y-70575530D01*
X147533409Y-70322971D01*
X147550281Y-70190349D01*
X147566127Y-70065789D01*
X147566127Y-70065783D01*
X147566525Y-70062658D01*
X147567346Y-70031323D01*
X147568868Y-69973160D01*
X147568951Y-69970000D01*
X147565507Y-69923655D01*
X147549850Y-69712963D01*
X147549849Y-69712959D01*
X147549504Y-69708311D01*
X147491591Y-69452370D01*
X147396483Y-69207801D01*
X147388578Y-69193969D01*
X147347917Y-69122828D01*
X147266270Y-68979976D01*
X147104530Y-68774810D01*
X147078065Y-68708932D01*
X147091418Y-68639202D01*
X147108748Y-68613728D01*
X147212445Y-68495484D01*
X147222566Y-68479750D01*
X147351875Y-68278716D01*
X147354403Y-68274786D01*
X147462180Y-68035530D01*
X147533409Y-67782971D01*
X147566525Y-67522658D01*
X147568951Y-67430000D01*
X147549504Y-67168311D01*
X147491591Y-66912370D01*
X147458758Y-66827940D01*
X147398176Y-66672154D01*
X147398175Y-66672152D01*
X147396483Y-66667801D01*
X147266270Y-66439976D01*
X147104530Y-66234810D01*
X147078065Y-66168932D01*
X147091418Y-66099202D01*
X147108748Y-66073728D01*
X147212445Y-65955484D01*
X147354403Y-65734786D01*
X147462180Y-65495530D01*
X147533409Y-65242971D01*
X147566525Y-64982658D01*
X147568951Y-64890000D01*
X147555610Y-64710470D01*
X147549850Y-64632963D01*
X147549849Y-64632959D01*
X147549504Y-64628311D01*
X147491591Y-64372370D01*
X147396483Y-64127801D01*
X147266270Y-63899976D01*
X147104530Y-63694810D01*
X147078065Y-63628932D01*
X147091418Y-63559202D01*
X147108748Y-63533728D01*
X147212445Y-63415484D01*
X147234080Y-63381850D01*
X147334278Y-63226073D01*
X147354403Y-63194786D01*
X147462180Y-62955530D01*
X147533409Y-62702971D01*
X147566525Y-62442658D01*
X147568951Y-62350000D01*
X147549504Y-62088311D01*
X147491591Y-61832370D01*
X147396483Y-61587801D01*
X147266270Y-61359976D01*
X147104530Y-61154810D01*
X147078065Y-61088932D01*
X147091418Y-61019202D01*
X147108748Y-60993728D01*
X147212445Y-60875484D01*
X147354403Y-60654786D01*
X147462180Y-60415530D01*
X147533409Y-60162971D01*
X147566525Y-59902658D01*
X147568951Y-59810000D01*
X147549504Y-59548311D01*
X147491591Y-59292370D01*
X147396483Y-59047801D01*
X147266270Y-58819976D01*
X147104530Y-58614810D01*
X147078065Y-58548932D01*
X147091418Y-58479202D01*
X147108748Y-58453728D01*
X147212445Y-58335484D01*
X147354403Y-58114786D01*
X147462180Y-57875530D01*
X147533409Y-57622971D01*
X147566525Y-57362658D01*
X147568951Y-57270000D01*
X147549504Y-57008311D01*
X147491591Y-56752370D01*
X147396483Y-56507801D01*
X147266270Y-56279976D01*
X147104530Y-56074810D01*
X147078065Y-56008932D01*
X147091418Y-55939202D01*
X147108748Y-55913728D01*
X147212445Y-55795484D01*
X147354403Y-55574786D01*
X147462180Y-55335530D01*
X147533409Y-55082971D01*
X147566525Y-54822658D01*
X147568951Y-54730000D01*
X147549504Y-54468311D01*
X147491591Y-54212370D01*
X147396483Y-53967801D01*
X147266270Y-53739976D01*
X147104530Y-53534810D01*
X147078065Y-53468932D01*
X147091418Y-53399202D01*
X147108748Y-53373728D01*
X147212445Y-53255484D01*
X147354403Y-53034786D01*
X147462180Y-52795530D01*
X147533409Y-52542971D01*
X147566525Y-52282658D01*
X147568951Y-52190000D01*
X147549504Y-51928311D01*
X147491591Y-51672370D01*
X147458758Y-51587940D01*
X147398176Y-51432154D01*
X147398175Y-51432152D01*
X147396483Y-51427801D01*
X147266270Y-51199976D01*
X147103813Y-50993901D01*
X146912681Y-50814101D01*
X146697072Y-50664528D01*
X146577016Y-50605323D01*
X146465909Y-50550530D01*
X146465905Y-50550529D01*
X146461723Y-50548466D01*
X146211804Y-50468467D01*
X146207197Y-50467717D01*
X146207194Y-50467716D01*
X145957416Y-50427037D01*
X145957417Y-50427037D01*
X145952805Y-50426286D01*
X145821611Y-50424568D01*
X145695093Y-50422912D01*
X145695090Y-50422912D01*
X145690417Y-50422851D01*
X145538909Y-50443471D01*
X145435037Y-50457607D01*
X145435033Y-50457608D01*
X145430403Y-50458238D01*
X145178475Y-50531668D01*
X144940168Y-50641529D01*
X144936259Y-50644092D01*
X144724631Y-50782841D01*
X144724626Y-50782845D01*
X144720718Y-50785407D01*
X144524944Y-50960141D01*
X144357148Y-51161894D01*
X144221017Y-51386232D01*
X144219208Y-51390546D01*
X144219207Y-51390548D01*
X144136220Y-51588449D01*
X144119539Y-51628228D01*
X144054946Y-51882564D01*
X144028656Y-52143655D01*
X144041246Y-52405764D01*
X144092440Y-52663132D01*
X144181113Y-52910107D01*
X144183330Y-52914233D01*
X144245816Y-53030525D01*
X144305317Y-53141263D01*
X144308112Y-53145006D01*
X144308114Y-53145009D01*
X144459532Y-53347782D01*
X144459537Y-53347788D01*
X144462324Y-53351520D01*
X144465639Y-53354806D01*
X144482401Y-53371423D01*
X144516697Y-53433586D01*
X144511940Y-53504423D01*
X144490569Y-53541473D01*
X144357148Y-53701894D01*
X144221017Y-53926232D01*
X144219208Y-53930546D01*
X144219207Y-53930548D01*
X144203586Y-53967801D01*
X144119539Y-54168228D01*
X144054946Y-54422564D01*
X144028656Y-54683655D01*
X144041246Y-54945764D01*
X144092440Y-55203132D01*
X144181113Y-55450107D01*
X144183330Y-55454233D01*
X144245816Y-55570525D01*
X144305317Y-55681263D01*
X144308112Y-55685006D01*
X144308114Y-55685009D01*
X144459532Y-55887782D01*
X144459537Y-55887788D01*
X144462324Y-55891520D01*
X144465639Y-55894806D01*
X144482401Y-55911423D01*
X144516697Y-55973586D01*
X144511940Y-56044423D01*
X144490569Y-56081473D01*
X144357148Y-56241894D01*
X144221017Y-56466232D01*
X144219208Y-56470546D01*
X144219207Y-56470548D01*
X144203586Y-56507801D01*
X144119539Y-56708228D01*
X144054946Y-56962564D01*
X144028656Y-57223655D01*
X144041246Y-57485764D01*
X144092440Y-57743132D01*
X144181113Y-57990107D01*
X144183330Y-57994233D01*
X144245816Y-58110525D01*
X144305317Y-58221263D01*
X144308112Y-58225006D01*
X144308114Y-58225009D01*
X144459532Y-58427782D01*
X144459537Y-58427788D01*
X144462324Y-58431520D01*
X144465639Y-58434806D01*
X144482401Y-58451423D01*
X144516697Y-58513586D01*
X144511940Y-58584423D01*
X144490569Y-58621473D01*
X144357148Y-58781894D01*
X144221017Y-59006232D01*
X144219208Y-59010546D01*
X144219207Y-59010548D01*
X144203586Y-59047801D01*
X144119539Y-59248228D01*
X144054946Y-59502564D01*
X144028656Y-59763655D01*
X144041246Y-60025764D01*
X144092440Y-60283132D01*
X144181113Y-60530107D01*
X144183330Y-60534233D01*
X144245816Y-60650525D01*
X144305317Y-60761263D01*
X144308112Y-60765006D01*
X144308114Y-60765009D01*
X144459532Y-60967782D01*
X144459537Y-60967788D01*
X144462324Y-60971520D01*
X144465639Y-60974806D01*
X144482401Y-60991423D01*
X144516697Y-61053586D01*
X144511940Y-61124423D01*
X144490569Y-61161473D01*
X144357148Y-61321894D01*
X144221017Y-61546232D01*
X144219208Y-61550546D01*
X144219207Y-61550548D01*
X144203586Y-61587801D01*
X144119539Y-61788228D01*
X144054946Y-62042564D01*
X144028656Y-62303655D01*
X144041246Y-62565764D01*
X144092440Y-62823132D01*
X144181113Y-63070107D01*
X144183330Y-63074233D01*
X144281683Y-63257277D01*
X144305317Y-63301263D01*
X144308112Y-63305006D01*
X144308114Y-63305009D01*
X144459532Y-63507782D01*
X144459537Y-63507788D01*
X144462324Y-63511520D01*
X144465639Y-63514806D01*
X144482401Y-63531423D01*
X144516697Y-63593586D01*
X144511940Y-63664423D01*
X144490569Y-63701473D01*
X144357148Y-63861894D01*
X144221017Y-64086232D01*
X144219208Y-64090546D01*
X144219207Y-64090548D01*
X144169701Y-64208607D01*
X144119539Y-64328228D01*
X144118388Y-64332760D01*
X144118387Y-64332763D01*
X144088336Y-64451091D01*
X144054946Y-64582564D01*
X144028656Y-64843655D01*
X144041246Y-65105764D01*
X144092440Y-65363132D01*
X144181113Y-65610107D01*
X144183330Y-65614233D01*
X144245816Y-65730525D01*
X144305317Y-65841263D01*
X144308112Y-65845006D01*
X144308114Y-65845009D01*
X144459532Y-66047782D01*
X144459537Y-66047788D01*
X144462324Y-66051520D01*
X144465639Y-66054806D01*
X144482401Y-66071423D01*
X144516697Y-66133586D01*
X144511940Y-66204423D01*
X144490569Y-66241473D01*
X144357148Y-66401894D01*
X144221017Y-66626232D01*
X144219208Y-66630546D01*
X144219207Y-66630548D01*
X144136220Y-66828449D01*
X144119539Y-66868228D01*
X144118388Y-66872760D01*
X144118387Y-66872763D01*
X144068827Y-67067907D01*
X144054946Y-67122564D01*
X144028656Y-67383655D01*
X144028880Y-67388321D01*
X144028880Y-67388327D01*
X144031034Y-67433160D01*
X144041246Y-67645764D01*
X144092440Y-67903132D01*
X144181113Y-68150107D01*
X144183330Y-68154233D01*
X144245816Y-68270525D01*
X144305317Y-68381263D01*
X144308112Y-68385006D01*
X144308114Y-68385009D01*
X144459532Y-68587782D01*
X144459537Y-68587788D01*
X144462324Y-68591520D01*
X144465639Y-68594806D01*
X144482401Y-68611423D01*
X144516697Y-68673586D01*
X144511940Y-68744423D01*
X144490569Y-68781473D01*
X144357148Y-68941894D01*
X144221017Y-69166232D01*
X144219208Y-69170546D01*
X144219207Y-69170548D01*
X144203586Y-69207801D01*
X144119539Y-69408228D01*
X144118388Y-69412760D01*
X144118387Y-69412763D01*
X144108328Y-69452370D01*
X144054946Y-69662564D01*
X144028656Y-69923655D01*
X144028880Y-69928321D01*
X144028880Y-69928327D01*
X144033842Y-70031617D01*
X144041246Y-70185764D01*
X144092440Y-70443132D01*
X144181113Y-70690107D01*
X144183330Y-70694233D01*
X144245816Y-70810525D01*
X144305317Y-70921263D01*
X144308112Y-70925006D01*
X144308114Y-70925009D01*
X144395559Y-71042111D01*
X144420291Y-71108660D01*
X144405117Y-71178017D01*
X144354855Y-71228159D01*
X144294601Y-71243500D01*
X139152107Y-71243500D01*
X139083986Y-71223498D01*
X139037493Y-71169842D01*
X139026110Y-71116652D01*
X139026683Y-71031556D01*
X139031532Y-70311440D01*
X139051992Y-70243456D01*
X139076112Y-70216128D01*
X139187526Y-70121809D01*
X139190793Y-70118084D01*
X139360894Y-69924122D01*
X139360898Y-69924117D01*
X139363976Y-69920607D01*
X139371984Y-69908157D01*
X139506219Y-69699465D01*
X139506222Y-69699460D01*
X139508747Y-69695534D01*
X139618661Y-69451534D01*
X139681837Y-69227531D01*
X139690032Y-69198473D01*
X139690033Y-69198470D01*
X139691302Y-69193969D01*
X139697060Y-69148706D01*
X139724677Y-68931625D01*
X139724677Y-68931621D01*
X139725075Y-68928495D01*
X139727549Y-68834000D01*
X139723083Y-68773901D01*
X139708064Y-68571788D01*
X139708063Y-68571784D01*
X139707717Y-68567123D01*
X139648655Y-68306109D01*
X139646962Y-68301755D01*
X139553355Y-68061044D01*
X139553354Y-68061042D01*
X139551662Y-68056691D01*
X139539568Y-68035530D01*
X139502268Y-67970270D01*
X139418868Y-67824350D01*
X139253190Y-67614189D01*
X139091011Y-67461625D01*
X139055099Y-67400382D01*
X139051347Y-67369003D01*
X139191161Y-46606602D01*
X139211621Y-46538617D01*
X139265589Y-46492487D01*
X139316603Y-46481451D01*
X152073804Y-46425252D01*
X178863924Y-46307234D01*
X178932132Y-46326936D01*
X178978861Y-46380386D01*
X178989274Y-46450615D01*
X178976746Y-46490436D01*
X178974626Y-46494597D01*
X178972198Y-46498598D01*
X178970389Y-46502912D01*
X178970388Y-46502914D01*
X178952971Y-46544450D01*
X178870893Y-46740182D01*
X178806409Y-46994087D01*
X178780164Y-47254734D01*
X178792732Y-47516397D01*
X178843839Y-47773328D01*
X178845418Y-47777726D01*
X178845420Y-47777733D01*
X178918921Y-47982450D01*
X178932361Y-48019883D01*
X179056355Y-48250646D01*
X179059150Y-48254389D01*
X179059152Y-48254392D01*
X179210303Y-48456808D01*
X179210308Y-48456814D01*
X179213095Y-48460546D01*
X179216404Y-48463826D01*
X179216409Y-48463832D01*
X179318109Y-48564648D01*
X179399138Y-48644973D01*
X179402900Y-48647731D01*
X179402903Y-48647734D01*
X179606631Y-48797114D01*
X179610398Y-48799876D01*
X179614529Y-48802050D01*
X179614530Y-48802050D01*
X179838099Y-48919675D01*
X179838105Y-48919677D01*
X179842234Y-48921850D01*
X179846642Y-48923389D01*
X179846648Y-48923392D01*
X180085136Y-49006676D01*
X180089552Y-49008218D01*
X180346920Y-49057081D01*
X180471175Y-49061963D01*
X180604015Y-49067182D01*
X180604020Y-49067182D01*
X180608683Y-49067365D01*
X180710540Y-49056210D01*
X180864438Y-49039356D01*
X180864444Y-49039355D01*
X180869091Y-49038846D01*
X180991281Y-49006676D01*
X181117900Y-48973340D01*
X181117902Y-48973339D01*
X181122423Y-48972149D01*
X181126720Y-48970303D01*
X181358820Y-48870585D01*
X181358822Y-48870584D01*
X181363114Y-48868740D01*
X181585876Y-48730891D01*
X181735045Y-48604610D01*
X181799961Y-48575861D01*
X181870114Y-48586773D01*
X181905162Y-48611293D01*
X181935821Y-48641685D01*
X181939138Y-48644973D01*
X181942900Y-48647731D01*
X181942903Y-48647734D01*
X182146631Y-48797114D01*
X182150398Y-48799876D01*
X182154529Y-48802050D01*
X182154530Y-48802050D01*
X182378099Y-48919675D01*
X182378105Y-48919677D01*
X182382234Y-48921850D01*
X182386642Y-48923389D01*
X182386648Y-48923392D01*
X182625136Y-49006676D01*
X182629552Y-49008218D01*
X182886920Y-49057081D01*
X183011175Y-49061963D01*
X183144015Y-49067182D01*
X183144020Y-49067182D01*
X183148683Y-49067365D01*
X183250540Y-49056210D01*
X183404438Y-49039356D01*
X183404444Y-49039355D01*
X183409091Y-49038846D01*
X183531281Y-49006676D01*
X183657900Y-48973340D01*
X183657902Y-48973339D01*
X183662423Y-48972149D01*
X183666720Y-48970303D01*
X183898820Y-48870585D01*
X183898822Y-48870584D01*
X183903114Y-48868740D01*
X184125876Y-48730891D01*
X184275045Y-48604610D01*
X184339961Y-48575861D01*
X184410114Y-48586773D01*
X184445162Y-48611293D01*
X184475821Y-48641685D01*
X184479138Y-48644973D01*
X184482900Y-48647731D01*
X184482903Y-48647734D01*
X184686631Y-48797114D01*
X184690398Y-48799876D01*
X184694529Y-48802050D01*
X184694530Y-48802050D01*
X184918099Y-48919675D01*
X184918105Y-48919677D01*
X184922234Y-48921850D01*
X184926642Y-48923389D01*
X184926648Y-48923392D01*
X185165136Y-49006676D01*
X185169552Y-49008218D01*
X185426920Y-49057081D01*
X185551175Y-49061963D01*
X185684015Y-49067182D01*
X185684020Y-49067182D01*
X185688683Y-49067365D01*
X185790540Y-49056210D01*
X185944438Y-49039356D01*
X185944444Y-49039355D01*
X185949091Y-49038846D01*
X186071281Y-49006676D01*
X186197900Y-48973340D01*
X186197902Y-48973339D01*
X186202423Y-48972149D01*
X186206720Y-48970303D01*
X186438820Y-48870585D01*
X186438822Y-48870584D01*
X186443114Y-48868740D01*
X186665876Y-48730891D01*
X186865816Y-48561629D01*
X186954464Y-48460546D01*
X187035460Y-48368188D01*
X187035464Y-48368183D01*
X187038542Y-48364673D01*
X187041072Y-48360740D01*
X187177730Y-48148281D01*
X187177733Y-48148276D01*
X187180258Y-48144350D01*
X187287852Y-47905501D01*
X187358960Y-47653371D01*
X187375802Y-47520985D01*
X187391622Y-47396631D01*
X187391622Y-47396627D01*
X187392020Y-47393501D01*
X187394442Y-47301000D01*
X187375028Y-47039755D01*
X187317213Y-46784250D01*
X187315520Y-46779896D01*
X187223960Y-46544450D01*
X187223959Y-46544448D01*
X187222267Y-46540097D01*
X187201015Y-46502914D01*
X187175723Y-46458661D01*
X187159286Y-46389593D01*
X187182800Y-46322603D01*
X187238798Y-46278960D01*
X187284561Y-46270139D01*
X192915148Y-46245334D01*
X196718264Y-46228580D01*
X196786471Y-46248282D01*
G37*
%TD.AperFunction*%
%TD*%
M02*
