M48
; DRILL file {KiCad (6.0.8)} date Tue Nov  1 22:15:51 2022
; FORMAT={-:-/ absolute / inch / decimal}
; #@! TF.CreationDate,2022-11-01T22:15:51+07:00
; #@! TF.GenerationSoftware,Kicad,Pcbnew,(6.0.8)
; #@! TF.FileFunction,Plated,1,2,PTH
FMAT,2
INCH
; #@! TA.AperFunction,Plated,PTH,ComponentDrill
T1C0.0300
; #@! TA.AperFunction,Plated,PTH,ViaDrill
T2C0.0315
; #@! TA.AperFunction,Plated,PTH,ComponentDrill
T3C0.0402
%
G90
G05
T1
X5.21Y-2.76
X5.21Y-2.86
X5.21Y-2.96
X5.21Y-3.06
X5.21Y-3.16
X5.8932Y-4.3091
X5.8932Y-4.7028
X5.99Y-4.7028
X5.9932Y-4.3091
X7.0806Y-3.1024
X7.1081Y-1.8622
X7.1806Y-3.1024
X7.2081Y-1.8622
X7.2806Y-3.1024
X7.3081Y-1.8622
X7.3806Y-3.1024
X7.4806Y-3.1024
X7.5806Y-3.1024
X7.6468Y-4.3091
X7.6468Y-4.7028
X7.6806Y-3.1024
X7.7468Y-4.3091
X7.7468Y-4.7028
T2
X5.21Y-2.52
X5.43Y-2.71
X5.9Y-3.26
X6.49Y-1.96
X6.5Y-2.56
X6.61Y-4.7
X7.45Y-4.31
T3
X5.7401Y-1.9547
X5.7401Y-2.0547
X5.7401Y-2.1547
X5.7401Y-2.2547
X5.7401Y-2.3547
X5.7401Y-2.4547
X5.7401Y-2.5547
X5.7401Y-2.6547
X5.7401Y-2.7547
X5.7401Y-2.8547
X5.7401Y-2.9547
X5.7401Y-3.0547
X5.7401Y-3.1547
X5.7401Y-3.2547
X5.7401Y-3.3547
X5.7401Y-3.4547
X5.7401Y-3.5547
X5.7401Y-3.6547
X5.7401Y-3.7547
X6.6614Y-1.9547
X6.6614Y-2.0547
X6.6614Y-2.1547
X6.6614Y-2.2547
X6.6614Y-2.3547
X6.6614Y-2.4547
X6.6614Y-2.5547
X6.6614Y-2.6547
X6.6614Y-2.7547
X6.6614Y-2.8547
X6.6614Y-2.9547
X6.6614Y-3.0547
X6.6614Y-3.1547
X6.6614Y-3.2547
X6.6614Y-3.3547
X6.6614Y-3.4547
X6.6614Y-3.5547
X6.6614Y-3.6547
X6.6614Y-3.7547
T1
G00X5.21Y-2.66
M15
G01X5.21Y-2.66
M16
G05
T0
M30
