%TF.GenerationSoftware,KiCad,Pcbnew,(6.0.8)*%
%TF.CreationDate,2022-11-01T22:15:49+07:00*%
%TF.ProjectId,esp32,65737033-322e-46b6-9963-61645f706362,rev?*%
%TF.SameCoordinates,Original*%
%TF.FileFunction,Legend,Top*%
%TF.FilePolarity,Positive*%
%FSLAX46Y46*%
G04 Gerber Fmt 4.6, Leading zero omitted, Abs format (unit mm)*
G04 Created by KiCad (PCBNEW (6.0.8)) date 2022-11-01 22:15:49*
%MOMM*%
%LPD*%
G01*
G04 APERTURE LIST*
%ADD10C,0.150000*%
%ADD11C,0.120000*%
%ADD12C,0.200000*%
%ADD13C,0.127000*%
G04 APERTURE END LIST*
D10*
%TO.C,U4*%
X189499380Y-64062904D02*
X190308904Y-64062904D01*
X190404142Y-64015285D01*
X190451761Y-63967666D01*
X190499380Y-63872428D01*
X190499380Y-63681952D01*
X190451761Y-63586714D01*
X190404142Y-63539095D01*
X190308904Y-63491476D01*
X189499380Y-63491476D01*
X189832714Y-62586714D02*
X190499380Y-62586714D01*
X189451761Y-62824809D02*
X190166047Y-63062904D01*
X190166047Y-62443857D01*
X193213666Y-40443857D02*
X193213666Y-39967666D01*
X193499380Y-40539095D02*
X192499380Y-40205761D01*
X193499380Y-39872428D01*
X193499380Y-39539095D02*
X192499380Y-39539095D01*
X193499380Y-38967666D01*
X192499380Y-38967666D01*
X192499380Y-38634333D02*
X192499380Y-38062904D01*
X193499380Y-38348619D02*
X192499380Y-38348619D01*
%TO.C,U3*%
X173989904Y-110497619D02*
X173989904Y-109688095D01*
X173942285Y-109592857D01*
X173894666Y-109545238D01*
X173799428Y-109497619D01*
X173608952Y-109497619D01*
X173513714Y-109545238D01*
X173466095Y-109592857D01*
X173418476Y-109688095D01*
X173418476Y-110497619D01*
X173037523Y-110497619D02*
X172418476Y-110497619D01*
X172751809Y-110116666D01*
X172608952Y-110116666D01*
X172513714Y-110069047D01*
X172466095Y-110021428D01*
X172418476Y-109926190D01*
X172418476Y-109688095D01*
X172466095Y-109592857D01*
X172513714Y-109545238D01*
X172608952Y-109497619D01*
X172894666Y-109497619D01*
X172989904Y-109545238D01*
X173037523Y-109592857D01*
X184803333Y-121527047D02*
X184803333Y-124027047D01*
X183850952Y-124027047D01*
X183612857Y-123908000D01*
X183493809Y-123788952D01*
X183374761Y-123550857D01*
X183374761Y-123193714D01*
X183493809Y-122955619D01*
X183612857Y-122836571D01*
X183850952Y-122717523D01*
X184803333Y-122717523D01*
X181946190Y-121527047D02*
X182184285Y-121646095D01*
X182303333Y-121765142D01*
X182422380Y-122003238D01*
X182422380Y-122717523D01*
X182303333Y-122955619D01*
X182184285Y-123074666D01*
X181946190Y-123193714D01*
X181589047Y-123193714D01*
X181350952Y-123074666D01*
X181231904Y-122955619D01*
X181112857Y-122717523D01*
X181112857Y-122003238D01*
X181231904Y-121765142D01*
X181350952Y-121646095D01*
X181589047Y-121527047D01*
X181946190Y-121527047D01*
X180279523Y-123193714D02*
X179803333Y-121527047D01*
X179327142Y-122717523D01*
X178850952Y-121527047D01*
X178374761Y-123193714D01*
X176470000Y-121646095D02*
X176708095Y-121527047D01*
X177184285Y-121527047D01*
X177422380Y-121646095D01*
X177541428Y-121884190D01*
X177541428Y-122836571D01*
X177422380Y-123074666D01*
X177184285Y-123193714D01*
X176708095Y-123193714D01*
X176470000Y-123074666D01*
X176350952Y-122836571D01*
X176350952Y-122598476D01*
X177541428Y-122360380D01*
X175279523Y-121527047D02*
X175279523Y-123193714D01*
X175279523Y-122717523D02*
X175160476Y-122955619D01*
X175041428Y-123074666D01*
X174803333Y-123193714D01*
X174565238Y-123193714D01*
X171946190Y-121646095D02*
X171589047Y-121527047D01*
X170993809Y-121527047D01*
X170755714Y-121646095D01*
X170636666Y-121765142D01*
X170517619Y-122003238D01*
X170517619Y-122241333D01*
X170636666Y-122479428D01*
X170755714Y-122598476D01*
X170993809Y-122717523D01*
X171470000Y-122836571D01*
X171708095Y-122955619D01*
X171827142Y-123074666D01*
X171946190Y-123312761D01*
X171946190Y-123550857D01*
X171827142Y-123788952D01*
X171708095Y-123908000D01*
X171470000Y-124027047D01*
X170874761Y-124027047D01*
X170517619Y-123908000D01*
X168374761Y-123193714D02*
X168374761Y-121527047D01*
X169446190Y-123193714D02*
X169446190Y-121884190D01*
X169327142Y-121646095D01*
X169089047Y-121527047D01*
X168731904Y-121527047D01*
X168493809Y-121646095D01*
X168374761Y-121765142D01*
X167184285Y-123193714D02*
X167184285Y-120693714D01*
X167184285Y-123074666D02*
X166946190Y-123193714D01*
X166470000Y-123193714D01*
X166231904Y-123074666D01*
X166112857Y-122955619D01*
X165993809Y-122717523D01*
X165993809Y-122003238D01*
X166112857Y-121765142D01*
X166231904Y-121646095D01*
X166470000Y-121527047D01*
X166946190Y-121527047D01*
X167184285Y-121646095D01*
X164922380Y-123193714D02*
X164922380Y-120693714D01*
X164922380Y-123074666D02*
X164684285Y-123193714D01*
X164208095Y-123193714D01*
X163970000Y-123074666D01*
X163850952Y-122955619D01*
X163731904Y-122717523D01*
X163731904Y-122003238D01*
X163850952Y-121765142D01*
X163970000Y-121646095D01*
X164208095Y-121527047D01*
X164684285Y-121527047D01*
X164922380Y-121646095D01*
X162303333Y-121527047D02*
X162541428Y-121646095D01*
X162660476Y-121884190D01*
X162660476Y-124027047D01*
X161589047Y-123193714D02*
X160993809Y-121527047D01*
X160398571Y-123193714D02*
X160993809Y-121527047D01*
X161231904Y-120931809D01*
X161350952Y-120812761D01*
X161589047Y-120693714D01*
X195452952Y-115371238D02*
X196405333Y-115371238D01*
X196500571Y-114418857D01*
X196405333Y-114514095D01*
X196214857Y-114609333D01*
X195738666Y-114609333D01*
X195548190Y-114514095D01*
X195452952Y-114418857D01*
X195357714Y-114228380D01*
X195357714Y-113752190D01*
X195452952Y-113561714D01*
X195548190Y-113466476D01*
X195738666Y-113371238D01*
X196214857Y-113371238D01*
X196405333Y-113466476D01*
X196500571Y-113561714D01*
X194786285Y-115371238D02*
X194119619Y-113371238D01*
X193452952Y-115371238D01*
X154844380Y-115625238D02*
X153606285Y-115625238D01*
X154272952Y-114863333D01*
X153987238Y-114863333D01*
X153796761Y-114768095D01*
X153701523Y-114672857D01*
X153606285Y-114482380D01*
X153606285Y-114006190D01*
X153701523Y-113815714D01*
X153796761Y-113720476D01*
X153987238Y-113625238D01*
X154558666Y-113625238D01*
X154749142Y-113720476D01*
X154844380Y-113815714D01*
X152749142Y-113815714D02*
X152653904Y-113720476D01*
X152749142Y-113625238D01*
X152844380Y-113720476D01*
X152749142Y-113815714D01*
X152749142Y-113625238D01*
X151987238Y-115625238D02*
X150749142Y-115625238D01*
X151415809Y-114863333D01*
X151130095Y-114863333D01*
X150939619Y-114768095D01*
X150844380Y-114672857D01*
X150749142Y-114482380D01*
X150749142Y-114006190D01*
X150844380Y-113815714D01*
X150939619Y-113720476D01*
X151130095Y-113625238D01*
X151701523Y-113625238D01*
X151892000Y-113720476D01*
X151987238Y-113815714D01*
X150177714Y-115625238D02*
X149511047Y-113625238D01*
X148844380Y-115625238D01*
X174632857Y-134651619D02*
X175109047Y-134651619D01*
X175109047Y-135651619D01*
X174299523Y-135175428D02*
X173966190Y-135175428D01*
X173823333Y-134651619D02*
X174299523Y-134651619D01*
X174299523Y-135651619D01*
X173823333Y-135651619D01*
X173394761Y-134651619D02*
X173394761Y-135651619D01*
X173156666Y-135651619D01*
X173013809Y-135604000D01*
X172918571Y-135508761D01*
X172870952Y-135413523D01*
X172823333Y-135223047D01*
X172823333Y-135080190D01*
X172870952Y-134889714D01*
X172918571Y-134794476D01*
X173013809Y-134699238D01*
X173156666Y-134651619D01*
X173394761Y-134651619D01*
%TO.C,U2*%
X133381619Y-73152095D02*
X132572095Y-73152095D01*
X132476857Y-73199714D01*
X132429238Y-73247333D01*
X132381619Y-73342571D01*
X132381619Y-73533047D01*
X132429238Y-73628285D01*
X132476857Y-73675904D01*
X132572095Y-73723523D01*
X133381619Y-73723523D01*
X133286380Y-74152095D02*
X133334000Y-74199714D01*
X133381619Y-74294952D01*
X133381619Y-74533047D01*
X133334000Y-74628285D01*
X133286380Y-74675904D01*
X133191142Y-74723523D01*
X133095904Y-74723523D01*
X132953047Y-74675904D01*
X132381619Y-74104476D01*
X132381619Y-74723523D01*
X134167619Y-77049428D02*
X134834285Y-77049428D01*
X135167619Y-77049428D02*
X135120000Y-77001809D01*
X135072380Y-77049428D01*
X135120000Y-77097047D01*
X135167619Y-77049428D01*
X135072380Y-77049428D01*
X134834285Y-77525619D02*
X134167619Y-77525619D01*
X134739047Y-77525619D02*
X134786666Y-77573238D01*
X134834285Y-77668476D01*
X134834285Y-77811333D01*
X134786666Y-77906571D01*
X134691428Y-77954190D01*
X134167619Y-77954190D01*
X135072380Y-78382761D02*
X135120000Y-78430380D01*
X135167619Y-78525619D01*
X135167619Y-78763714D01*
X135120000Y-78858952D01*
X135072380Y-78906571D01*
X134977142Y-78954190D01*
X134881904Y-78954190D01*
X134739047Y-78906571D01*
X134167619Y-78335142D01*
X134167619Y-78954190D01*
X134834285Y-66873523D02*
X134024761Y-66873523D01*
X133929523Y-66825904D01*
X133881904Y-66778285D01*
X133834285Y-66683047D01*
X133834285Y-66540190D01*
X133881904Y-66444952D01*
X134215238Y-66873523D02*
X134167619Y-66778285D01*
X134167619Y-66587809D01*
X134215238Y-66492571D01*
X134262857Y-66444952D01*
X134358095Y-66397333D01*
X134643809Y-66397333D01*
X134739047Y-66444952D01*
X134786666Y-66492571D01*
X134834285Y-66587809D01*
X134834285Y-66778285D01*
X134786666Y-66873523D01*
X134834285Y-67349714D02*
X134167619Y-67349714D01*
X134739047Y-67349714D02*
X134786666Y-67397333D01*
X134834285Y-67492571D01*
X134834285Y-67635428D01*
X134786666Y-67730666D01*
X134691428Y-67778285D01*
X134167619Y-67778285D01*
X134167619Y-68683047D02*
X135167619Y-68683047D01*
X134215238Y-68683047D02*
X134167619Y-68587809D01*
X134167619Y-68397333D01*
X134215238Y-68302095D01*
X134262857Y-68254476D01*
X134358095Y-68206857D01*
X134643809Y-68206857D01*
X134739047Y-68254476D01*
X134786666Y-68302095D01*
X134834285Y-68397333D01*
X134834285Y-68587809D01*
X134786666Y-68683047D01*
X134167619Y-79589428D02*
X134834285Y-79589428D01*
X135167619Y-79589428D02*
X135120000Y-79541809D01*
X135072380Y-79589428D01*
X135120000Y-79637047D01*
X135167619Y-79589428D01*
X135072380Y-79589428D01*
X134834285Y-80065619D02*
X134167619Y-80065619D01*
X134739047Y-80065619D02*
X134786666Y-80113238D01*
X134834285Y-80208476D01*
X134834285Y-80351333D01*
X134786666Y-80446571D01*
X134691428Y-80494190D01*
X134167619Y-80494190D01*
X134167619Y-81494190D02*
X134167619Y-80922761D01*
X134167619Y-81208476D02*
X135167619Y-81208476D01*
X135024761Y-81113238D01*
X134929523Y-81018000D01*
X134881904Y-80922761D01*
X134167619Y-74509428D02*
X134834285Y-74509428D01*
X135167619Y-74509428D02*
X135120000Y-74461809D01*
X135072380Y-74509428D01*
X135120000Y-74557047D01*
X135167619Y-74509428D01*
X135072380Y-74509428D01*
X134834285Y-74985619D02*
X134167619Y-74985619D01*
X134739047Y-74985619D02*
X134786666Y-75033238D01*
X134834285Y-75128476D01*
X134834285Y-75271333D01*
X134786666Y-75366571D01*
X134691428Y-75414190D01*
X134167619Y-75414190D01*
X135167619Y-75795142D02*
X135167619Y-76414190D01*
X134786666Y-76080857D01*
X134786666Y-76223714D01*
X134739047Y-76318952D01*
X134691428Y-76366571D01*
X134596190Y-76414190D01*
X134358095Y-76414190D01*
X134262857Y-76366571D01*
X134215238Y-76318952D01*
X134167619Y-76223714D01*
X134167619Y-75938000D01*
X134215238Y-75842761D01*
X134262857Y-75795142D01*
X135167619Y-70167523D02*
X135167619Y-69691333D01*
X134691428Y-69643714D01*
X134739047Y-69691333D01*
X134786666Y-69786571D01*
X134786666Y-70024666D01*
X134739047Y-70119904D01*
X134691428Y-70167523D01*
X134596190Y-70215142D01*
X134358095Y-70215142D01*
X134262857Y-70167523D01*
X134215238Y-70119904D01*
X134167619Y-70024666D01*
X134167619Y-69786571D01*
X134215238Y-69691333D01*
X134262857Y-69643714D01*
X135167619Y-70500857D02*
X134167619Y-70834190D01*
X135167619Y-71167523D01*
X134167619Y-71969428D02*
X134834285Y-71969428D01*
X135167619Y-71969428D02*
X135120000Y-71921809D01*
X135072380Y-71969428D01*
X135120000Y-72017047D01*
X135167619Y-71969428D01*
X135072380Y-71969428D01*
X134834285Y-72445619D02*
X134167619Y-72445619D01*
X134739047Y-72445619D02*
X134786666Y-72493238D01*
X134834285Y-72588476D01*
X134834285Y-72731333D01*
X134786666Y-72826571D01*
X134691428Y-72874190D01*
X134167619Y-72874190D01*
X134834285Y-73778952D02*
X134167619Y-73778952D01*
X135215238Y-73540857D02*
X134500952Y-73302761D01*
X134500952Y-73921809D01*
X137215619Y-68271142D02*
X137882285Y-68271142D01*
X137691809Y-68271142D02*
X137787047Y-68318761D01*
X137834666Y-68366380D01*
X137882285Y-68461619D01*
X137882285Y-68556857D01*
X137263238Y-69271142D02*
X137215619Y-69175904D01*
X137215619Y-68985428D01*
X137263238Y-68890190D01*
X137358476Y-68842571D01*
X137739428Y-68842571D01*
X137834666Y-68890190D01*
X137882285Y-68985428D01*
X137882285Y-69175904D01*
X137834666Y-69271142D01*
X137739428Y-69318761D01*
X137644190Y-69318761D01*
X137548952Y-68842571D01*
X137215619Y-69890190D02*
X137263238Y-69794952D01*
X137358476Y-69747333D01*
X138215619Y-69747333D01*
X137215619Y-70699714D02*
X137739428Y-70699714D01*
X137834666Y-70652095D01*
X137882285Y-70556857D01*
X137882285Y-70366380D01*
X137834666Y-70271142D01*
X137263238Y-70699714D02*
X137215619Y-70604476D01*
X137215619Y-70366380D01*
X137263238Y-70271142D01*
X137358476Y-70223523D01*
X137453714Y-70223523D01*
X137548952Y-70271142D01*
X137596571Y-70366380D01*
X137596571Y-70604476D01*
X137644190Y-70699714D01*
X137882285Y-71080666D02*
X137215619Y-71318761D01*
X137882285Y-71556857D02*
X137215619Y-71318761D01*
X136977523Y-71223523D01*
X136929904Y-71175904D01*
X136882285Y-71080666D01*
X137263238Y-73128285D02*
X137215619Y-73033047D01*
X137215619Y-72842571D01*
X137263238Y-72747333D01*
X137310857Y-72699714D01*
X137406095Y-72652095D01*
X137691809Y-72652095D01*
X137787047Y-72699714D01*
X137834666Y-72747333D01*
X137882285Y-72842571D01*
X137882285Y-73033047D01*
X137834666Y-73128285D01*
X137215619Y-73699714D02*
X137263238Y-73604476D01*
X137310857Y-73556857D01*
X137406095Y-73509238D01*
X137691809Y-73509238D01*
X137787047Y-73556857D01*
X137834666Y-73604476D01*
X137882285Y-73699714D01*
X137882285Y-73842571D01*
X137834666Y-73937809D01*
X137787047Y-73985428D01*
X137691809Y-74033047D01*
X137406095Y-74033047D01*
X137310857Y-73985428D01*
X137263238Y-73937809D01*
X137215619Y-73842571D01*
X137215619Y-73699714D01*
X137882285Y-74461619D02*
X137215619Y-74461619D01*
X137787047Y-74461619D02*
X137834666Y-74509238D01*
X137882285Y-74604476D01*
X137882285Y-74747333D01*
X137834666Y-74842571D01*
X137739428Y-74890190D01*
X137215619Y-74890190D01*
X137882285Y-75366380D02*
X137215619Y-75366380D01*
X137787047Y-75366380D02*
X137834666Y-75414000D01*
X137882285Y-75509238D01*
X137882285Y-75652095D01*
X137834666Y-75747333D01*
X137739428Y-75794952D01*
X137215619Y-75794952D01*
X137263238Y-76652095D02*
X137215619Y-76556857D01*
X137215619Y-76366380D01*
X137263238Y-76271142D01*
X137358476Y-76223523D01*
X137739428Y-76223523D01*
X137834666Y-76271142D01*
X137882285Y-76366380D01*
X137882285Y-76556857D01*
X137834666Y-76652095D01*
X137739428Y-76699714D01*
X137644190Y-76699714D01*
X137548952Y-76223523D01*
X137263238Y-77556857D02*
X137215619Y-77461619D01*
X137215619Y-77271142D01*
X137263238Y-77175904D01*
X137310857Y-77128285D01*
X137406095Y-77080666D01*
X137691809Y-77080666D01*
X137787047Y-77128285D01*
X137834666Y-77175904D01*
X137882285Y-77271142D01*
X137882285Y-77461619D01*
X137834666Y-77556857D01*
X137882285Y-77842571D02*
X137882285Y-78223523D01*
X138215619Y-77985428D02*
X137358476Y-77985428D01*
X137263238Y-78033047D01*
X137215619Y-78128285D01*
X137215619Y-78223523D01*
X137263238Y-78937809D02*
X137215619Y-78842571D01*
X137215619Y-78652095D01*
X137263238Y-78556857D01*
X137358476Y-78509238D01*
X137739428Y-78509238D01*
X137834666Y-78556857D01*
X137882285Y-78652095D01*
X137882285Y-78842571D01*
X137834666Y-78937809D01*
X137739428Y-78985428D01*
X137644190Y-78985428D01*
X137548952Y-78509238D01*
X137215619Y-79414000D02*
X137882285Y-79414000D01*
X137691809Y-79414000D02*
X137787047Y-79461619D01*
X137834666Y-79509238D01*
X137882285Y-79604476D01*
X137882285Y-79699714D01*
%TO.C,U1*%
X145941595Y-40202380D02*
X145941595Y-41011904D01*
X145989214Y-41107142D01*
X146036833Y-41154761D01*
X146132071Y-41202380D01*
X146322547Y-41202380D01*
X146417785Y-41154761D01*
X146465404Y-41107142D01*
X146513023Y-41011904D01*
X146513023Y-40202380D01*
X147513023Y-41202380D02*
X146941595Y-41202380D01*
X147227309Y-41202380D02*
X147227309Y-40202380D01*
X147132071Y-40345238D01*
X147036833Y-40440476D01*
X146941595Y-40488095D01*
D11*
%TO.C,U4*%
X177047000Y-44301000D02*
X177047000Y-80301000D01*
X198047000Y-44301000D02*
X177047000Y-44301000D01*
X198047000Y-80301000D02*
X198047000Y-44301000D01*
X177047000Y-80301000D02*
X198047000Y-80301000D01*
X190047000Y-48301000D02*
X190047000Y-33301000D01*
X190047000Y-33301000D02*
X196047000Y-33301000D01*
X196047000Y-33301000D02*
X196047000Y-48301000D01*
X196047000Y-48301000D02*
X190047000Y-48301000D01*
%TO.C,U3*%
X185928000Y-143486000D02*
X185928000Y-132564000D01*
X193548000Y-142216000D02*
X193548000Y-143486000D01*
X193548000Y-143486000D02*
X185928000Y-143486000D01*
X193548000Y-142216000D02*
X193548000Y-132310000D01*
X157734000Y-138914000D02*
X155194000Y-138914000D01*
X155194000Y-138914000D02*
X155194000Y-137136000D01*
X155194000Y-137136000D02*
X157734000Y-137136000D01*
X157734000Y-137136000D02*
X157734000Y-138914000D01*
X163068000Y-138914000D02*
X160528000Y-138914000D01*
X160528000Y-138914000D02*
X160528000Y-137136000D01*
X160528000Y-137136000D02*
X163068000Y-137136000D01*
X163068000Y-137136000D02*
X163068000Y-138914000D01*
X182626000Y-138914000D02*
X179578000Y-138914000D01*
X179578000Y-138914000D02*
X179578000Y-136882000D01*
X179578000Y-136882000D02*
X182626000Y-136882000D01*
X182626000Y-136882000D02*
X182626000Y-138914000D01*
X184912000Y-141200000D02*
X177038000Y-141200000D01*
X177038000Y-141200000D02*
X177038000Y-134596000D01*
X177038000Y-134596000D02*
X184912000Y-134596000D01*
X184912000Y-134596000D02*
X184912000Y-141200000D01*
X165608000Y-143232000D02*
X152654000Y-143232000D01*
X152654000Y-143232000D02*
X152654000Y-133580000D01*
X152654000Y-133580000D02*
X165608000Y-133580000D01*
X165608000Y-133580000D02*
X165608000Y-143232000D01*
X198228000Y-142450000D02*
X148228000Y-142450000D01*
X148228000Y-142450000D02*
X148228000Y-106450000D01*
X148228000Y-106450000D02*
X198228000Y-106450000D01*
X198228000Y-106450000D02*
X198228000Y-142450000D01*
X193548000Y-132310000D02*
G75*
G03*
X185928000Y-132564000I-3810001J-126975D01*
G01*
X176022000Y-139168000D02*
G75*
G03*
X176022000Y-139168000I-1270000J0D01*
G01*
%TO.C,U2*%
X136398000Y-66294000D02*
X130810000Y-66294000D01*
X130810000Y-66294000D02*
X130810000Y-81534000D01*
X130810000Y-81534000D02*
X136398000Y-81534000D01*
X136398000Y-81534000D02*
X136398000Y-66294000D01*
D12*
%TO.C,U1*%
X143028500Y-49530000D02*
G75*
G03*
X143028500Y-49530000I-100000J0D01*
G01*
D13*
X143548500Y-48400000D02*
X143548500Y-96600000D01*
X171448500Y-96600000D02*
X171448500Y-48400000D01*
X171448500Y-48400000D02*
X166498500Y-48400000D01*
X148498500Y-48400000D02*
X143548500Y-48400000D01*
X148498500Y-48400000D02*
X148498500Y-42200000D01*
X148498500Y-42200000D02*
X166498500Y-42200000D01*
X166498500Y-42200000D02*
X166498500Y-48400000D01*
X143548500Y-96600000D02*
X153428500Y-96600000D01*
X153428500Y-96600000D02*
X153428500Y-97500000D01*
X153428500Y-97500000D02*
X161558500Y-97500000D01*
X161558500Y-97500000D02*
X161558500Y-96600000D01*
X161558500Y-96600000D02*
X171448500Y-96600000D01*
%TD*%
M02*
