%TF.GenerationSoftware,KiCad,Pcbnew,(6.0.8)*%
%TF.CreationDate,2022-11-01T22:15:49+07:00*%
%TF.ProjectId,esp32,65737033-322e-46b6-9963-61645f706362,rev?*%
%TF.SameCoordinates,Original*%
%TF.FileFunction,Soldermask,Bot*%
%TF.FilePolarity,Negative*%
%FSLAX46Y46*%
G04 Gerber Fmt 4.6, Leading zero omitted, Abs format (unit mm)*
G04 Created by KiCad (PCBNEW (6.0.8)) date 2022-11-01 22:15:49*
%MOMM*%
%LPD*%
G01*
G04 APERTURE LIST*
%ADD10C,1.524000*%
%ADD11C,1.600000*%
%ADD12R,1.524000X1.524000*%
%ADD13R,1.530000X1.530000*%
%ADD14C,1.530000*%
G04 APERTURE END LIST*
D10*
%TO.C,U4*%
X179847000Y-78801000D03*
X182387000Y-78801000D03*
X184927000Y-78801000D03*
X187467000Y-78801000D03*
X190007000Y-78801000D03*
X192547000Y-78801000D03*
X195087000Y-78801000D03*
X185627000Y-47301000D03*
X183087000Y-47301000D03*
X180547000Y-47301000D03*
%TD*%
D11*
%TO.C,U3*%
X152146000Y-119450000D03*
X152228000Y-109450000D03*
X194228000Y-109450000D03*
X149688000Y-109450000D03*
X149688000Y-119450000D03*
X194228000Y-119450000D03*
X196768000Y-109450000D03*
X196768000Y-119450000D03*
%TD*%
D12*
%TO.C,U2*%
X132334000Y-67564000D03*
D10*
X132334000Y-70104000D03*
X132334000Y-72644000D03*
X132334000Y-75184000D03*
X132334000Y-77724000D03*
X132334000Y-80264000D03*
%TD*%
D13*
%TO.C,U1*%
X145798500Y-49650000D03*
D14*
X145798500Y-52190000D03*
X145798500Y-54730000D03*
X145798500Y-57270000D03*
X145798500Y-59810000D03*
X145798500Y-62350000D03*
X145798500Y-64890000D03*
X145798500Y-67430000D03*
X145798500Y-69970000D03*
X145798500Y-72510000D03*
X145798500Y-75050000D03*
X145798500Y-77590000D03*
X145798500Y-80130000D03*
X145798500Y-82670000D03*
X145798500Y-85210000D03*
X145798500Y-87750000D03*
X145798500Y-90290000D03*
X145798500Y-92830000D03*
X145798500Y-95370000D03*
X169198500Y-95370000D03*
X169198500Y-92830000D03*
X169198500Y-90290000D03*
X169198500Y-87750000D03*
X169198500Y-85210000D03*
X169198500Y-82670000D03*
X169198500Y-80130000D03*
X169198500Y-77590000D03*
X169198500Y-75050000D03*
X169198500Y-72510000D03*
X169198500Y-69970000D03*
X169198500Y-67430000D03*
X169198500Y-64890000D03*
X169198500Y-62350000D03*
X169198500Y-59810000D03*
X169198500Y-57270000D03*
X169198500Y-54730000D03*
X169198500Y-52190000D03*
X169198500Y-49650000D03*
%TD*%
M02*
