%TF.GenerationSoftware,KiCad,Pcbnew,(6.0.8)*%
%TF.CreationDate,2022-11-01T22:15:49+07:00*%
%TF.ProjectId,esp32,65737033-322e-46b6-9963-61645f706362,rev?*%
%TF.SameCoordinates,Original*%
%TF.FileFunction,Copper,L1,Top*%
%TF.FilePolarity,Positive*%
%FSLAX46Y46*%
G04 Gerber Fmt 4.6, Leading zero omitted, Abs format (unit mm)*
G04 Created by KiCad (PCBNEW (6.0.8)) date 2022-11-01 22:15:49*
%MOMM*%
%LPD*%
G01*
G04 APERTURE LIST*
%TA.AperFunction,ComponentPad*%
%ADD10C,1.524000*%
%TD*%
%TA.AperFunction,ComponentPad*%
%ADD11C,1.600000*%
%TD*%
%TA.AperFunction,ComponentPad*%
%ADD12R,1.524000X1.524000*%
%TD*%
%TA.AperFunction,ComponentPad*%
%ADD13R,1.530000X1.530000*%
%TD*%
%TA.AperFunction,ComponentPad*%
%ADD14C,1.530000*%
%TD*%
%TA.AperFunction,ViaPad*%
%ADD15C,1.600000*%
%TD*%
%TA.AperFunction,Conductor*%
%ADD16C,1.000000*%
%TD*%
G04 APERTURE END LIST*
D10*
%TO.P,U4,1,M0*%
%TO.N,Net-(U1-Pad25)*%
X179847000Y-78801000D03*
%TO.P,U4,2,M1*%
%TO.N,Net-(U1-Pad26)*%
X182387000Y-78801000D03*
%TO.P,U4,3,RXD*%
%TO.N,Net-(U1-Pad28)*%
X184927000Y-78801000D03*
%TO.P,U4,4,TXD*%
%TO.N,Net-(U1-Pad27)*%
X187467000Y-78801000D03*
%TO.P,U4,5,AUX*%
%TO.N,unconnected-(U4-Pad5)*%
X190007000Y-78801000D03*
%TO.P,U4,6,VCC*%
%TO.N,+3.3V*%
X192547000Y-78801000D03*
%TO.P,U4,7,GND*%
%TO.N,GND*%
X195087000Y-78801000D03*
%TO.P,U4,8,Fixing_Hole*%
%TO.N,unconnected-(U4-Pad8)*%
X185627000Y-47301000D03*
%TO.P,U4,9,Fixing_Hole*%
%TO.N,unconnected-(U4-Pad9)*%
X183087000Y-47301000D03*
%TO.P,U4,10,Fixing_Hole*%
%TO.N,unconnected-(U4-Pad10)*%
X180547000Y-47301000D03*
%TD*%
D11*
%TO.P,U3,1,3.3v*%
%TO.N,+3.3V*%
X152146000Y-119450000D03*
X152228000Y-109450000D03*
%TO.P,U3,2,gnd*%
%TO.N,GND*%
X194228000Y-109450000D03*
X149688000Y-109450000D03*
X149688000Y-119450000D03*
X194228000Y-119450000D03*
%TO.P,U3,3,5v*%
%TO.N,+5V*%
X196768000Y-109450000D03*
X196768000Y-119450000D03*
%TD*%
D12*
%TO.P,U2,6,gnd*%
%TO.N,GND*%
X132334000Y-67564000D03*
D10*
%TO.P,U2,5,Vcc_5V*%
%TO.N,+5V*%
X132334000Y-70104000D03*
%TO.P,U2,4,in4*%
%TO.N,Net-(U1-Pad10)*%
X132334000Y-72644000D03*
%TO.P,U2,3,in3*%
%TO.N,Net-(U1-Pad11)*%
X132334000Y-75184000D03*
%TO.P,U2,2,in2*%
%TO.N,Net-(U1-Pad12)*%
X132334000Y-77724000D03*
%TO.P,U2,1,in1*%
%TO.N,Net-(U1-Pad13)*%
X132334000Y-80264000D03*
%TD*%
D13*
%TO.P,U1,1,3V3*%
%TO.N,+3.3V*%
X145798500Y-49650000D03*
D14*
%TO.P,U1,2,EN*%
%TO.N,unconnected-(U1-Pad2)*%
X145798500Y-52190000D03*
%TO.P,U1,3,SENSOR_VP*%
%TO.N,unconnected-(U1-Pad3)*%
X145798500Y-54730000D03*
%TO.P,U1,4,SENSOR_VN*%
%TO.N,unconnected-(U1-Pad4)*%
X145798500Y-57270000D03*
%TO.P,U1,5,IO34*%
%TO.N,unconnected-(U1-Pad5)*%
X145798500Y-59810000D03*
%TO.P,U1,6,IO35*%
%TO.N,unconnected-(U1-Pad6)*%
X145798500Y-62350000D03*
%TO.P,U1,7,IO32*%
%TO.N,unconnected-(U1-Pad7)*%
X145798500Y-64890000D03*
%TO.P,U1,8,IO33*%
%TO.N,unconnected-(U1-Pad8)*%
X145798500Y-67430000D03*
%TO.P,U1,9,IO25*%
%TO.N,unconnected-(U1-Pad9)*%
X145798500Y-69970000D03*
%TO.P,U1,10,IO26*%
%TO.N,Net-(U1-Pad10)*%
X145798500Y-72510000D03*
%TO.P,U1,11,IO27*%
%TO.N,Net-(U1-Pad11)*%
X145798500Y-75050000D03*
%TO.P,U1,12,IO14*%
%TO.N,Net-(U1-Pad12)*%
X145798500Y-77590000D03*
%TO.P,U1,13,IO12*%
%TO.N,Net-(U1-Pad13)*%
X145798500Y-80130000D03*
%TO.P,U1,14,GND1*%
%TO.N,GND*%
X145798500Y-82670000D03*
%TO.P,U1,15,IO13*%
%TO.N,unconnected-(U1-Pad15)*%
X145798500Y-85210000D03*
%TO.P,U1,16,SD2*%
%TO.N,unconnected-(U1-Pad16)*%
X145798500Y-87750000D03*
%TO.P,U1,17,SD3*%
%TO.N,unconnected-(U1-Pad17)*%
X145798500Y-90290000D03*
%TO.P,U1,18,CMD*%
%TO.N,unconnected-(U1-Pad18)*%
X145798500Y-92830000D03*
%TO.P,U1,19,EXT_5V*%
%TO.N,unconnected-(U1-Pad19)*%
X145798500Y-95370000D03*
%TO.P,U1,20,CLK*%
%TO.N,unconnected-(U1-Pad20)*%
X169198500Y-95370000D03*
%TO.P,U1,21,SD0*%
%TO.N,unconnected-(U1-Pad21)*%
X169198500Y-92830000D03*
%TO.P,U1,22,SD1*%
%TO.N,unconnected-(U1-Pad22)*%
X169198500Y-90290000D03*
%TO.P,U1,23,IO15*%
%TO.N,unconnected-(U1-Pad23)*%
X169198500Y-87750000D03*
%TO.P,U1,24,IO2*%
%TO.N,unconnected-(U1-Pad24)*%
X169198500Y-85210000D03*
%TO.P,U1,25,IO0*%
%TO.N,Net-(U1-Pad25)*%
X169198500Y-82670000D03*
%TO.P,U1,26,IO4*%
%TO.N,Net-(U1-Pad26)*%
X169198500Y-80130000D03*
%TO.P,U1,27,IO16*%
%TO.N,Net-(U1-Pad27)*%
X169198500Y-77590000D03*
%TO.P,U1,28,IO17*%
%TO.N,Net-(U1-Pad28)*%
X169198500Y-75050000D03*
%TO.P,U1,29,IO5*%
%TO.N,unconnected-(U1-Pad29)*%
X169198500Y-72510000D03*
%TO.P,U1,30,IO18*%
%TO.N,unconnected-(U1-Pad30)*%
X169198500Y-69970000D03*
%TO.P,U1,31,IO19*%
%TO.N,unconnected-(U1-Pad31)*%
X169198500Y-67430000D03*
%TO.P,U1,32,GND2*%
%TO.N,GND*%
X169198500Y-64890000D03*
%TO.P,U1,33,IO21*%
%TO.N,unconnected-(U1-Pad33)*%
X169198500Y-62350000D03*
%TO.P,U1,34,RXD0*%
%TO.N,unconnected-(U1-Pad34)*%
X169198500Y-59810000D03*
%TO.P,U1,35,TXD0*%
%TO.N,unconnected-(U1-Pad35)*%
X169198500Y-57270000D03*
%TO.P,U1,36,IO22*%
%TO.N,unconnected-(U1-Pad36)*%
X169198500Y-54730000D03*
%TO.P,U1,37,IO23*%
%TO.N,unconnected-(U1-Pad37)*%
X169198500Y-52190000D03*
%TO.P,U1,38,GND3*%
%TO.N,GND*%
X169198500Y-49650000D03*
%TD*%
D15*
%TO.N,GND*%
X189230000Y-109474000D03*
%TO.N,+3.3V*%
X167894000Y-119380000D03*
%TO.N,GND*%
X164846000Y-49784000D03*
X149860000Y-82804000D03*
X165100000Y-65024000D03*
%TO.N,+5V*%
X137922000Y-68834000D03*
%TO.N,GND*%
X132334000Y-64008000D03*
%TD*%
D16*
%TO.N,GND*%
X191636000Y-64890000D02*
X195057000Y-68311000D01*
X169198500Y-64890000D02*
X191636000Y-64890000D01*
X195087000Y-68311000D02*
X195087000Y-78801000D01*
X195057000Y-68311000D02*
X195087000Y-68311000D01*
X176396000Y-49650000D02*
X195057000Y-68311000D01*
X169198500Y-49650000D02*
X176396000Y-49650000D01*
X194204000Y-109474000D02*
X194228000Y-109450000D01*
X189230000Y-109474000D02*
X194204000Y-109474000D01*
%TO.N,+3.3V*%
X167824000Y-119450000D02*
X167894000Y-119380000D01*
X152146000Y-119450000D02*
X167824000Y-119450000D01*
%TO.N,GND*%
X190754000Y-126492000D02*
X194228000Y-123018000D01*
X152400000Y-126492000D02*
X190754000Y-126492000D01*
X194228000Y-123018000D02*
X194228000Y-119450000D01*
X149688000Y-123780000D02*
X152400000Y-126492000D01*
X149688000Y-119450000D02*
X149688000Y-123780000D01*
X161544000Y-46482000D02*
X164846000Y-49784000D01*
X137160000Y-46482000D02*
X161544000Y-46482000D01*
X132334000Y-64008000D02*
X132334000Y-51308000D01*
X132334000Y-51308000D02*
X137160000Y-46482000D01*
X164846000Y-64770000D02*
X165100000Y-65024000D01*
X164846000Y-49784000D02*
X164846000Y-64770000D01*
X149860000Y-80264000D02*
X165100000Y-65024000D01*
X149860000Y-82804000D02*
X149860000Y-80264000D01*
%TO.N,+5V*%
X147320000Y-103886000D02*
X193294000Y-103886000D01*
X193294000Y-103886000D02*
X196768000Y-107360000D01*
X196768000Y-107360000D02*
X196768000Y-109450000D01*
X137922000Y-68834000D02*
X137922000Y-94488000D01*
X137922000Y-94488000D02*
X147320000Y-103886000D01*
%TO.N,GND*%
X165234000Y-64890000D02*
X165100000Y-65024000D01*
%TD*%
%TA.AperFunction,Conductor*%
%TO.N,+5V*%
G36*
X139679836Y-67840545D02*
G01*
X139732345Y-67888328D01*
X139738704Y-67900146D01*
X140296940Y-69084975D01*
X144072213Y-77097800D01*
X144083153Y-77167948D01*
X144080354Y-77182518D01*
X144056098Y-77278027D01*
X144054946Y-77282564D01*
X144028656Y-77543655D01*
X144028880Y-77548321D01*
X144028880Y-77548327D01*
X144030882Y-77590000D01*
X144041246Y-77805764D01*
X144092440Y-78063132D01*
X144181113Y-78310107D01*
X144183330Y-78314233D01*
X144279969Y-78494087D01*
X144305317Y-78541263D01*
X144308112Y-78545006D01*
X144308114Y-78545009D01*
X144459532Y-78747782D01*
X144459537Y-78747788D01*
X144462324Y-78751520D01*
X144465639Y-78754806D01*
X144482401Y-78771423D01*
X144516697Y-78833586D01*
X144511940Y-78904423D01*
X144490569Y-78941473D01*
X144357148Y-79101894D01*
X144221017Y-79326232D01*
X144219208Y-79330546D01*
X144219207Y-79330548D01*
X144139812Y-79519883D01*
X144119539Y-79568228D01*
X144118388Y-79572760D01*
X144118387Y-79572763D01*
X144056098Y-79818027D01*
X144054946Y-79822564D01*
X144028656Y-80083655D01*
X144041246Y-80345764D01*
X144092440Y-80603132D01*
X144181113Y-80850107D01*
X144305317Y-81081263D01*
X144308112Y-81085006D01*
X144308114Y-81085009D01*
X144459532Y-81287782D01*
X144459537Y-81287788D01*
X144462324Y-81291520D01*
X144465639Y-81294806D01*
X144482401Y-81311423D01*
X144516697Y-81373586D01*
X144511940Y-81444423D01*
X144490569Y-81481473D01*
X144357148Y-81641894D01*
X144221017Y-81866232D01*
X144219208Y-81870546D01*
X144219207Y-81870548D01*
X144152267Y-82030182D01*
X144119539Y-82108228D01*
X144118388Y-82112760D01*
X144118387Y-82112763D01*
X144056098Y-82358027D01*
X144054946Y-82362564D01*
X144028656Y-82623655D01*
X144041246Y-82885764D01*
X144092440Y-83143132D01*
X144181113Y-83390107D01*
X144305317Y-83621263D01*
X144308112Y-83625006D01*
X144308114Y-83625009D01*
X144459532Y-83827782D01*
X144459537Y-83827788D01*
X144462324Y-83831520D01*
X144465639Y-83834806D01*
X144482401Y-83851423D01*
X144516697Y-83913586D01*
X144511940Y-83984423D01*
X144490569Y-84021473D01*
X144357148Y-84181894D01*
X144221017Y-84406232D01*
X144219208Y-84410546D01*
X144219207Y-84410548D01*
X144136220Y-84608449D01*
X144119539Y-84648228D01*
X144054946Y-84902564D01*
X144028656Y-85163655D01*
X144028880Y-85168321D01*
X144028880Y-85168327D01*
X144030882Y-85210000D01*
X144041246Y-85425764D01*
X144092440Y-85683132D01*
X144181113Y-85930107D01*
X144183330Y-85934233D01*
X144245816Y-86050525D01*
X144305317Y-86161263D01*
X144308112Y-86165006D01*
X144308114Y-86165009D01*
X144459532Y-86367782D01*
X144459537Y-86367788D01*
X144462324Y-86371520D01*
X144465639Y-86374806D01*
X144482401Y-86391423D01*
X144516697Y-86453586D01*
X144511940Y-86524423D01*
X144490569Y-86561473D01*
X144357148Y-86721894D01*
X144221017Y-86946232D01*
X144219208Y-86950546D01*
X144219207Y-86950548D01*
X144203586Y-86987801D01*
X144119539Y-87188228D01*
X144054946Y-87442564D01*
X144028656Y-87703655D01*
X144041246Y-87965764D01*
X144092440Y-88223132D01*
X144181113Y-88470107D01*
X144183330Y-88474233D01*
X144245816Y-88590525D01*
X144305317Y-88701263D01*
X144308112Y-88705006D01*
X144308114Y-88705009D01*
X144459532Y-88907782D01*
X144459537Y-88907788D01*
X144462324Y-88911520D01*
X144465639Y-88914806D01*
X144482401Y-88931423D01*
X144516697Y-88993586D01*
X144511940Y-89064423D01*
X144490569Y-89101473D01*
X144357148Y-89261894D01*
X144221017Y-89486232D01*
X144219208Y-89490546D01*
X144219207Y-89490548D01*
X144203586Y-89527801D01*
X144119539Y-89728228D01*
X144054946Y-89982564D01*
X144028656Y-90243655D01*
X144041246Y-90505764D01*
X144092440Y-90763132D01*
X144181113Y-91010107D01*
X144183330Y-91014233D01*
X144245816Y-91130525D01*
X144305317Y-91241263D01*
X144308112Y-91245006D01*
X144308114Y-91245009D01*
X144459532Y-91447782D01*
X144459537Y-91447788D01*
X144462324Y-91451520D01*
X144465639Y-91454806D01*
X144482401Y-91471423D01*
X144516697Y-91533586D01*
X144511940Y-91604423D01*
X144490569Y-91641473D01*
X144357148Y-91801894D01*
X144221017Y-92026232D01*
X144219208Y-92030546D01*
X144219207Y-92030548D01*
X144203586Y-92067801D01*
X144119539Y-92268228D01*
X144054946Y-92522564D01*
X144028656Y-92783655D01*
X144041246Y-93045764D01*
X144092440Y-93303132D01*
X144181113Y-93550107D01*
X144183330Y-93554233D01*
X144245816Y-93670525D01*
X144305317Y-93781263D01*
X144308112Y-93785006D01*
X144308114Y-93785009D01*
X144459532Y-93987782D01*
X144459537Y-93987788D01*
X144462324Y-93991520D01*
X144465639Y-93994806D01*
X144482401Y-94011423D01*
X144516697Y-94073586D01*
X144511940Y-94144423D01*
X144490569Y-94181473D01*
X144357148Y-94341894D01*
X144221017Y-94566232D01*
X144219208Y-94570546D01*
X144219207Y-94570548D01*
X144203586Y-94607801D01*
X144119539Y-94808228D01*
X144054946Y-95062564D01*
X144028656Y-95323655D01*
X144041246Y-95585764D01*
X144092440Y-95843132D01*
X144181113Y-96090107D01*
X144183330Y-96094233D01*
X144245816Y-96210525D01*
X144305317Y-96321263D01*
X144308112Y-96325006D01*
X144308114Y-96325009D01*
X144459532Y-96527782D01*
X144459537Y-96527788D01*
X144462324Y-96531520D01*
X144648684Y-96716262D01*
X144652446Y-96719020D01*
X144652449Y-96719023D01*
X144769826Y-96805087D01*
X144860304Y-96871428D01*
X144864447Y-96873608D01*
X144864449Y-96873609D01*
X145088384Y-96991427D01*
X145088389Y-96991429D01*
X145092534Y-96993610D01*
X145096957Y-96995155D01*
X145096958Y-96995155D01*
X145335857Y-97078582D01*
X145335863Y-97078584D01*
X145340274Y-97080124D01*
X145344867Y-97080996D01*
X145593490Y-97128199D01*
X145593493Y-97128199D01*
X145598079Y-97129070D01*
X145722692Y-97133966D01*
X145855620Y-97139189D01*
X145855625Y-97139189D01*
X145860288Y-97139372D01*
X145962311Y-97128199D01*
X146116486Y-97111315D01*
X146116492Y-97111314D01*
X146121139Y-97110805D01*
X146125663Y-97109614D01*
X146370379Y-97045185D01*
X146370381Y-97045184D01*
X146374902Y-97043994D01*
X146492174Y-96993610D01*
X146611709Y-96942254D01*
X146611711Y-96942253D01*
X146616003Y-96940409D01*
X146839145Y-96802325D01*
X147039426Y-96632775D01*
X147212445Y-96435484D01*
X147354403Y-96214786D01*
X147462180Y-95975530D01*
X147533409Y-95722971D01*
X147566525Y-95462658D01*
X147568951Y-95370000D01*
X147549504Y-95108311D01*
X147491591Y-94852370D01*
X147396483Y-94607801D01*
X147266270Y-94379976D01*
X147104530Y-94174810D01*
X147078065Y-94108932D01*
X147091418Y-94039202D01*
X147108748Y-94013728D01*
X147212445Y-93895484D01*
X147354403Y-93674786D01*
X147462180Y-93435530D01*
X147533409Y-93182971D01*
X147566525Y-92922658D01*
X147568951Y-92830000D01*
X147549504Y-92568311D01*
X147491591Y-92312370D01*
X147396483Y-92067801D01*
X147266270Y-91839976D01*
X147104530Y-91634810D01*
X147078065Y-91568932D01*
X147091418Y-91499202D01*
X147108748Y-91473728D01*
X147212445Y-91355484D01*
X147354403Y-91134786D01*
X147462180Y-90895530D01*
X147533409Y-90642971D01*
X147566525Y-90382658D01*
X147568951Y-90290000D01*
X147549504Y-90028311D01*
X147491591Y-89772370D01*
X147396483Y-89527801D01*
X147266270Y-89299976D01*
X147104530Y-89094810D01*
X147078065Y-89028932D01*
X147091418Y-88959202D01*
X147108748Y-88933728D01*
X147212445Y-88815484D01*
X147354403Y-88594786D01*
X147462180Y-88355530D01*
X147533409Y-88102971D01*
X147566525Y-87842658D01*
X147568951Y-87750000D01*
X147549504Y-87488311D01*
X147491591Y-87232370D01*
X147396483Y-86987801D01*
X147266270Y-86759976D01*
X147104530Y-86554810D01*
X147078065Y-86488932D01*
X147091418Y-86419202D01*
X147108748Y-86393728D01*
X147212445Y-86275484D01*
X147354403Y-86054786D01*
X147462180Y-85815530D01*
X147533409Y-85562971D01*
X147566525Y-85302658D01*
X147568951Y-85210000D01*
X147558461Y-85068836D01*
X147573360Y-84999421D01*
X147623423Y-84949079D01*
X147692755Y-84933796D01*
X147759344Y-84958422D01*
X147798095Y-85005794D01*
X152146000Y-94234000D01*
X159003783Y-95328327D01*
X168115176Y-96782273D01*
X168169826Y-96805087D01*
X168260304Y-96871428D01*
X168264447Y-96873608D01*
X168264449Y-96873609D01*
X168488384Y-96991427D01*
X168488389Y-96991429D01*
X168492534Y-96993610D01*
X168496957Y-96995155D01*
X168496958Y-96995155D01*
X168735857Y-97078582D01*
X168735863Y-97078584D01*
X168740274Y-97080124D01*
X168744867Y-97080996D01*
X168993490Y-97128199D01*
X168993493Y-97128199D01*
X168998079Y-97129070D01*
X169122692Y-97133966D01*
X169255620Y-97139189D01*
X169255625Y-97139189D01*
X169260288Y-97139372D01*
X169362311Y-97128199D01*
X169516486Y-97111315D01*
X169516492Y-97111314D01*
X169521139Y-97110805D01*
X169741808Y-97052707D01*
X169793742Y-97050129D01*
X199794302Y-101837452D01*
X199858419Y-101867939D01*
X199895876Y-101928251D01*
X199900413Y-101958982D01*
X200259482Y-117578450D01*
X200371309Y-122442917D01*
X200402426Y-123796525D01*
X200383995Y-123865088D01*
X200331422Y-123912801D01*
X200261398Y-123924518D01*
X200253169Y-123923250D01*
X199533959Y-123787953D01*
X195835185Y-123092143D01*
X195771936Y-123059892D01*
X195736164Y-122998566D01*
X195732556Y-122972717D01*
X195732482Y-122970617D01*
X195732726Y-122965453D01*
X195729361Y-122936809D01*
X195728500Y-122922108D01*
X195728500Y-120482644D01*
X195748528Y-120414483D01*
X195814747Y-120311534D01*
X195924661Y-120067534D01*
X195997302Y-119809969D01*
X196015103Y-119670041D01*
X196030677Y-119547625D01*
X196030677Y-119547621D01*
X196031075Y-119544495D01*
X196033549Y-119450000D01*
X196013717Y-119183123D01*
X196003161Y-119136470D01*
X195955686Y-118926666D01*
X195954655Y-118922109D01*
X195857662Y-118672691D01*
X195724868Y-118440350D01*
X195559190Y-118230189D01*
X195364269Y-118046825D01*
X195144385Y-117894286D01*
X195140194Y-117892219D01*
X194908559Y-117777989D01*
X194908556Y-117777988D01*
X194904371Y-117775924D01*
X194649497Y-117694338D01*
X194504134Y-117670665D01*
X194389976Y-117652073D01*
X194389975Y-117652073D01*
X194385364Y-117651322D01*
X194251569Y-117649571D01*
X194122451Y-117647880D01*
X194122448Y-117647880D01*
X194117774Y-117647819D01*
X193852605Y-117683907D01*
X193848118Y-117685215D01*
X193848117Y-117685215D01*
X193816817Y-117694338D01*
X193595683Y-117758792D01*
X193591430Y-117760752D01*
X193591429Y-117760753D01*
X193539512Y-117784687D01*
X193352652Y-117870831D01*
X193348743Y-117873394D01*
X193132764Y-118014996D01*
X193132759Y-118015000D01*
X193128851Y-118017562D01*
X192929197Y-118195760D01*
X192758075Y-118401512D01*
X192619244Y-118630298D01*
X192617437Y-118634606D01*
X192617437Y-118634607D01*
X192526231Y-118852109D01*
X192515755Y-118877091D01*
X192514604Y-118881623D01*
X192514603Y-118881626D01*
X192455810Y-119113123D01*
X192449881Y-119136470D01*
X192423070Y-119402736D01*
X192423294Y-119407403D01*
X192423294Y-119407408D01*
X192429727Y-119541338D01*
X192435909Y-119670041D01*
X192488118Y-119932512D01*
X192578549Y-120184383D01*
X192705215Y-120420121D01*
X192707795Y-120423576D01*
X192727500Y-120491182D01*
X192727500Y-122344283D01*
X192707498Y-122412404D01*
X192690595Y-122433378D01*
X192681056Y-122442917D01*
X192618744Y-122476943D01*
X192568667Y-122477650D01*
X169163221Y-118074645D01*
X169100182Y-118042592D01*
X169033670Y-117980024D01*
X169033667Y-117980022D01*
X169030269Y-117976825D01*
X168810385Y-117824286D01*
X168806194Y-117822219D01*
X168574559Y-117707989D01*
X168574556Y-117707988D01*
X168570371Y-117705924D01*
X168534177Y-117694338D01*
X168319942Y-117625761D01*
X168319944Y-117625761D01*
X168315497Y-117624338D01*
X168170134Y-117600665D01*
X168055976Y-117582073D01*
X168055975Y-117582073D01*
X168051364Y-117581322D01*
X167917569Y-117579571D01*
X167788451Y-117577880D01*
X167788448Y-117577880D01*
X167783774Y-117577819D01*
X167518605Y-117613907D01*
X167514118Y-117615215D01*
X167514117Y-117615215D01*
X167482817Y-117624338D01*
X167261683Y-117688792D01*
X167257446Y-117690745D01*
X167257436Y-117690749D01*
X167254858Y-117691938D01*
X167253960Y-117692049D01*
X167253053Y-117692388D01*
X167252972Y-117692171D01*
X167178812Y-117701341D01*
X149121341Y-114304391D01*
X149077861Y-114287413D01*
X141262378Y-109402736D01*
X147883070Y-109402736D01*
X147883294Y-109407403D01*
X147883294Y-109407408D01*
X147884447Y-109431408D01*
X147895909Y-109670041D01*
X147948118Y-109932512D01*
X148038549Y-110184383D01*
X148076533Y-110255074D01*
X148108982Y-110315465D01*
X148165215Y-110420121D01*
X148168010Y-110423864D01*
X148168012Y-110423867D01*
X148252199Y-110536607D01*
X148325335Y-110634547D01*
X148328642Y-110637825D01*
X148328647Y-110637831D01*
X148504143Y-110811801D01*
X148515390Y-110822950D01*
X148731205Y-110981192D01*
X148735340Y-110983368D01*
X148735344Y-110983370D01*
X148864918Y-111051542D01*
X148968039Y-111105797D01*
X148972458Y-111107340D01*
X149216273Y-111192484D01*
X149216279Y-111192486D01*
X149220690Y-111194026D01*
X149225283Y-111194898D01*
X149347100Y-111218026D01*
X149483606Y-111243943D01*
X149610616Y-111248933D01*
X149746345Y-111254266D01*
X149746350Y-111254266D01*
X149751013Y-111254449D01*
X149846943Y-111243943D01*
X150012382Y-111225825D01*
X150012387Y-111225824D01*
X150017035Y-111225315D01*
X150041409Y-111218898D01*
X150271309Y-111158370D01*
X150275829Y-111157180D01*
X150400501Y-111103617D01*
X150517407Y-111053391D01*
X150517410Y-111053389D01*
X150521710Y-111051542D01*
X150525690Y-111049079D01*
X150525694Y-111049077D01*
X150745302Y-110913179D01*
X150745306Y-110913176D01*
X150749275Y-110910720D01*
X150874022Y-110805114D01*
X150938938Y-110776365D01*
X151009091Y-110787277D01*
X151044143Y-110811801D01*
X151055390Y-110822950D01*
X151271205Y-110981192D01*
X151275340Y-110983368D01*
X151275344Y-110983370D01*
X151404918Y-111051542D01*
X151508039Y-111105797D01*
X151512458Y-111107340D01*
X151756273Y-111192484D01*
X151756279Y-111192486D01*
X151760690Y-111194026D01*
X151765283Y-111194898D01*
X151887100Y-111218026D01*
X152023606Y-111243943D01*
X152150616Y-111248933D01*
X152286345Y-111254266D01*
X152286350Y-111254266D01*
X152291013Y-111254449D01*
X152386943Y-111243943D01*
X152552382Y-111225825D01*
X152552387Y-111225824D01*
X152557035Y-111225315D01*
X152581409Y-111218898D01*
X152811309Y-111158370D01*
X152815829Y-111157180D01*
X152940501Y-111103617D01*
X153057407Y-111053391D01*
X153057410Y-111053389D01*
X153061710Y-111051542D01*
X153065690Y-111049079D01*
X153065694Y-111049077D01*
X153285302Y-110913179D01*
X153285306Y-110913176D01*
X153289275Y-110910720D01*
X153303010Y-110899092D01*
X153489960Y-110740828D01*
X153489961Y-110740827D01*
X153493526Y-110737809D01*
X153587365Y-110630807D01*
X153666894Y-110540122D01*
X153666898Y-110540117D01*
X153669976Y-110536607D01*
X153732115Y-110440001D01*
X153812219Y-110315465D01*
X153812222Y-110315460D01*
X153814747Y-110311534D01*
X153924661Y-110067534D01*
X153997302Y-109809969D01*
X154015103Y-109670041D01*
X154030677Y-109547625D01*
X154030677Y-109547621D01*
X154031075Y-109544495D01*
X154033549Y-109450000D01*
X154031820Y-109426736D01*
X187425070Y-109426736D01*
X187437909Y-109694041D01*
X187490118Y-109956512D01*
X187580549Y-110208383D01*
X187582765Y-110212507D01*
X187692106Y-110416001D01*
X187707215Y-110444121D01*
X187710010Y-110447864D01*
X187710012Y-110447867D01*
X187864542Y-110654807D01*
X187867335Y-110658547D01*
X187870642Y-110661825D01*
X187870647Y-110661831D01*
X188035967Y-110825713D01*
X188057390Y-110846950D01*
X188061156Y-110849712D01*
X188061158Y-110849713D01*
X188251111Y-110988992D01*
X188273205Y-111005192D01*
X188277340Y-111007368D01*
X188277344Y-111007370D01*
X188406918Y-111075542D01*
X188510039Y-111129797D01*
X188514458Y-111131340D01*
X188758273Y-111216484D01*
X188758279Y-111216486D01*
X188762690Y-111218026D01*
X189025606Y-111267943D01*
X189152616Y-111272933D01*
X189288345Y-111278266D01*
X189288350Y-111278266D01*
X189293013Y-111278449D01*
X189388943Y-111267943D01*
X189554382Y-111249825D01*
X189554387Y-111249824D01*
X189559035Y-111249315D01*
X189582748Y-111243072D01*
X189813309Y-111182370D01*
X189817829Y-111181180D01*
X189998363Y-111103617D01*
X190059407Y-111077391D01*
X190059410Y-111077389D01*
X190063710Y-111075542D01*
X190196520Y-110993356D01*
X190262823Y-110974500D01*
X193227362Y-110974500D01*
X193286031Y-110988992D01*
X193508039Y-111105797D01*
X193512458Y-111107340D01*
X193756273Y-111192484D01*
X193756279Y-111192486D01*
X193760690Y-111194026D01*
X193765283Y-111194898D01*
X193887100Y-111218026D01*
X194023606Y-111243943D01*
X194150616Y-111248933D01*
X194286345Y-111254266D01*
X194286350Y-111254266D01*
X194291013Y-111254449D01*
X194386943Y-111243943D01*
X194552382Y-111225825D01*
X194552387Y-111225824D01*
X194557035Y-111225315D01*
X194581409Y-111218898D01*
X194811309Y-111158370D01*
X194815829Y-111157180D01*
X194940501Y-111103617D01*
X195057407Y-111053391D01*
X195057410Y-111053389D01*
X195061710Y-111051542D01*
X195065690Y-111049079D01*
X195065694Y-111049077D01*
X195285302Y-110913179D01*
X195285306Y-110913176D01*
X195289275Y-110910720D01*
X195303010Y-110899092D01*
X195489960Y-110740828D01*
X195489961Y-110740827D01*
X195493526Y-110737809D01*
X195587365Y-110630807D01*
X195666894Y-110540122D01*
X195666898Y-110540117D01*
X195669976Y-110536607D01*
X195732115Y-110440001D01*
X195812219Y-110315465D01*
X195812222Y-110315460D01*
X195814747Y-110311534D01*
X195924661Y-110067534D01*
X195997302Y-109809969D01*
X196015103Y-109670041D01*
X196030677Y-109547625D01*
X196030677Y-109547621D01*
X196031075Y-109544495D01*
X196033549Y-109450000D01*
X196013717Y-109183123D01*
X196007565Y-109155933D01*
X195955686Y-108926666D01*
X195954655Y-108922109D01*
X195857662Y-108672691D01*
X195724868Y-108440350D01*
X195559190Y-108230189D01*
X195364269Y-108046825D01*
X195144385Y-107894286D01*
X195140194Y-107892219D01*
X194908559Y-107777989D01*
X194908556Y-107777988D01*
X194904371Y-107775924D01*
X194649497Y-107694338D01*
X194504134Y-107670665D01*
X194389976Y-107652073D01*
X194389975Y-107652073D01*
X194385364Y-107651322D01*
X194251569Y-107649570D01*
X194122451Y-107647880D01*
X194122448Y-107647880D01*
X194117774Y-107647819D01*
X193852605Y-107683907D01*
X193848118Y-107685215D01*
X193848117Y-107685215D01*
X193816817Y-107694338D01*
X193595683Y-107758792D01*
X193591430Y-107760752D01*
X193591429Y-107760753D01*
X193546467Y-107781481D01*
X193352652Y-107870831D01*
X193227519Y-107952872D01*
X193158434Y-107973500D01*
X190265402Y-107973500D01*
X190193583Y-107951028D01*
X190150223Y-107920948D01*
X190150218Y-107920945D01*
X190146385Y-107918286D01*
X190142194Y-107916219D01*
X189910559Y-107801989D01*
X189910556Y-107801988D01*
X189906371Y-107799924D01*
X189651497Y-107718338D01*
X189499524Y-107693588D01*
X189391976Y-107676073D01*
X189391975Y-107676073D01*
X189387364Y-107675322D01*
X189253569Y-107673571D01*
X189124451Y-107671880D01*
X189124448Y-107671880D01*
X189119774Y-107671819D01*
X188854605Y-107707907D01*
X188850118Y-107709215D01*
X188850117Y-107709215D01*
X188818817Y-107718338D01*
X188597683Y-107782792D01*
X188593430Y-107784752D01*
X188593429Y-107784753D01*
X188541512Y-107808687D01*
X188354652Y-107894831D01*
X188350743Y-107897394D01*
X188134764Y-108038996D01*
X188134759Y-108039000D01*
X188130851Y-108041562D01*
X188071624Y-108094424D01*
X187958087Y-108195760D01*
X187931197Y-108219760D01*
X187760075Y-108425512D01*
X187757652Y-108429505D01*
X187633193Y-108634607D01*
X187621244Y-108654298D01*
X187517755Y-108901091D01*
X187516604Y-108905623D01*
X187516603Y-108905626D01*
X187453033Y-109155933D01*
X187451881Y-109160470D01*
X187425070Y-109426736D01*
X154031820Y-109426736D01*
X154013717Y-109183123D01*
X154007565Y-109155933D01*
X153955686Y-108926666D01*
X153954655Y-108922109D01*
X153857662Y-108672691D01*
X153724868Y-108440350D01*
X153559190Y-108230189D01*
X153364269Y-108046825D01*
X153144385Y-107894286D01*
X153140194Y-107892219D01*
X152908559Y-107777989D01*
X152908556Y-107777988D01*
X152904371Y-107775924D01*
X152649497Y-107694338D01*
X152504134Y-107670665D01*
X152389976Y-107652073D01*
X152389975Y-107652073D01*
X152385364Y-107651322D01*
X152251569Y-107649570D01*
X152122451Y-107647880D01*
X152122448Y-107647880D01*
X152117774Y-107647819D01*
X151852605Y-107683907D01*
X151848118Y-107685215D01*
X151848117Y-107685215D01*
X151816817Y-107694338D01*
X151595683Y-107758792D01*
X151591430Y-107760752D01*
X151591429Y-107760753D01*
X151546467Y-107781481D01*
X151352652Y-107870831D01*
X151348743Y-107873394D01*
X151132764Y-108014996D01*
X151132759Y-108015000D01*
X151128851Y-108017562D01*
X151125359Y-108020679D01*
X151042734Y-108094424D01*
X150978593Y-108124862D01*
X150908178Y-108115790D01*
X150872500Y-108092196D01*
X150827670Y-108050024D01*
X150827667Y-108050022D01*
X150824269Y-108046825D01*
X150604385Y-107894286D01*
X150600194Y-107892219D01*
X150368559Y-107777989D01*
X150368556Y-107777988D01*
X150364371Y-107775924D01*
X150109497Y-107694338D01*
X149964134Y-107670665D01*
X149849976Y-107652073D01*
X149849975Y-107652073D01*
X149845364Y-107651322D01*
X149711569Y-107649570D01*
X149582451Y-107647880D01*
X149582448Y-107647880D01*
X149577774Y-107647819D01*
X149312605Y-107683907D01*
X149308118Y-107685215D01*
X149308117Y-107685215D01*
X149276817Y-107694338D01*
X149055683Y-107758792D01*
X149051430Y-107760752D01*
X149051429Y-107760753D01*
X149006467Y-107781481D01*
X148812652Y-107870831D01*
X148808743Y-107873394D01*
X148592764Y-108014996D01*
X148592759Y-108015000D01*
X148588851Y-108017562D01*
X148505231Y-108092196D01*
X148468632Y-108124862D01*
X148389197Y-108195760D01*
X148218075Y-108401512D01*
X148079244Y-108630298D01*
X147975755Y-108877091D01*
X147974604Y-108881623D01*
X147974603Y-108881626D01*
X147911033Y-109131933D01*
X147909881Y-109136470D01*
X147883070Y-109402736D01*
X141262378Y-109402736D01*
X135584464Y-105854040D01*
X128837767Y-101637354D01*
X128790602Y-101584288D01*
X128778551Y-101529522D01*
X128945049Y-80217734D01*
X130567164Y-80217734D01*
X130567388Y-80222401D01*
X130567388Y-80222406D01*
X130567796Y-80230891D01*
X130579732Y-80479397D01*
X130630839Y-80736328D01*
X130632418Y-80740726D01*
X130632420Y-80740733D01*
X130678294Y-80868501D01*
X130719361Y-80982883D01*
X130843355Y-81213646D01*
X130846150Y-81217389D01*
X130846152Y-81217392D01*
X130997303Y-81419808D01*
X130997308Y-81419814D01*
X131000095Y-81423546D01*
X131003404Y-81426826D01*
X131003409Y-81426832D01*
X131105109Y-81527648D01*
X131186138Y-81607973D01*
X131189900Y-81610731D01*
X131189903Y-81610734D01*
X131306667Y-81696349D01*
X131397398Y-81762876D01*
X131401529Y-81765050D01*
X131401530Y-81765050D01*
X131625099Y-81882675D01*
X131625105Y-81882677D01*
X131629234Y-81884850D01*
X131633642Y-81886389D01*
X131633648Y-81886392D01*
X131872136Y-81969676D01*
X131876552Y-81971218D01*
X132133920Y-82020081D01*
X132258175Y-82024963D01*
X132391015Y-82030182D01*
X132391020Y-82030182D01*
X132395683Y-82030365D01*
X132497540Y-82019210D01*
X132651438Y-82002356D01*
X132651444Y-82002355D01*
X132656091Y-82001846D01*
X132778281Y-81969676D01*
X132904900Y-81936340D01*
X132904902Y-81936339D01*
X132909423Y-81935149D01*
X132913720Y-81933303D01*
X133145820Y-81833585D01*
X133145822Y-81833584D01*
X133150114Y-81831740D01*
X133372876Y-81693891D01*
X133572816Y-81524629D01*
X133688449Y-81392775D01*
X133742460Y-81331188D01*
X133742464Y-81331183D01*
X133745542Y-81327673D01*
X133748072Y-81323740D01*
X133884730Y-81111281D01*
X133884733Y-81111276D01*
X133887258Y-81107350D01*
X133994852Y-80868501D01*
X134065960Y-80616371D01*
X134082931Y-80482971D01*
X134098622Y-80359631D01*
X134098622Y-80359627D01*
X134099020Y-80356501D01*
X134099125Y-80352520D01*
X134101359Y-80267160D01*
X134101442Y-80264000D01*
X134082028Y-80002755D01*
X134024213Y-79747250D01*
X134022520Y-79742896D01*
X133930960Y-79507450D01*
X133930959Y-79507448D01*
X133929267Y-79503097D01*
X133908015Y-79465914D01*
X133801595Y-79279716D01*
X133801593Y-79279714D01*
X133799276Y-79275659D01*
X133637095Y-79069933D01*
X133638593Y-79068752D01*
X133610833Y-79012185D01*
X133618977Y-78941657D01*
X133640271Y-78907713D01*
X133742454Y-78791195D01*
X133742458Y-78791189D01*
X133745542Y-78787673D01*
X133748072Y-78783740D01*
X133884730Y-78571281D01*
X133884733Y-78571276D01*
X133887258Y-78567350D01*
X133994852Y-78328501D01*
X134065960Y-78076371D01*
X134082931Y-77942971D01*
X134098622Y-77819631D01*
X134098622Y-77819627D01*
X134099020Y-77816501D01*
X134099424Y-77801094D01*
X134101359Y-77727160D01*
X134101442Y-77724000D01*
X134091484Y-77590000D01*
X134082374Y-77467407D01*
X134082373Y-77467403D01*
X134082028Y-77462755D01*
X134024213Y-77207250D01*
X134008929Y-77167948D01*
X133930960Y-76967450D01*
X133930959Y-76967448D01*
X133929267Y-76963097D01*
X133908015Y-76925914D01*
X133801595Y-76739716D01*
X133801593Y-76739714D01*
X133799276Y-76735659D01*
X133637095Y-76529933D01*
X133638593Y-76528752D01*
X133610833Y-76472185D01*
X133618977Y-76401657D01*
X133640271Y-76367713D01*
X133742454Y-76251195D01*
X133742458Y-76251189D01*
X133745542Y-76247673D01*
X133748072Y-76243740D01*
X133884730Y-76031281D01*
X133884733Y-76031276D01*
X133887258Y-76027350D01*
X133994852Y-75788501D01*
X134065960Y-75536371D01*
X134082931Y-75402971D01*
X134098622Y-75279631D01*
X134098622Y-75279627D01*
X134099020Y-75276501D01*
X134101442Y-75184000D01*
X134082028Y-74922755D01*
X134024213Y-74667250D01*
X134022520Y-74662896D01*
X133930960Y-74427450D01*
X133930959Y-74427448D01*
X133929267Y-74423097D01*
X133908015Y-74385914D01*
X133801595Y-74199716D01*
X133801593Y-74199714D01*
X133799276Y-74195659D01*
X133637095Y-73989933D01*
X133638593Y-73988752D01*
X133610833Y-73932185D01*
X133618977Y-73861657D01*
X133640271Y-73827713D01*
X133742454Y-73711195D01*
X133742458Y-73711189D01*
X133745542Y-73707673D01*
X133748072Y-73703740D01*
X133884730Y-73491281D01*
X133884733Y-73491276D01*
X133887258Y-73487350D01*
X133994852Y-73248501D01*
X134065960Y-72996371D01*
X134082931Y-72862971D01*
X134098622Y-72739631D01*
X134098622Y-72739627D01*
X134099020Y-72736501D01*
X134101442Y-72644000D01*
X134082028Y-72382755D01*
X134024213Y-72127250D01*
X134022520Y-72122896D01*
X133930960Y-71887450D01*
X133930959Y-71887448D01*
X133929267Y-71883097D01*
X133908015Y-71845914D01*
X133801595Y-71659716D01*
X133801593Y-71659714D01*
X133799276Y-71655659D01*
X133637095Y-71449933D01*
X133446287Y-71270440D01*
X133442440Y-71267771D01*
X133234887Y-71123785D01*
X133234884Y-71123783D01*
X133231045Y-71121120D01*
X133226855Y-71119054D01*
X133226852Y-71119052D01*
X133000283Y-71007321D01*
X133000280Y-71007320D01*
X132996095Y-71005256D01*
X132949832Y-70990447D01*
X132895752Y-70973136D01*
X132746601Y-70925393D01*
X132741994Y-70924643D01*
X132741991Y-70924642D01*
X132492654Y-70884035D01*
X132492655Y-70884035D01*
X132488043Y-70883284D01*
X132360858Y-70881619D01*
X132230777Y-70879916D01*
X132230774Y-70879916D01*
X132226100Y-70879855D01*
X131966528Y-70915181D01*
X131962042Y-70916489D01*
X131962040Y-70916489D01*
X131931492Y-70925393D01*
X131715029Y-70988486D01*
X131477127Y-71098160D01*
X131442107Y-71121120D01*
X131261962Y-71239228D01*
X131261957Y-71239232D01*
X131258049Y-71241794D01*
X131062609Y-71416232D01*
X130895098Y-71617641D01*
X130759198Y-71841598D01*
X130757389Y-71845912D01*
X130757388Y-71845914D01*
X130695974Y-71992370D01*
X130657893Y-72083182D01*
X130656742Y-72087714D01*
X130656741Y-72087717D01*
X130627574Y-72202564D01*
X130593409Y-72337087D01*
X130567164Y-72597734D01*
X130567388Y-72602401D01*
X130567388Y-72602406D01*
X130569235Y-72640851D01*
X130579732Y-72859397D01*
X130630839Y-73116328D01*
X130632418Y-73120726D01*
X130632420Y-73120733D01*
X130678294Y-73248501D01*
X130719361Y-73362883D01*
X130843355Y-73593646D01*
X130846150Y-73597389D01*
X130846152Y-73597392D01*
X130997303Y-73799808D01*
X130997308Y-73799814D01*
X131000095Y-73803546D01*
X131003404Y-73806826D01*
X131003409Y-73806832D01*
X131021965Y-73825226D01*
X131056261Y-73887389D01*
X131051506Y-73958226D01*
X131030133Y-73995278D01*
X130898095Y-74154037D01*
X130895098Y-74157641D01*
X130759198Y-74381598D01*
X130757389Y-74385912D01*
X130757388Y-74385914D01*
X130695974Y-74532370D01*
X130657893Y-74623182D01*
X130656742Y-74627714D01*
X130656741Y-74627717D01*
X130627574Y-74742564D01*
X130593409Y-74877087D01*
X130567164Y-75137734D01*
X130567388Y-75142401D01*
X130567388Y-75142406D01*
X130569235Y-75180851D01*
X130579732Y-75399397D01*
X130630839Y-75656328D01*
X130632418Y-75660726D01*
X130632420Y-75660733D01*
X130678294Y-75788501D01*
X130719361Y-75902883D01*
X130843355Y-76133646D01*
X130846150Y-76137389D01*
X130846152Y-76137392D01*
X130997303Y-76339808D01*
X130997308Y-76339814D01*
X131000095Y-76343546D01*
X131003404Y-76346826D01*
X131003409Y-76346832D01*
X131021965Y-76365226D01*
X131056261Y-76427389D01*
X131051506Y-76498226D01*
X131030133Y-76535278D01*
X130898095Y-76694037D01*
X130895098Y-76697641D01*
X130759198Y-76921598D01*
X130757389Y-76925912D01*
X130757388Y-76925914D01*
X130665314Y-77145486D01*
X130657893Y-77163182D01*
X130656742Y-77167714D01*
X130656741Y-77167717D01*
X130627574Y-77282564D01*
X130593409Y-77417087D01*
X130592940Y-77421743D01*
X130592940Y-77421744D01*
X130589269Y-77458201D01*
X130567164Y-77677734D01*
X130567388Y-77682401D01*
X130567388Y-77682406D01*
X130573089Y-77801094D01*
X130579732Y-77939397D01*
X130630839Y-78196328D01*
X130632418Y-78200726D01*
X130632420Y-78200733D01*
X130678294Y-78328501D01*
X130719361Y-78442883D01*
X130843355Y-78673646D01*
X130846150Y-78677389D01*
X130846152Y-78677392D01*
X130997303Y-78879808D01*
X130997308Y-78879814D01*
X131000095Y-78883546D01*
X131003404Y-78886826D01*
X131003409Y-78886832D01*
X131021965Y-78905226D01*
X131056261Y-78967389D01*
X131051506Y-79038226D01*
X131030133Y-79075278D01*
X130911824Y-79217530D01*
X130895098Y-79237641D01*
X130759198Y-79461598D01*
X130757389Y-79465912D01*
X130757388Y-79465914D01*
X130695974Y-79612370D01*
X130657893Y-79703182D01*
X130656742Y-79707714D01*
X130656741Y-79707717D01*
X130606409Y-79905901D01*
X130593409Y-79957087D01*
X130567164Y-80217734D01*
X128945049Y-80217734D01*
X129031133Y-69199010D01*
X129051666Y-69131047D01*
X129105684Y-69084975D01*
X129142234Y-69074877D01*
X130668099Y-68893227D01*
X130738107Y-68905037D01*
X130780637Y-68938708D01*
X130856862Y-69032169D01*
X130860891Y-69037109D01*
X131018404Y-69165573D01*
X131198530Y-69259741D01*
X131393913Y-69315766D01*
X131425545Y-69318589D01*
X131511391Y-69326251D01*
X131511397Y-69326251D01*
X131514184Y-69326500D01*
X133153816Y-69326500D01*
X133156603Y-69326251D01*
X133156609Y-69326251D01*
X133242455Y-69318589D01*
X133274087Y-69315766D01*
X133469470Y-69259741D01*
X133649596Y-69165573D01*
X133807109Y-69037109D01*
X133935573Y-68879596D01*
X134029741Y-68699470D01*
X134067949Y-68566223D01*
X134105953Y-68506255D01*
X134174173Y-68475837D01*
X139609828Y-67828735D01*
X139679836Y-67840545D01*
G37*
%TD.AperFunction*%
%TD*%
%TA.AperFunction,Conductor*%
%TO.N,GND*%
G36*
X164302004Y-45338436D02*
G01*
X179914012Y-45392457D01*
X179982063Y-45412694D01*
X180028370Y-45466511D01*
X180038231Y-45536819D01*
X180008514Y-45601297D01*
X179948834Y-45639422D01*
X179928029Y-45645486D01*
X179923776Y-45647447D01*
X179923775Y-45647447D01*
X179895446Y-45660507D01*
X179690127Y-45755160D01*
X179655107Y-45778120D01*
X179474962Y-45896228D01*
X179474957Y-45896232D01*
X179471049Y-45898794D01*
X179275609Y-46073232D01*
X179108098Y-46274641D01*
X178972198Y-46498598D01*
X178970389Y-46502912D01*
X178970388Y-46502914D01*
X178952971Y-46544450D01*
X178870893Y-46740182D01*
X178869742Y-46744714D01*
X178869741Y-46744717D01*
X178808174Y-46987139D01*
X178806409Y-46994087D01*
X178780164Y-47254734D01*
X178792732Y-47516397D01*
X178843839Y-47773328D01*
X178845418Y-47777726D01*
X178845420Y-47777733D01*
X178930778Y-48015474D01*
X178932361Y-48019883D01*
X179056355Y-48250646D01*
X179059150Y-48254389D01*
X179059152Y-48254392D01*
X179210303Y-48456808D01*
X179210308Y-48456814D01*
X179213095Y-48460546D01*
X179216404Y-48463826D01*
X179216409Y-48463832D01*
X179318109Y-48564648D01*
X179399138Y-48644973D01*
X179402900Y-48647731D01*
X179402903Y-48647734D01*
X179519667Y-48733349D01*
X179610398Y-48799876D01*
X179614529Y-48802050D01*
X179614530Y-48802050D01*
X179838099Y-48919675D01*
X179838105Y-48919677D01*
X179842234Y-48921850D01*
X179846642Y-48923389D01*
X179846648Y-48923392D01*
X180085136Y-49006676D01*
X180089552Y-49008218D01*
X180346920Y-49057081D01*
X180471175Y-49061963D01*
X180604015Y-49067182D01*
X180604020Y-49067182D01*
X180608683Y-49067365D01*
X180710540Y-49056210D01*
X180864438Y-49039356D01*
X180864444Y-49039355D01*
X180869091Y-49038846D01*
X180991281Y-49006676D01*
X181117900Y-48973340D01*
X181117902Y-48973339D01*
X181122423Y-48972149D01*
X181363114Y-48868740D01*
X181585876Y-48730891D01*
X181735045Y-48604610D01*
X181799961Y-48575861D01*
X181870114Y-48586773D01*
X181905162Y-48611293D01*
X181935821Y-48641685D01*
X181939138Y-48644973D01*
X181942900Y-48647731D01*
X181942903Y-48647734D01*
X182059667Y-48733349D01*
X182150398Y-48799876D01*
X182154529Y-48802050D01*
X182154530Y-48802050D01*
X182378099Y-48919675D01*
X182378105Y-48919677D01*
X182382234Y-48921850D01*
X182386642Y-48923389D01*
X182386648Y-48923392D01*
X182625136Y-49006676D01*
X182629552Y-49008218D01*
X182886920Y-49057081D01*
X183011175Y-49061963D01*
X183144015Y-49067182D01*
X183144020Y-49067182D01*
X183148683Y-49067365D01*
X183250540Y-49056210D01*
X183404438Y-49039356D01*
X183404444Y-49039355D01*
X183409091Y-49038846D01*
X183531281Y-49006676D01*
X183657900Y-48973340D01*
X183657902Y-48973339D01*
X183662423Y-48972149D01*
X183903114Y-48868740D01*
X184125876Y-48730891D01*
X184275045Y-48604610D01*
X184339961Y-48575861D01*
X184410114Y-48586773D01*
X184445162Y-48611293D01*
X184475821Y-48641685D01*
X184479138Y-48644973D01*
X184482900Y-48647731D01*
X184482903Y-48647734D01*
X184599667Y-48733349D01*
X184690398Y-48799876D01*
X184694529Y-48802050D01*
X184694530Y-48802050D01*
X184918099Y-48919675D01*
X184918105Y-48919677D01*
X184922234Y-48921850D01*
X184926642Y-48923389D01*
X184926648Y-48923392D01*
X185165136Y-49006676D01*
X185169552Y-49008218D01*
X185426920Y-49057081D01*
X185551175Y-49061963D01*
X185684015Y-49067182D01*
X185684020Y-49067182D01*
X185688683Y-49067365D01*
X185790540Y-49056210D01*
X185944438Y-49039356D01*
X185944444Y-49039355D01*
X185949091Y-49038846D01*
X186071281Y-49006676D01*
X186197900Y-48973340D01*
X186197902Y-48973339D01*
X186202423Y-48972149D01*
X186443114Y-48868740D01*
X186665876Y-48730891D01*
X186865816Y-48561629D01*
X186957742Y-48456808D01*
X187035460Y-48368188D01*
X187035464Y-48368183D01*
X187038542Y-48364673D01*
X187056305Y-48337058D01*
X187177730Y-48148281D01*
X187177733Y-48148276D01*
X187180258Y-48144350D01*
X187287852Y-47905501D01*
X187358960Y-47653371D01*
X187375802Y-47520985D01*
X187391622Y-47396631D01*
X187391622Y-47396627D01*
X187392020Y-47393501D01*
X187394442Y-47301000D01*
X187375028Y-47039755D01*
X187317213Y-46784250D01*
X187315520Y-46779896D01*
X187223960Y-46544450D01*
X187223959Y-46544448D01*
X187222267Y-46540097D01*
X187201015Y-46502914D01*
X187094595Y-46316716D01*
X187094593Y-46316714D01*
X187092276Y-46312659D01*
X186930095Y-46106933D01*
X186739287Y-45927440D01*
X186735440Y-45924771D01*
X186527887Y-45780785D01*
X186527884Y-45780783D01*
X186524045Y-45778120D01*
X186519855Y-45776054D01*
X186519852Y-45776052D01*
X186293283Y-45664321D01*
X186293280Y-45664320D01*
X186289095Y-45662256D01*
X186284032Y-45660635D01*
X186283842Y-45660507D01*
X186280306Y-45659078D01*
X186280613Y-45658319D01*
X186225251Y-45620821D01*
X186197326Y-45555547D01*
X186209124Y-45485538D01*
X186256898Y-45433020D01*
X186322876Y-45414633D01*
X192429647Y-45435763D01*
X201039193Y-45465554D01*
X201107243Y-45485791D01*
X201153550Y-45539608D01*
X201164715Y-45594766D01*
X200325328Y-78498744D01*
X200073771Y-88359798D01*
X199901910Y-95096731D01*
X199880177Y-95164320D01*
X199825353Y-95209429D01*
X199748393Y-95216467D01*
X170854861Y-88740330D01*
X170792765Y-88705914D01*
X170759132Y-88643389D01*
X170764643Y-88572606D01*
X170767537Y-88565630D01*
X170860257Y-88359798D01*
X170862180Y-88355530D01*
X170933409Y-88102971D01*
X170954250Y-87939149D01*
X170966127Y-87845789D01*
X170966127Y-87845783D01*
X170966525Y-87842658D01*
X170968951Y-87750000D01*
X170949504Y-87488311D01*
X170891591Y-87232370D01*
X170796483Y-86987801D01*
X170666270Y-86759976D01*
X170504530Y-86554810D01*
X170478065Y-86488932D01*
X170491418Y-86419202D01*
X170508748Y-86393728D01*
X170612445Y-86275484D01*
X170754403Y-86054786D01*
X170862180Y-85815530D01*
X170933409Y-85562971D01*
X170966525Y-85302658D01*
X170968951Y-85210000D01*
X170949504Y-84948311D01*
X170891591Y-84692370D01*
X170796483Y-84447801D01*
X170666270Y-84219976D01*
X170504530Y-84014810D01*
X170478065Y-83948932D01*
X170491418Y-83879202D01*
X170508748Y-83853728D01*
X170612445Y-83735484D01*
X170754403Y-83514786D01*
X170862180Y-83275530D01*
X170933409Y-83022971D01*
X170966525Y-82762658D01*
X170968951Y-82670000D01*
X170949504Y-82408311D01*
X170891591Y-82152370D01*
X170844146Y-82030365D01*
X170798176Y-81912154D01*
X170798175Y-81912152D01*
X170796483Y-81907801D01*
X170791666Y-81899372D01*
X170668589Y-81684034D01*
X170666270Y-81679976D01*
X170504530Y-81474810D01*
X170478065Y-81408932D01*
X170491418Y-81339202D01*
X170508748Y-81313728D01*
X170612445Y-81195484D01*
X170754403Y-80974786D01*
X170862180Y-80735530D01*
X170933409Y-80482971D01*
X170966525Y-80222658D01*
X170968951Y-80130000D01*
X170964928Y-80075861D01*
X170949850Y-79872963D01*
X170949849Y-79872959D01*
X170949504Y-79868311D01*
X170891591Y-79612370D01*
X170796483Y-79367801D01*
X170666270Y-79139976D01*
X170504530Y-78934810D01*
X170478065Y-78868932D01*
X170491418Y-78799202D01*
X170508748Y-78773728D01*
X170525405Y-78754734D01*
X178080164Y-78754734D01*
X178080388Y-78759401D01*
X178080388Y-78759406D01*
X178081076Y-78773728D01*
X178092732Y-79016397D01*
X178143839Y-79273328D01*
X178145418Y-79277726D01*
X178145420Y-79277733D01*
X178226334Y-79503097D01*
X178232361Y-79519883D01*
X178356355Y-79750646D01*
X178359150Y-79754389D01*
X178359152Y-79754392D01*
X178510303Y-79956808D01*
X178510308Y-79956814D01*
X178513095Y-79960546D01*
X178516404Y-79963826D01*
X178516409Y-79963832D01*
X178658421Y-80104610D01*
X178699138Y-80144973D01*
X178702900Y-80147731D01*
X178702903Y-80147734D01*
X178906631Y-80297114D01*
X178910398Y-80299876D01*
X178914529Y-80302050D01*
X178914530Y-80302050D01*
X179138099Y-80419675D01*
X179138105Y-80419677D01*
X179142234Y-80421850D01*
X179146642Y-80423389D01*
X179146648Y-80423392D01*
X179317256Y-80482971D01*
X179389552Y-80508218D01*
X179646920Y-80557081D01*
X179771175Y-80561963D01*
X179904015Y-80567182D01*
X179904020Y-80567182D01*
X179908683Y-80567365D01*
X180010540Y-80556210D01*
X180164438Y-80539356D01*
X180164444Y-80539355D01*
X180169091Y-80538846D01*
X180364234Y-80487469D01*
X180417900Y-80473340D01*
X180417902Y-80473339D01*
X180422423Y-80472149D01*
X180663114Y-80368740D01*
X180885876Y-80230891D01*
X181035045Y-80104610D01*
X181099961Y-80075861D01*
X181170114Y-80086773D01*
X181205162Y-80111293D01*
X181227221Y-80133160D01*
X181239138Y-80144973D01*
X181242900Y-80147731D01*
X181242903Y-80147734D01*
X181446631Y-80297114D01*
X181450398Y-80299876D01*
X181454529Y-80302050D01*
X181454530Y-80302050D01*
X181678099Y-80419675D01*
X181678105Y-80419677D01*
X181682234Y-80421850D01*
X181686642Y-80423389D01*
X181686648Y-80423392D01*
X181857256Y-80482971D01*
X181929552Y-80508218D01*
X182186920Y-80557081D01*
X182311175Y-80561963D01*
X182444015Y-80567182D01*
X182444020Y-80567182D01*
X182448683Y-80567365D01*
X182550540Y-80556210D01*
X182704438Y-80539356D01*
X182704444Y-80539355D01*
X182709091Y-80538846D01*
X182904234Y-80487469D01*
X182957900Y-80473340D01*
X182957902Y-80473339D01*
X182962423Y-80472149D01*
X183203114Y-80368740D01*
X183425876Y-80230891D01*
X183575045Y-80104610D01*
X183639961Y-80075861D01*
X183710114Y-80086773D01*
X183745162Y-80111293D01*
X183767221Y-80133160D01*
X183779138Y-80144973D01*
X183782900Y-80147731D01*
X183782903Y-80147734D01*
X183986631Y-80297114D01*
X183990398Y-80299876D01*
X183994529Y-80302050D01*
X183994530Y-80302050D01*
X184218099Y-80419675D01*
X184218105Y-80419677D01*
X184222234Y-80421850D01*
X184226642Y-80423389D01*
X184226648Y-80423392D01*
X184397256Y-80482971D01*
X184469552Y-80508218D01*
X184726920Y-80557081D01*
X184851175Y-80561963D01*
X184984015Y-80567182D01*
X184984020Y-80567182D01*
X184988683Y-80567365D01*
X185090540Y-80556210D01*
X185244438Y-80539356D01*
X185244444Y-80539355D01*
X185249091Y-80538846D01*
X185444234Y-80487469D01*
X185497900Y-80473340D01*
X185497902Y-80473339D01*
X185502423Y-80472149D01*
X185743114Y-80368740D01*
X185965876Y-80230891D01*
X186115045Y-80104610D01*
X186179961Y-80075861D01*
X186250114Y-80086773D01*
X186285162Y-80111293D01*
X186307221Y-80133160D01*
X186319138Y-80144973D01*
X186322900Y-80147731D01*
X186322903Y-80147734D01*
X186526631Y-80297114D01*
X186530398Y-80299876D01*
X186534529Y-80302050D01*
X186534530Y-80302050D01*
X186758099Y-80419675D01*
X186758105Y-80419677D01*
X186762234Y-80421850D01*
X186766642Y-80423389D01*
X186766648Y-80423392D01*
X186937256Y-80482971D01*
X187009552Y-80508218D01*
X187266920Y-80557081D01*
X187391175Y-80561963D01*
X187524015Y-80567182D01*
X187524020Y-80567182D01*
X187528683Y-80567365D01*
X187630540Y-80556210D01*
X187784438Y-80539356D01*
X187784444Y-80539355D01*
X187789091Y-80538846D01*
X187984234Y-80487469D01*
X188037900Y-80473340D01*
X188037902Y-80473339D01*
X188042423Y-80472149D01*
X188283114Y-80368740D01*
X188505876Y-80230891D01*
X188655045Y-80104610D01*
X188719961Y-80075861D01*
X188790114Y-80086773D01*
X188825162Y-80111293D01*
X188847221Y-80133160D01*
X188859138Y-80144973D01*
X188862900Y-80147731D01*
X188862903Y-80147734D01*
X189066631Y-80297114D01*
X189070398Y-80299876D01*
X189074529Y-80302050D01*
X189074530Y-80302050D01*
X189298099Y-80419675D01*
X189298105Y-80419677D01*
X189302234Y-80421850D01*
X189306642Y-80423389D01*
X189306648Y-80423392D01*
X189477256Y-80482971D01*
X189549552Y-80508218D01*
X189806920Y-80557081D01*
X189931175Y-80561963D01*
X190064015Y-80567182D01*
X190064020Y-80567182D01*
X190068683Y-80567365D01*
X190170540Y-80556210D01*
X190324438Y-80539356D01*
X190324444Y-80539355D01*
X190329091Y-80538846D01*
X190524234Y-80487469D01*
X190577900Y-80473340D01*
X190577902Y-80473339D01*
X190582423Y-80472149D01*
X190823114Y-80368740D01*
X191045876Y-80230891D01*
X191195045Y-80104610D01*
X191259961Y-80075861D01*
X191330114Y-80086773D01*
X191365162Y-80111293D01*
X191387221Y-80133160D01*
X191399138Y-80144973D01*
X191402900Y-80147731D01*
X191402903Y-80147734D01*
X191606631Y-80297114D01*
X191610398Y-80299876D01*
X191614529Y-80302050D01*
X191614530Y-80302050D01*
X191838099Y-80419675D01*
X191838105Y-80419677D01*
X191842234Y-80421850D01*
X191846642Y-80423389D01*
X191846648Y-80423392D01*
X192017256Y-80482971D01*
X192089552Y-80508218D01*
X192346920Y-80557081D01*
X192471175Y-80561963D01*
X192604015Y-80567182D01*
X192604020Y-80567182D01*
X192608683Y-80567365D01*
X192710540Y-80556210D01*
X192864438Y-80539356D01*
X192864444Y-80539355D01*
X192869091Y-80538846D01*
X193064234Y-80487469D01*
X193117900Y-80473340D01*
X193117902Y-80473339D01*
X193122423Y-80472149D01*
X193363114Y-80368740D01*
X193585876Y-80230891D01*
X193785816Y-80061629D01*
X193955352Y-79868311D01*
X193955460Y-79868188D01*
X193955464Y-79868183D01*
X193958542Y-79864673D01*
X193982632Y-79827221D01*
X194097730Y-79648281D01*
X194097733Y-79648276D01*
X194100258Y-79644350D01*
X194207852Y-79405501D01*
X194278960Y-79153371D01*
X194295802Y-79020985D01*
X194311622Y-78896631D01*
X194311622Y-78896627D01*
X194312020Y-78893501D01*
X194312832Y-78862512D01*
X194314359Y-78804160D01*
X194314442Y-78801000D01*
X194297079Y-78567350D01*
X194295374Y-78544407D01*
X194295373Y-78544403D01*
X194295028Y-78539755D01*
X194237213Y-78284250D01*
X194235520Y-78279896D01*
X194143960Y-78044450D01*
X194143959Y-78044448D01*
X194142267Y-78040097D01*
X194121015Y-78002914D01*
X194014595Y-77816716D01*
X194014593Y-77816714D01*
X194012276Y-77812659D01*
X193850095Y-77606933D01*
X193659287Y-77427440D01*
X193655440Y-77424771D01*
X193447887Y-77280785D01*
X193447884Y-77280783D01*
X193444045Y-77278120D01*
X193439855Y-77276054D01*
X193439852Y-77276052D01*
X193213283Y-77164321D01*
X193213280Y-77164320D01*
X193209095Y-77162256D01*
X193162832Y-77147447D01*
X193108752Y-77130136D01*
X192959601Y-77082393D01*
X192954994Y-77081643D01*
X192954991Y-77081642D01*
X192705654Y-77041035D01*
X192705655Y-77041035D01*
X192701043Y-77040284D01*
X192573858Y-77038619D01*
X192443777Y-77036916D01*
X192443774Y-77036916D01*
X192439100Y-77036855D01*
X192179528Y-77072181D01*
X192175042Y-77073489D01*
X192175040Y-77073489D01*
X192144492Y-77082393D01*
X191928029Y-77145486D01*
X191690127Y-77255160D01*
X191655249Y-77278027D01*
X191474962Y-77396228D01*
X191474957Y-77396232D01*
X191471049Y-77398794D01*
X191438954Y-77427440D01*
X191361059Y-77496964D01*
X191296918Y-77527402D01*
X191226504Y-77518331D01*
X191190825Y-77494736D01*
X191122695Y-77430646D01*
X191119287Y-77427440D01*
X191115440Y-77424771D01*
X190907887Y-77280785D01*
X190907884Y-77280783D01*
X190904045Y-77278120D01*
X190899855Y-77276054D01*
X190899852Y-77276052D01*
X190673283Y-77164321D01*
X190673280Y-77164320D01*
X190669095Y-77162256D01*
X190622832Y-77147447D01*
X190568752Y-77130136D01*
X190419601Y-77082393D01*
X190414994Y-77081643D01*
X190414991Y-77081642D01*
X190165654Y-77041035D01*
X190165655Y-77041035D01*
X190161043Y-77040284D01*
X190033858Y-77038619D01*
X189903777Y-77036916D01*
X189903774Y-77036916D01*
X189899100Y-77036855D01*
X189639528Y-77072181D01*
X189635042Y-77073489D01*
X189635040Y-77073489D01*
X189604492Y-77082393D01*
X189388029Y-77145486D01*
X189150127Y-77255160D01*
X189115249Y-77278027D01*
X188934962Y-77396228D01*
X188934957Y-77396232D01*
X188931049Y-77398794D01*
X188898954Y-77427440D01*
X188821059Y-77496964D01*
X188756918Y-77527402D01*
X188686504Y-77518331D01*
X188650825Y-77494736D01*
X188582695Y-77430646D01*
X188579287Y-77427440D01*
X188575440Y-77424771D01*
X188367887Y-77280785D01*
X188367884Y-77280783D01*
X188364045Y-77278120D01*
X188359855Y-77276054D01*
X188359852Y-77276052D01*
X188133283Y-77164321D01*
X188133280Y-77164320D01*
X188129095Y-77162256D01*
X188082832Y-77147447D01*
X188028752Y-77130136D01*
X187879601Y-77082393D01*
X187874994Y-77081643D01*
X187874991Y-77081642D01*
X187625654Y-77041035D01*
X187625655Y-77041035D01*
X187621043Y-77040284D01*
X187493858Y-77038619D01*
X187363777Y-77036916D01*
X187363774Y-77036916D01*
X187359100Y-77036855D01*
X187099528Y-77072181D01*
X187095042Y-77073489D01*
X187095040Y-77073489D01*
X187064492Y-77082393D01*
X186848029Y-77145486D01*
X186610127Y-77255160D01*
X186575249Y-77278027D01*
X186394962Y-77396228D01*
X186394957Y-77396232D01*
X186391049Y-77398794D01*
X186358954Y-77427440D01*
X186281059Y-77496964D01*
X186216918Y-77527402D01*
X186146504Y-77518331D01*
X186110825Y-77494736D01*
X186042695Y-77430646D01*
X186039287Y-77427440D01*
X186035440Y-77424771D01*
X185827887Y-77280785D01*
X185827884Y-77280783D01*
X185824045Y-77278120D01*
X185819855Y-77276054D01*
X185819852Y-77276052D01*
X185593283Y-77164321D01*
X185593280Y-77164320D01*
X185589095Y-77162256D01*
X185542832Y-77147447D01*
X185488752Y-77130136D01*
X185339601Y-77082393D01*
X185334994Y-77081643D01*
X185334991Y-77081642D01*
X185085654Y-77041035D01*
X185085655Y-77041035D01*
X185081043Y-77040284D01*
X184953858Y-77038619D01*
X184823777Y-77036916D01*
X184823774Y-77036916D01*
X184819100Y-77036855D01*
X184559528Y-77072181D01*
X184555042Y-77073489D01*
X184555040Y-77073489D01*
X184524492Y-77082393D01*
X184308029Y-77145486D01*
X184070127Y-77255160D01*
X184035249Y-77278027D01*
X183854962Y-77396228D01*
X183854957Y-77396232D01*
X183851049Y-77398794D01*
X183818954Y-77427440D01*
X183741059Y-77496964D01*
X183676918Y-77527402D01*
X183606504Y-77518331D01*
X183570825Y-77494736D01*
X183502695Y-77430646D01*
X183499287Y-77427440D01*
X183495440Y-77424771D01*
X183287887Y-77280785D01*
X183287884Y-77280783D01*
X183284045Y-77278120D01*
X183279855Y-77276054D01*
X183279852Y-77276052D01*
X183053283Y-77164321D01*
X183053280Y-77164320D01*
X183049095Y-77162256D01*
X183002832Y-77147447D01*
X182948752Y-77130136D01*
X182799601Y-77082393D01*
X182794994Y-77081643D01*
X182794991Y-77081642D01*
X182545654Y-77041035D01*
X182545655Y-77041035D01*
X182541043Y-77040284D01*
X182413858Y-77038619D01*
X182283777Y-77036916D01*
X182283774Y-77036916D01*
X182279100Y-77036855D01*
X182019528Y-77072181D01*
X182015042Y-77073489D01*
X182015040Y-77073489D01*
X181984492Y-77082393D01*
X181768029Y-77145486D01*
X181530127Y-77255160D01*
X181495249Y-77278027D01*
X181314962Y-77396228D01*
X181314957Y-77396232D01*
X181311049Y-77398794D01*
X181278954Y-77427440D01*
X181201059Y-77496964D01*
X181136918Y-77527402D01*
X181066504Y-77518331D01*
X181030825Y-77494736D01*
X180962695Y-77430646D01*
X180959287Y-77427440D01*
X180955440Y-77424771D01*
X180747887Y-77280785D01*
X180747884Y-77280783D01*
X180744045Y-77278120D01*
X180739855Y-77276054D01*
X180739852Y-77276052D01*
X180513283Y-77164321D01*
X180513280Y-77164320D01*
X180509095Y-77162256D01*
X180462832Y-77147447D01*
X180408752Y-77130136D01*
X180259601Y-77082393D01*
X180254994Y-77081643D01*
X180254991Y-77081642D01*
X180005654Y-77041035D01*
X180005655Y-77041035D01*
X180001043Y-77040284D01*
X179873858Y-77038619D01*
X179743777Y-77036916D01*
X179743774Y-77036916D01*
X179739100Y-77036855D01*
X179479528Y-77072181D01*
X179475042Y-77073489D01*
X179475040Y-77073489D01*
X179444492Y-77082393D01*
X179228029Y-77145486D01*
X178990127Y-77255160D01*
X178955249Y-77278027D01*
X178774962Y-77396228D01*
X178774957Y-77396232D01*
X178771049Y-77398794D01*
X178575609Y-77573232D01*
X178408098Y-77774641D01*
X178272198Y-77998598D01*
X178270389Y-78002912D01*
X178270388Y-78002914D01*
X178189283Y-78196328D01*
X178170893Y-78240182D01*
X178169742Y-78244714D01*
X178169741Y-78244717D01*
X178120472Y-78438716D01*
X178106409Y-78494087D01*
X178080164Y-78754734D01*
X170525405Y-78754734D01*
X170612445Y-78655484D01*
X170754403Y-78434786D01*
X170862180Y-78195530D01*
X170933409Y-77942971D01*
X170950281Y-77810349D01*
X170966127Y-77685789D01*
X170966127Y-77685783D01*
X170966525Y-77682658D01*
X170968951Y-77590000D01*
X170956101Y-77417087D01*
X170949850Y-77332963D01*
X170949849Y-77332959D01*
X170949504Y-77328311D01*
X170891591Y-77072370D01*
X170889898Y-77068016D01*
X170798176Y-76832154D01*
X170798175Y-76832152D01*
X170796483Y-76827801D01*
X170666270Y-76599976D01*
X170504530Y-76394810D01*
X170478065Y-76328932D01*
X170491418Y-76259202D01*
X170508748Y-76233728D01*
X170612445Y-76115484D01*
X170754403Y-75894786D01*
X170862180Y-75655530D01*
X170933409Y-75402971D01*
X170966525Y-75142658D01*
X170968951Y-75050000D01*
X170949504Y-74788311D01*
X170891591Y-74532370D01*
X170796483Y-74287801D01*
X170666270Y-74059976D01*
X170504530Y-73854810D01*
X170478065Y-73788932D01*
X170491418Y-73719202D01*
X170508748Y-73693728D01*
X170612445Y-73575484D01*
X170754403Y-73354786D01*
X170862180Y-73115530D01*
X170933409Y-72862971D01*
X170966525Y-72602658D01*
X170968951Y-72510000D01*
X170949504Y-72248311D01*
X170891591Y-71992370D01*
X170796483Y-71747801D01*
X170666270Y-71519976D01*
X170504530Y-71314810D01*
X170478065Y-71248932D01*
X170491418Y-71179202D01*
X170508748Y-71153728D01*
X170612445Y-71035484D01*
X170754403Y-70814786D01*
X170862180Y-70575530D01*
X170933409Y-70322971D01*
X170966525Y-70062658D01*
X170968951Y-69970000D01*
X170949504Y-69708311D01*
X170891591Y-69452370D01*
X170796483Y-69207801D01*
X170788578Y-69193969D01*
X170668589Y-68984034D01*
X170666270Y-68979976D01*
X170504530Y-68774810D01*
X170478065Y-68708932D01*
X170491418Y-68639202D01*
X170508748Y-68613728D01*
X170612445Y-68495484D01*
X170631889Y-68465256D01*
X170751875Y-68278716D01*
X170754403Y-68274786D01*
X170862180Y-68035530D01*
X170933409Y-67782971D01*
X170966525Y-67522658D01*
X170968951Y-67430000D01*
X170949504Y-67168311D01*
X170891591Y-66912370D01*
X170876189Y-66872763D01*
X170798176Y-66672154D01*
X170798175Y-66672152D01*
X170796483Y-66667801D01*
X170666270Y-66439976D01*
X170503813Y-66233901D01*
X170312681Y-66054101D01*
X170097072Y-65904528D01*
X169960430Y-65837143D01*
X169865909Y-65790530D01*
X169865905Y-65790529D01*
X169861723Y-65788466D01*
X169611804Y-65708467D01*
X169607197Y-65707717D01*
X169607194Y-65707716D01*
X169357416Y-65667037D01*
X169357417Y-65667037D01*
X169352805Y-65666286D01*
X169221611Y-65664569D01*
X169095093Y-65662912D01*
X169095090Y-65662912D01*
X169090417Y-65662851D01*
X168938909Y-65683471D01*
X168835037Y-65697607D01*
X168835033Y-65697608D01*
X168830403Y-65698238D01*
X168578475Y-65771668D01*
X168340168Y-65881529D01*
X168336259Y-65884092D01*
X168124631Y-66022841D01*
X168124626Y-66022845D01*
X168120718Y-66025407D01*
X167924944Y-66200141D01*
X167757148Y-66401894D01*
X167621017Y-66626232D01*
X167619208Y-66630546D01*
X167619207Y-66630548D01*
X167603586Y-66667801D01*
X167519539Y-66868228D01*
X167518388Y-66872760D01*
X167518387Y-66872763D01*
X167456098Y-67118027D01*
X167454946Y-67122564D01*
X167428656Y-67383655D01*
X167428880Y-67388321D01*
X167428880Y-67388327D01*
X167431034Y-67433160D01*
X167441246Y-67645764D01*
X167492440Y-67903132D01*
X167581113Y-68150107D01*
X167583330Y-68154233D01*
X167645816Y-68270525D01*
X167705317Y-68381263D01*
X167708112Y-68385006D01*
X167708114Y-68385009D01*
X167859532Y-68587782D01*
X167859537Y-68587788D01*
X167862324Y-68591520D01*
X167865639Y-68594806D01*
X167882401Y-68611423D01*
X167916697Y-68673586D01*
X167911940Y-68744423D01*
X167890569Y-68781473D01*
X167757148Y-68941894D01*
X167621017Y-69166232D01*
X167619208Y-69170546D01*
X167619207Y-69170548D01*
X167603586Y-69207801D01*
X167519539Y-69408228D01*
X167518388Y-69412760D01*
X167518387Y-69412763D01*
X167508328Y-69452370D01*
X167454946Y-69662564D01*
X167428656Y-69923655D01*
X167441246Y-70185764D01*
X167492440Y-70443132D01*
X167581113Y-70690107D01*
X167583330Y-70694233D01*
X167645816Y-70810525D01*
X167705317Y-70921263D01*
X167708112Y-70925006D01*
X167708114Y-70925009D01*
X167859532Y-71127782D01*
X167859537Y-71127788D01*
X167862324Y-71131520D01*
X167865639Y-71134806D01*
X167882401Y-71151423D01*
X167916697Y-71213586D01*
X167911940Y-71284423D01*
X167890569Y-71321473D01*
X167757148Y-71481894D01*
X167621017Y-71706232D01*
X167619208Y-71710546D01*
X167619207Y-71710548D01*
X167603586Y-71747801D01*
X167519539Y-71948228D01*
X167454946Y-72202564D01*
X167428656Y-72463655D01*
X167441246Y-72725764D01*
X167492440Y-72983132D01*
X167581113Y-73230107D01*
X167583330Y-73234233D01*
X167645816Y-73350525D01*
X167705317Y-73461263D01*
X167708112Y-73465006D01*
X167708114Y-73465009D01*
X167859532Y-73667782D01*
X167859537Y-73667788D01*
X167862324Y-73671520D01*
X167865639Y-73674806D01*
X167882401Y-73691423D01*
X167916697Y-73753586D01*
X167911940Y-73824423D01*
X167890569Y-73861473D01*
X167757148Y-74021894D01*
X167621017Y-74246232D01*
X167619208Y-74250546D01*
X167619207Y-74250548D01*
X167603586Y-74287801D01*
X167519539Y-74488228D01*
X167454946Y-74742564D01*
X167428656Y-75003655D01*
X167441246Y-75265764D01*
X167492440Y-75523132D01*
X167581113Y-75770107D01*
X167583330Y-75774233D01*
X167645816Y-75890525D01*
X167705317Y-76001263D01*
X167708112Y-76005006D01*
X167708114Y-76005009D01*
X167859532Y-76207782D01*
X167859537Y-76207788D01*
X167862324Y-76211520D01*
X167865639Y-76214806D01*
X167882401Y-76231423D01*
X167916697Y-76293586D01*
X167911940Y-76364423D01*
X167890569Y-76401473D01*
X167757148Y-76561894D01*
X167621017Y-76786232D01*
X167619208Y-76790546D01*
X167619207Y-76790548D01*
X167603586Y-76827801D01*
X167519539Y-77028228D01*
X167518388Y-77032760D01*
X167518387Y-77032763D01*
X167461255Y-77257723D01*
X167454946Y-77282564D01*
X167428656Y-77543655D01*
X167428880Y-77548321D01*
X167428880Y-77548327D01*
X167435096Y-77677734D01*
X167441246Y-77805764D01*
X167442158Y-77810349D01*
X167444252Y-77820875D01*
X167492440Y-78063132D01*
X167581113Y-78310107D01*
X167583330Y-78314233D01*
X167679969Y-78494087D01*
X167705317Y-78541263D01*
X167708112Y-78545006D01*
X167708114Y-78545009D01*
X167859532Y-78747782D01*
X167859537Y-78747788D01*
X167862324Y-78751520D01*
X167865639Y-78754806D01*
X167882401Y-78771423D01*
X167916697Y-78833586D01*
X167911940Y-78904423D01*
X167890569Y-78941473D01*
X167757148Y-79101894D01*
X167621017Y-79326232D01*
X167619208Y-79330546D01*
X167619207Y-79330548D01*
X167538082Y-79524009D01*
X167519539Y-79568228D01*
X167518388Y-79572760D01*
X167518387Y-79572763D01*
X167499208Y-79648281D01*
X167454946Y-79822564D01*
X167428656Y-80083655D01*
X167428880Y-80088321D01*
X167428880Y-80088327D01*
X167430731Y-80126851D01*
X167441246Y-80345764D01*
X167492440Y-80603132D01*
X167581113Y-80850107D01*
X167583330Y-80854233D01*
X167645816Y-80970525D01*
X167705317Y-81081263D01*
X167708112Y-81085006D01*
X167708114Y-81085009D01*
X167859532Y-81287782D01*
X167859537Y-81287788D01*
X167862324Y-81291520D01*
X167865639Y-81294806D01*
X167882401Y-81311423D01*
X167916697Y-81373586D01*
X167911940Y-81444423D01*
X167890569Y-81481473D01*
X167757148Y-81641894D01*
X167621017Y-81866232D01*
X167619208Y-81870546D01*
X167619207Y-81870548D01*
X167592118Y-81935149D01*
X167519539Y-82108228D01*
X167454946Y-82362564D01*
X167428656Y-82623655D01*
X167441246Y-82885764D01*
X167492440Y-83143132D01*
X167581113Y-83390107D01*
X167583330Y-83394233D01*
X167645816Y-83510525D01*
X167705317Y-83621263D01*
X167708112Y-83625006D01*
X167708114Y-83625009D01*
X167859532Y-83827782D01*
X167859537Y-83827788D01*
X167862324Y-83831520D01*
X167865639Y-83834806D01*
X167882401Y-83851423D01*
X167916697Y-83913586D01*
X167911940Y-83984423D01*
X167890569Y-84021473D01*
X167757148Y-84181894D01*
X167621017Y-84406232D01*
X167619208Y-84410546D01*
X167619207Y-84410548D01*
X167603586Y-84447801D01*
X167519539Y-84648228D01*
X167454946Y-84902564D01*
X167428656Y-85163655D01*
X167441246Y-85425764D01*
X167492440Y-85683132D01*
X167581113Y-85930107D01*
X167583330Y-85934233D01*
X167645816Y-86050525D01*
X167705317Y-86161263D01*
X167708112Y-86165006D01*
X167708114Y-86165009D01*
X167859532Y-86367782D01*
X167859537Y-86367788D01*
X167862324Y-86371520D01*
X167865639Y-86374806D01*
X167882401Y-86391423D01*
X167916697Y-86453586D01*
X167911940Y-86524423D01*
X167890569Y-86561473D01*
X167757148Y-86721894D01*
X167621017Y-86946232D01*
X167619208Y-86950546D01*
X167619207Y-86950548D01*
X167603586Y-86987801D01*
X167519539Y-87188228D01*
X167454946Y-87442564D01*
X167428656Y-87703655D01*
X167428880Y-87708321D01*
X167428880Y-87708326D01*
X167433772Y-87810154D01*
X167417061Y-87879156D01*
X167365698Y-87928170D01*
X167295990Y-87941634D01*
X167280359Y-87939149D01*
X155752216Y-85355255D01*
X155690120Y-85320839D01*
X155674022Y-85300808D01*
X155673176Y-85299501D01*
X147572246Y-72793334D01*
X147551999Y-72725285D01*
X147553005Y-72708931D01*
X147566127Y-72605788D01*
X147566127Y-72605784D01*
X147566525Y-72602658D01*
X147568951Y-72510000D01*
X147549504Y-72248311D01*
X147491591Y-71992370D01*
X147396483Y-71747801D01*
X147266270Y-71519976D01*
X147104530Y-71314810D01*
X147078065Y-71248932D01*
X147091418Y-71179202D01*
X147108748Y-71153728D01*
X147212445Y-71035484D01*
X147354403Y-70814786D01*
X147462180Y-70575530D01*
X147533409Y-70322971D01*
X147566525Y-70062658D01*
X147568951Y-69970000D01*
X147549504Y-69708311D01*
X147491591Y-69452370D01*
X147396483Y-69207801D01*
X147388578Y-69193969D01*
X147268589Y-68984034D01*
X147266270Y-68979976D01*
X147104530Y-68774810D01*
X147078065Y-68708932D01*
X147091418Y-68639202D01*
X147108748Y-68613728D01*
X147212445Y-68495484D01*
X147231889Y-68465256D01*
X147351875Y-68278716D01*
X147354403Y-68274786D01*
X147462180Y-68035530D01*
X147533409Y-67782971D01*
X147566525Y-67522658D01*
X147568951Y-67430000D01*
X147549504Y-67168311D01*
X147491591Y-66912370D01*
X147476189Y-66872763D01*
X147398176Y-66672154D01*
X147398175Y-66672152D01*
X147396483Y-66667801D01*
X147266270Y-66439976D01*
X147104530Y-66234810D01*
X147078065Y-66168932D01*
X147091418Y-66099202D01*
X147108748Y-66073728D01*
X147212445Y-65955484D01*
X147261274Y-65879572D01*
X147351875Y-65738716D01*
X147354403Y-65734786D01*
X147462180Y-65495530D01*
X147533409Y-65242971D01*
X147566525Y-64982658D01*
X147568951Y-64890000D01*
X147549504Y-64628311D01*
X147491591Y-64372370D01*
X147396483Y-64127801D01*
X147391666Y-64119372D01*
X147268589Y-63904034D01*
X147266270Y-63899976D01*
X147104530Y-63694810D01*
X147078065Y-63628932D01*
X147091418Y-63559202D01*
X147108748Y-63533728D01*
X147212445Y-63415484D01*
X147354403Y-63194786D01*
X147462180Y-62955530D01*
X147533409Y-62702971D01*
X147566525Y-62442658D01*
X147568951Y-62350000D01*
X147565507Y-62303655D01*
X167428656Y-62303655D01*
X167441246Y-62565764D01*
X167492440Y-62823132D01*
X167581113Y-63070107D01*
X167583330Y-63074233D01*
X167645816Y-63190525D01*
X167705317Y-63301263D01*
X167708112Y-63305006D01*
X167708114Y-63305009D01*
X167859532Y-63507782D01*
X167859537Y-63507788D01*
X167862324Y-63511520D01*
X168048684Y-63696262D01*
X168052446Y-63699020D01*
X168052449Y-63699023D01*
X168256530Y-63848661D01*
X168260304Y-63851428D01*
X168264447Y-63853608D01*
X168264449Y-63853609D01*
X168488384Y-63971427D01*
X168488389Y-63971429D01*
X168492534Y-63973610D01*
X168496957Y-63975155D01*
X168496958Y-63975155D01*
X168735857Y-64058582D01*
X168735863Y-64058584D01*
X168740274Y-64060124D01*
X168744867Y-64060996D01*
X168993490Y-64108199D01*
X168993493Y-64108199D01*
X168998079Y-64109070D01*
X169122692Y-64113966D01*
X169255620Y-64119189D01*
X169255625Y-64119189D01*
X169260288Y-64119372D01*
X169362311Y-64108199D01*
X169516486Y-64091315D01*
X169516492Y-64091314D01*
X169521139Y-64090805D01*
X169525663Y-64089614D01*
X169770379Y-64025185D01*
X169770381Y-64025184D01*
X169774902Y-64023994D01*
X169892174Y-63973610D01*
X170011709Y-63922254D01*
X170011711Y-63922253D01*
X170016003Y-63920409D01*
X170239145Y-63782325D01*
X170420341Y-63628932D01*
X170435859Y-63615795D01*
X170435861Y-63615793D01*
X170439426Y-63612775D01*
X170612445Y-63415484D01*
X170754403Y-63194786D01*
X170862180Y-62955530D01*
X170933409Y-62702971D01*
X170966525Y-62442658D01*
X170968951Y-62350000D01*
X170949504Y-62088311D01*
X170891591Y-61832370D01*
X170796483Y-61587801D01*
X170666270Y-61359976D01*
X170504530Y-61154810D01*
X170478065Y-61088932D01*
X170491418Y-61019202D01*
X170508748Y-60993728D01*
X170612445Y-60875484D01*
X170754403Y-60654786D01*
X170862180Y-60415530D01*
X170933409Y-60162971D01*
X170966525Y-59902658D01*
X170968951Y-59810000D01*
X170949504Y-59548311D01*
X170891591Y-59292370D01*
X170796483Y-59047801D01*
X170666270Y-58819976D01*
X170504530Y-58614810D01*
X170478065Y-58548932D01*
X170491418Y-58479202D01*
X170508748Y-58453728D01*
X170612445Y-58335484D01*
X170754403Y-58114786D01*
X170862180Y-57875530D01*
X170933409Y-57622971D01*
X170966525Y-57362658D01*
X170968951Y-57270000D01*
X170949504Y-57008311D01*
X170891591Y-56752370D01*
X170796483Y-56507801D01*
X170666270Y-56279976D01*
X170504530Y-56074810D01*
X170478065Y-56008932D01*
X170491418Y-55939202D01*
X170508748Y-55913728D01*
X170612445Y-55795484D01*
X170754403Y-55574786D01*
X170862180Y-55335530D01*
X170933409Y-55082971D01*
X170966525Y-54822658D01*
X170968951Y-54730000D01*
X170949504Y-54468311D01*
X170891591Y-54212370D01*
X170796483Y-53967801D01*
X170666270Y-53739976D01*
X170504530Y-53534810D01*
X170478065Y-53468932D01*
X170491418Y-53399202D01*
X170508748Y-53373728D01*
X170612445Y-53255484D01*
X170754403Y-53034786D01*
X170862180Y-52795530D01*
X170933409Y-52542971D01*
X170966525Y-52282658D01*
X170968951Y-52190000D01*
X170949504Y-51928311D01*
X170891591Y-51672370D01*
X170796483Y-51427801D01*
X170666270Y-51199976D01*
X170503813Y-50993901D01*
X170312681Y-50814101D01*
X170097072Y-50664528D01*
X169940093Y-50587114D01*
X169865909Y-50550530D01*
X169865905Y-50550529D01*
X169861723Y-50548466D01*
X169611804Y-50468467D01*
X169607197Y-50467717D01*
X169607194Y-50467716D01*
X169357416Y-50427037D01*
X169357417Y-50427037D01*
X169352805Y-50426286D01*
X169221611Y-50424568D01*
X169095093Y-50422912D01*
X169095090Y-50422912D01*
X169090417Y-50422851D01*
X168938909Y-50443471D01*
X168835037Y-50457607D01*
X168835033Y-50457608D01*
X168830403Y-50458238D01*
X168578475Y-50531668D01*
X168340168Y-50641529D01*
X168336259Y-50644092D01*
X168124631Y-50782841D01*
X168124626Y-50782845D01*
X168120718Y-50785407D01*
X167924944Y-50960141D01*
X167757148Y-51161894D01*
X167621017Y-51386232D01*
X167619208Y-51390546D01*
X167619207Y-51390548D01*
X167603586Y-51427801D01*
X167519539Y-51628228D01*
X167454946Y-51882564D01*
X167428656Y-52143655D01*
X167441246Y-52405764D01*
X167492440Y-52663132D01*
X167581113Y-52910107D01*
X167583330Y-52914233D01*
X167645816Y-53030525D01*
X167705317Y-53141263D01*
X167708112Y-53145006D01*
X167708114Y-53145009D01*
X167859532Y-53347782D01*
X167859537Y-53347788D01*
X167862324Y-53351520D01*
X167865639Y-53354806D01*
X167882401Y-53371423D01*
X167916697Y-53433586D01*
X167911940Y-53504423D01*
X167890569Y-53541473D01*
X167757148Y-53701894D01*
X167621017Y-53926232D01*
X167619208Y-53930546D01*
X167619207Y-53930548D01*
X167603586Y-53967801D01*
X167519539Y-54168228D01*
X167454946Y-54422564D01*
X167428656Y-54683655D01*
X167441246Y-54945764D01*
X167492440Y-55203132D01*
X167581113Y-55450107D01*
X167583330Y-55454233D01*
X167645816Y-55570525D01*
X167705317Y-55681263D01*
X167708112Y-55685006D01*
X167708114Y-55685009D01*
X167859532Y-55887782D01*
X167859537Y-55887788D01*
X167862324Y-55891520D01*
X167865639Y-55894806D01*
X167882401Y-55911423D01*
X167916697Y-55973586D01*
X167911940Y-56044423D01*
X167890569Y-56081473D01*
X167757148Y-56241894D01*
X167621017Y-56466232D01*
X167619208Y-56470546D01*
X167619207Y-56470548D01*
X167603586Y-56507801D01*
X167519539Y-56708228D01*
X167454946Y-56962564D01*
X167428656Y-57223655D01*
X167441246Y-57485764D01*
X167492440Y-57743132D01*
X167581113Y-57990107D01*
X167583330Y-57994233D01*
X167645816Y-58110525D01*
X167705317Y-58221263D01*
X167708112Y-58225006D01*
X167708114Y-58225009D01*
X167859532Y-58427782D01*
X167859537Y-58427788D01*
X167862324Y-58431520D01*
X167865639Y-58434806D01*
X167882401Y-58451423D01*
X167916697Y-58513586D01*
X167911940Y-58584423D01*
X167890569Y-58621473D01*
X167757148Y-58781894D01*
X167621017Y-59006232D01*
X167619208Y-59010546D01*
X167619207Y-59010548D01*
X167603586Y-59047801D01*
X167519539Y-59248228D01*
X167454946Y-59502564D01*
X167428656Y-59763655D01*
X167441246Y-60025764D01*
X167492440Y-60283132D01*
X167581113Y-60530107D01*
X167583330Y-60534233D01*
X167645816Y-60650525D01*
X167705317Y-60761263D01*
X167708112Y-60765006D01*
X167708114Y-60765009D01*
X167859532Y-60967782D01*
X167859537Y-60967788D01*
X167862324Y-60971520D01*
X167865639Y-60974806D01*
X167882401Y-60991423D01*
X167916697Y-61053586D01*
X167911940Y-61124423D01*
X167890569Y-61161473D01*
X167757148Y-61321894D01*
X167621017Y-61546232D01*
X167619208Y-61550546D01*
X167619207Y-61550548D01*
X167603586Y-61587801D01*
X167519539Y-61788228D01*
X167454946Y-62042564D01*
X167428656Y-62303655D01*
X147565507Y-62303655D01*
X147549504Y-62088311D01*
X147491591Y-61832370D01*
X147396483Y-61587801D01*
X147266270Y-61359976D01*
X147104530Y-61154810D01*
X147078065Y-61088932D01*
X147091418Y-61019202D01*
X147108748Y-60993728D01*
X147212445Y-60875484D01*
X147354403Y-60654786D01*
X147462180Y-60415530D01*
X147533409Y-60162971D01*
X147566525Y-59902658D01*
X147568951Y-59810000D01*
X147549504Y-59548311D01*
X147491591Y-59292370D01*
X147396483Y-59047801D01*
X147266270Y-58819976D01*
X147104530Y-58614810D01*
X147078065Y-58548932D01*
X147091418Y-58479202D01*
X147108748Y-58453728D01*
X147212445Y-58335484D01*
X147354403Y-58114786D01*
X147462180Y-57875530D01*
X147533409Y-57622971D01*
X147566525Y-57362658D01*
X147568951Y-57270000D01*
X147549504Y-57008311D01*
X147491591Y-56752370D01*
X147396483Y-56507801D01*
X147266270Y-56279976D01*
X147104530Y-56074810D01*
X147078065Y-56008932D01*
X147091418Y-55939202D01*
X147108748Y-55913728D01*
X147212445Y-55795484D01*
X147354403Y-55574786D01*
X147462180Y-55335530D01*
X147533409Y-55082971D01*
X147566525Y-54822658D01*
X147568951Y-54730000D01*
X147549504Y-54468311D01*
X147491591Y-54212370D01*
X147396483Y-53967801D01*
X147266270Y-53739976D01*
X147104530Y-53534810D01*
X147078065Y-53468932D01*
X147091418Y-53399202D01*
X147108748Y-53373728D01*
X147212445Y-53255484D01*
X147354403Y-53034786D01*
X147462180Y-52795530D01*
X147533409Y-52542971D01*
X147566525Y-52282658D01*
X147568951Y-52190000D01*
X147549504Y-51928311D01*
X147491591Y-51672370D01*
X147396483Y-51427801D01*
X147287814Y-51237670D01*
X147271377Y-51168603D01*
X147294890Y-51101613D01*
X147299564Y-51095511D01*
X147399041Y-50973540D01*
X147399042Y-50973539D01*
X147403073Y-50968596D01*
X147497241Y-50788470D01*
X147553266Y-50593087D01*
X147564000Y-50472816D01*
X147564000Y-48827184D01*
X147553266Y-48706913D01*
X147497241Y-48511530D01*
X147403073Y-48331404D01*
X147274609Y-48173891D01*
X147117096Y-48045427D01*
X146936970Y-47951259D01*
X146741587Y-47895234D01*
X146709955Y-47892411D01*
X146624109Y-47884749D01*
X146624103Y-47884749D01*
X146621316Y-47884500D01*
X144975684Y-47884500D01*
X144972897Y-47884749D01*
X144972891Y-47884749D01*
X144887045Y-47892411D01*
X144855413Y-47895234D01*
X144660030Y-47951259D01*
X144479904Y-48045427D01*
X144322391Y-48173891D01*
X144193927Y-48331404D01*
X144099759Y-48511530D01*
X144043734Y-48706913D01*
X144033000Y-48827184D01*
X144033000Y-50472816D01*
X144043734Y-50593087D01*
X144099759Y-50788470D01*
X144193927Y-50968596D01*
X144197962Y-50973543D01*
X144197963Y-50973545D01*
X144298542Y-51096869D01*
X144326096Y-51162301D01*
X144313900Y-51232242D01*
X144308618Y-51241869D01*
X144221017Y-51386232D01*
X144219208Y-51390546D01*
X144219207Y-51390548D01*
X144203586Y-51427801D01*
X144119539Y-51628228D01*
X144054946Y-51882564D01*
X144028656Y-52143655D01*
X144041246Y-52405764D01*
X144092440Y-52663132D01*
X144181113Y-52910107D01*
X144183330Y-52914233D01*
X144245816Y-53030525D01*
X144305317Y-53141263D01*
X144308112Y-53145006D01*
X144308114Y-53145009D01*
X144459532Y-53347782D01*
X144459537Y-53347788D01*
X144462324Y-53351520D01*
X144465639Y-53354806D01*
X144482401Y-53371423D01*
X144516697Y-53433586D01*
X144511940Y-53504423D01*
X144490569Y-53541473D01*
X144357148Y-53701894D01*
X144221017Y-53926232D01*
X144219208Y-53930546D01*
X144219207Y-53930548D01*
X144203586Y-53967801D01*
X144119539Y-54168228D01*
X144054946Y-54422564D01*
X144028656Y-54683655D01*
X144041246Y-54945764D01*
X144092440Y-55203132D01*
X144181113Y-55450107D01*
X144183330Y-55454233D01*
X144245816Y-55570525D01*
X144305317Y-55681263D01*
X144308112Y-55685006D01*
X144308114Y-55685009D01*
X144459532Y-55887782D01*
X144459537Y-55887788D01*
X144462324Y-55891520D01*
X144465639Y-55894806D01*
X144482401Y-55911423D01*
X144516697Y-55973586D01*
X144511940Y-56044423D01*
X144490569Y-56081473D01*
X144357148Y-56241894D01*
X144221017Y-56466232D01*
X144219208Y-56470546D01*
X144219207Y-56470548D01*
X144203586Y-56507801D01*
X144119539Y-56708228D01*
X144054946Y-56962564D01*
X144028656Y-57223655D01*
X144041246Y-57485764D01*
X144092440Y-57743132D01*
X144181113Y-57990107D01*
X144183330Y-57994233D01*
X144245816Y-58110525D01*
X144305317Y-58221263D01*
X144308112Y-58225006D01*
X144308114Y-58225009D01*
X144459532Y-58427782D01*
X144459537Y-58427788D01*
X144462324Y-58431520D01*
X144465639Y-58434806D01*
X144482401Y-58451423D01*
X144516697Y-58513586D01*
X144511940Y-58584423D01*
X144490569Y-58621473D01*
X144357148Y-58781894D01*
X144221017Y-59006232D01*
X144219208Y-59010546D01*
X144219207Y-59010548D01*
X144203586Y-59047801D01*
X144119539Y-59248228D01*
X144054946Y-59502564D01*
X144028656Y-59763655D01*
X144041246Y-60025764D01*
X144092440Y-60283132D01*
X144181113Y-60530107D01*
X144183330Y-60534233D01*
X144245816Y-60650525D01*
X144305317Y-60761263D01*
X144308112Y-60765006D01*
X144308114Y-60765009D01*
X144459532Y-60967782D01*
X144459537Y-60967788D01*
X144462324Y-60971520D01*
X144465639Y-60974806D01*
X144482401Y-60991423D01*
X144516697Y-61053586D01*
X144511940Y-61124423D01*
X144490569Y-61161473D01*
X144357148Y-61321894D01*
X144221017Y-61546232D01*
X144219208Y-61550546D01*
X144219207Y-61550548D01*
X144203586Y-61587801D01*
X144119539Y-61788228D01*
X144054946Y-62042564D01*
X144028656Y-62303655D01*
X144041246Y-62565764D01*
X144092440Y-62823132D01*
X144181113Y-63070107D01*
X144183330Y-63074233D01*
X144245816Y-63190525D01*
X144305317Y-63301263D01*
X144308112Y-63305006D01*
X144308114Y-63305009D01*
X144459532Y-63507782D01*
X144459537Y-63507788D01*
X144462324Y-63511520D01*
X144465639Y-63514806D01*
X144482401Y-63531423D01*
X144516697Y-63593586D01*
X144511940Y-63664423D01*
X144490569Y-63701473D01*
X144357148Y-63861894D01*
X144221017Y-64086232D01*
X144219208Y-64090546D01*
X144219207Y-64090548D01*
X144203586Y-64127801D01*
X144119539Y-64328228D01*
X144054946Y-64582564D01*
X144028656Y-64843655D01*
X144041246Y-65105764D01*
X144092440Y-65363132D01*
X144181113Y-65610107D01*
X144183330Y-65614233D01*
X144276184Y-65787043D01*
X144305317Y-65841263D01*
X144308112Y-65845006D01*
X144308114Y-65845009D01*
X144459532Y-66047782D01*
X144459537Y-66047788D01*
X144462324Y-66051520D01*
X144465639Y-66054806D01*
X144482401Y-66071423D01*
X144516697Y-66133586D01*
X144511940Y-66204423D01*
X144490569Y-66241473D01*
X144357148Y-66401894D01*
X144221017Y-66626232D01*
X144219208Y-66630546D01*
X144219207Y-66630548D01*
X144203586Y-66667801D01*
X144119539Y-66868228D01*
X144118388Y-66872760D01*
X144082037Y-67015892D01*
X144045882Y-67076993D01*
X143982433Y-67108847D01*
X143911834Y-67101342D01*
X143854162Y-67053378D01*
X143607223Y-66672154D01*
X143429832Y-66398299D01*
X142550016Y-65040044D01*
X142550015Y-65040043D01*
X142540167Y-65024840D01*
X142527318Y-65024606D01*
X142527316Y-65024606D01*
X128688378Y-64772989D01*
X128620633Y-64751752D01*
X128575123Y-64697260D01*
X128564799Y-64652731D01*
X127762130Y-46992860D01*
X127762000Y-46987139D01*
X127762000Y-45338436D01*
X127782002Y-45270315D01*
X127835658Y-45223822D01*
X127888434Y-45212437D01*
X164302004Y-45338436D01*
G37*
%TD.AperFunction*%
%TD*%
%TA.AperFunction,Conductor*%
%TO.N,GND*%
G36*
X129456290Y-106746224D02*
G01*
X133852551Y-108455881D01*
X133863232Y-108460616D01*
X135346149Y-109202075D01*
X135400905Y-109255345D01*
X141224000Y-120142000D01*
X141235830Y-120143557D01*
X141235831Y-120143557D01*
X199038111Y-127749120D01*
X199103041Y-127777838D01*
X199142136Y-127837100D01*
X199146903Y-127860129D01*
X200644230Y-141336074D01*
X200631873Y-141405987D01*
X200583680Y-141458120D01*
X200517215Y-141475975D01*
X153934952Y-140815233D01*
X129157150Y-140463775D01*
X129089320Y-140442809D01*
X129043593Y-140388499D01*
X129032941Y-140336841D01*
X129127489Y-127762000D01*
X129284626Y-106862709D01*
X129305139Y-106794741D01*
X129359143Y-106748653D01*
X129429491Y-106739078D01*
X129456290Y-106746224D01*
G37*
%TD.AperFunction*%
%TD*%
M02*
