%TF.GenerationSoftware,KiCad,Pcbnew,(6.0.8)*%
%TF.CreationDate,2022-10-31T22:25:17+07:00*%
%TF.ProjectId,stm32,73746d33-322e-46b6-9963-61645f706362,rev?*%
%TF.SameCoordinates,Original*%
%TF.FileFunction,Soldermask,Bot*%
%TF.FilePolarity,Negative*%
%FSLAX46Y46*%
G04 Gerber Fmt 4.6, Leading zero omitted, Abs format (unit mm)*
G04 Created by KiCad (PCBNEW (6.0.8)) date 2022-10-31 22:25:17*
%MOMM*%
%LPD*%
G01*
G04 APERTURE LIST*
%ADD10C,1.600000*%
%ADD11R,1.600000X1.600000*%
%ADD12C,3.000000*%
%ADD13R,1.700000X1.700000*%
%ADD14C,1.700000*%
%ADD15O,4.500000X2.500000*%
%ADD16C,2.400000*%
%ADD17C,3.200000*%
%ADD18C,1.524000*%
%ADD19C,1.400000*%
%ADD20O,1.400000X1.400000*%
G04 APERTURE END LIST*
D10*
%TO.C,U10*%
X108966000Y-119712000D03*
D11*
X111506000Y-119712000D03*
D10*
X108966000Y-97712000D03*
D11*
X111506000Y-97712000D03*
%TD*%
D12*
%TO.C,U9*%
X170260000Y-49911000D03*
X175260000Y-49911000D03*
X180260000Y-49911000D03*
%TD*%
%TO.C,U8*%
X152988000Y-49911000D03*
X157988000Y-49911000D03*
X162988000Y-49911000D03*
%TD*%
D13*
%TO.C,U7*%
X195326000Y-62276000D03*
D14*
X192786000Y-62276000D03*
X190246000Y-62276000D03*
X187706000Y-62276000D03*
%TD*%
%TO.C,U6*%
X172420000Y-88646000D03*
X172420000Y-91186000D03*
X172420000Y-93726000D03*
D13*
X172420000Y-96266000D03*
%TD*%
D14*
%TO.C,U5*%
X172420000Y-70866000D03*
X172420000Y-73406000D03*
X172420000Y-75946000D03*
D13*
X172420000Y-78486000D03*
%TD*%
D15*
%TO.C,U4*%
X108585000Y-132888000D03*
X108585000Y-127888000D03*
%TD*%
D16*
%TO.C,U3*%
X123928000Y-112778000D03*
X196828000Y-112778000D03*
X196828000Y-132078000D03*
X123928000Y-132078000D03*
D17*
X132718000Y-132078000D03*
X132718000Y-112778000D03*
X188338000Y-132078000D03*
X188338000Y-112778000D03*
%TD*%
D14*
%TO.C,U2*%
X145034000Y-49792000D03*
D13*
X127254000Y-49792000D03*
D14*
X145034000Y-52332000D03*
X127254000Y-52332000D03*
X145034000Y-54872000D03*
X127254000Y-54872000D03*
X145034000Y-57412000D03*
X127254000Y-57412000D03*
X145034000Y-59952000D03*
X127254000Y-59952000D03*
X145034000Y-62492000D03*
X127254000Y-62492000D03*
X145034000Y-65032000D03*
X127254000Y-65032000D03*
X145034000Y-67572000D03*
X127254000Y-67572000D03*
X145034000Y-70112000D03*
X127254000Y-70112000D03*
X145034000Y-72652000D03*
X127254000Y-72652000D03*
X145034000Y-75192000D03*
X127254000Y-75192000D03*
X145034000Y-77732000D03*
X127254000Y-77732000D03*
X145034000Y-80272000D03*
X127254000Y-80272000D03*
X145034000Y-82812000D03*
X127254000Y-82812000D03*
X145034000Y-85352000D03*
X127254000Y-85352000D03*
X145034000Y-87892000D03*
X127254000Y-87892000D03*
X145034000Y-90432000D03*
X127254000Y-90432000D03*
%TD*%
D18*
%TO.C,U1*%
X104155000Y-77277000D03*
X106695000Y-77277000D03*
X109235000Y-77277000D03*
X111775000Y-77277000D03*
X114315000Y-77277000D03*
X116855000Y-77277000D03*
X119395000Y-77277000D03*
X109935000Y-45777000D03*
X107395000Y-45777000D03*
X104855000Y-45777000D03*
%TD*%
D19*
%TO.C,R1*%
X156160000Y-55372000D03*
D20*
X153620000Y-55372000D03*
%TD*%
M02*
