%TF.GenerationSoftware,KiCad,Pcbnew,(6.0.8)*%
%TF.CreationDate,2022-10-31T22:25:17+07:00*%
%TF.ProjectId,stm32,73746d33-322e-46b6-9963-61645f706362,rev?*%
%TF.SameCoordinates,Original*%
%TF.FileFunction,Copper,L2,Bot*%
%TF.FilePolarity,Positive*%
%FSLAX46Y46*%
G04 Gerber Fmt 4.6, Leading zero omitted, Abs format (unit mm)*
G04 Created by KiCad (PCBNEW (6.0.8)) date 2022-10-31 22:25:17*
%MOMM*%
%LPD*%
G01*
G04 APERTURE LIST*
%TA.AperFunction,ComponentPad*%
%ADD10C,1.600000*%
%TD*%
%TA.AperFunction,ComponentPad*%
%ADD11R,1.600000X1.600000*%
%TD*%
%TA.AperFunction,ComponentPad*%
%ADD12C,3.000000*%
%TD*%
%TA.AperFunction,ComponentPad*%
%ADD13R,1.700000X1.700000*%
%TD*%
%TA.AperFunction,ComponentPad*%
%ADD14C,1.700000*%
%TD*%
%TA.AperFunction,ComponentPad*%
%ADD15O,4.500000X2.500000*%
%TD*%
%TA.AperFunction,ComponentPad*%
%ADD16C,2.400000*%
%TD*%
%TA.AperFunction,ComponentPad*%
%ADD17C,1.524000*%
%TD*%
%TA.AperFunction,ComponentPad*%
%ADD18C,1.400000*%
%TD*%
%TA.AperFunction,ComponentPad*%
%ADD19O,1.400000X1.400000*%
%TD*%
%TA.AperFunction,ViaPad*%
%ADD20C,1.800000*%
%TD*%
%TA.AperFunction,Conductor*%
%ADD21C,1.000000*%
%TD*%
%TA.AperFunction,Conductor*%
%ADD22C,0.800000*%
%TD*%
G04 APERTURE END LIST*
D10*
%TO.P,U10,1,Vin*%
%TO.N,Net-(U10-Pad1)*%
X108966000Y-119712000D03*
D11*
%TO.P,U10,2,gnd*%
%TO.N,GND*%
X111506000Y-119712000D03*
D10*
%TO.P,U10,3,Vout*%
%TO.N,+3.3V*%
X108966000Y-97712000D03*
D11*
%TO.P,U10,4,gnd*%
%TO.N,GND*%
X111506000Y-97712000D03*
%TD*%
D12*
%TO.P,U9,1,vcc*%
%TO.N,+3.3V*%
X170260000Y-49911000D03*
%TO.P,U9,2,data*%
%TO.N,Net-(U2-Pad29)*%
X175260000Y-49911000D03*
%TO.P,U9,3,gnd*%
%TO.N,GND*%
X180260000Y-49911000D03*
%TD*%
%TO.P,U8,1,vcc*%
%TO.N,+3.3V*%
X152988000Y-49911000D03*
%TO.P,U8,2,data*%
%TO.N,Net-(R1-Pad1)*%
X157988000Y-49911000D03*
%TO.P,U8,3,gnd*%
%TO.N,GND*%
X162988000Y-49911000D03*
%TD*%
D13*
%TO.P,U7,1,VCC*%
%TO.N,+3.3V*%
X195326000Y-62276000D03*
D14*
%TO.P,U7,2,GND*%
%TO.N,GND*%
X192786000Y-62276000D03*
%TO.P,U7,3,DO*%
%TO.N,unconnected-(U7-Pad3)*%
X190246000Y-62276000D03*
%TO.P,U7,4,AO*%
%TO.N,Net-(U2-Pad23)*%
X187706000Y-62276000D03*
%TD*%
%TO.P,U6,4,AO*%
%TO.N,Net-(U2-Pad24)*%
X172420000Y-88646000D03*
%TO.P,U6,3,DO*%
%TO.N,unconnected-(U6-Pad3)*%
X172420000Y-91186000D03*
%TO.P,U6,2,GND*%
%TO.N,GND*%
X172420000Y-93726000D03*
D13*
%TO.P,U6,1,VCC*%
%TO.N,+3.3V*%
X172420000Y-96266000D03*
%TD*%
D14*
%TO.P,U5,4,AO*%
%TO.N,Net-(U2-Pad25)*%
X172420000Y-70866000D03*
%TO.P,U5,3,DO*%
%TO.N,unconnected-(U5-Pad3)*%
X172420000Y-73406000D03*
%TO.P,U5,2,GND*%
%TO.N,GND*%
X172420000Y-75946000D03*
D13*
%TO.P,U5,1,VCC*%
%TO.N,+3.3V*%
X172420000Y-78486000D03*
%TD*%
D15*
%TO.P,U4,1,1*%
%TO.N,Net-(U3-Pad1+)*%
X108585000Y-132888000D03*
%TO.P,U4,2,2*%
%TO.N,Net-(U10-Pad1)*%
X108585000Y-127888000D03*
%TD*%
D16*
%TO.P,U3,1+,+*%
%TO.N,Net-(U3-Pad1+)*%
X123928000Y-112778000D03*
%TO.P,U3,1-,-*%
%TO.N,GND*%
X196828000Y-112778000D03*
%TO.P,U3,2-,-*%
X196828000Y-132078000D03*
%TO.P,U3,2+,+*%
%TO.N,Net-(U3-Pad1+)*%
X123928000Y-132078000D03*
%TD*%
D14*
%TO.P,U2,34,PB11*%
%TO.N,unconnected-(U2-Pad34)*%
X145034000Y-49792000D03*
D13*
%TO.P,U2,1,PB12*%
%TO.N,unconnected-(U2-Pad1)*%
X127254000Y-49792000D03*
D14*
%TO.P,U2,33,PB10*%
%TO.N,unconnected-(U2-Pad33)*%
X145034000Y-52332000D03*
%TO.P,U2,2,PB13*%
%TO.N,unconnected-(U2-Pad2)*%
X127254000Y-52332000D03*
%TO.P,U2,32,PB1*%
%TO.N,unconnected-(U2-Pad32)*%
X145034000Y-54872000D03*
%TO.P,U2,3,PB14*%
%TO.N,unconnected-(U2-Pad3)*%
X127254000Y-54872000D03*
%TO.P,U2,31,PB0*%
%TO.N,unconnected-(U2-Pad31)*%
X145034000Y-57412000D03*
%TO.P,U2,4,PB15*%
%TO.N,unconnected-(U2-Pad4)*%
X127254000Y-57412000D03*
%TO.P,U2,30,PA7*%
%TO.N,Net-(R1-Pad1)*%
X145034000Y-59952000D03*
%TO.P,U2,5,PA8*%
%TO.N,unconnected-(U2-Pad5)*%
X127254000Y-59952000D03*
%TO.P,U2,29,PA6*%
%TO.N,Net-(U2-Pad29)*%
X145034000Y-62492000D03*
%TO.P,U2,6,PA9*%
%TO.N,Net-(U1-Pad3)*%
X127254000Y-62492000D03*
%TO.P,U2,28,PA5*%
%TO.N,unconnected-(U2-Pad28)*%
X145034000Y-65032000D03*
%TO.P,U2,7,PA10*%
%TO.N,Net-(U1-Pad4)*%
X127254000Y-65032000D03*
%TO.P,U2,27,PA4*%
%TO.N,unconnected-(U2-Pad27)*%
X145034000Y-67572000D03*
%TO.P,U2,8,PA11*%
%TO.N,Net-(U1-Pad2)*%
X127254000Y-67572000D03*
%TO.P,U2,26,PA3*%
%TO.N,unconnected-(U2-Pad26)*%
X145034000Y-70112000D03*
%TO.P,U2,9,PA12*%
%TO.N,Net-(U1-Pad1)*%
X127254000Y-70112000D03*
%TO.P,U2,25,PA2*%
%TO.N,Net-(U2-Pad25)*%
X145034000Y-72652000D03*
%TO.P,U2,10,PA15*%
%TO.N,unconnected-(U2-Pad10)*%
X127254000Y-72652000D03*
%TO.P,U2,24,PA1*%
%TO.N,Net-(U2-Pad24)*%
X145034000Y-75192000D03*
%TO.P,U2,11,PB3*%
%TO.N,unconnected-(U2-Pad11)*%
X127254000Y-75192000D03*
%TO.P,U2,23,PA0*%
%TO.N,Net-(U2-Pad23)*%
X145034000Y-77732000D03*
%TO.P,U2,12,PB4*%
%TO.N,unconnected-(U2-Pad12)*%
X127254000Y-77732000D03*
%TO.P,U2,22,RST*%
%TO.N,unconnected-(U2-Pad22)*%
X145034000Y-80272000D03*
%TO.P,U2,13,PB5*%
%TO.N,unconnected-(U2-Pad13)*%
X127254000Y-80272000D03*
%TO.P,U2,21,PC13*%
%TO.N,unconnected-(U2-Pad21)*%
X145034000Y-82812000D03*
%TO.P,U2,14,PB6*%
%TO.N,unconnected-(U2-Pad14)*%
X127254000Y-82812000D03*
%TO.P,U2,20,PB9*%
%TO.N,unconnected-(U2-Pad20)*%
X145034000Y-85352000D03*
%TO.P,U2,15,PB7*%
%TO.N,unconnected-(U2-Pad15)*%
X127254000Y-85352000D03*
%TO.P,U2,19,PB8*%
%TO.N,unconnected-(U2-Pad19)*%
X145034000Y-87892000D03*
%TO.P,U2,16,3V3*%
%TO.N,+3.3V*%
X127254000Y-87892000D03*
%TO.P,U2,18,GND*%
%TO.N,unconnected-(U2-Pad18)*%
X145034000Y-90432000D03*
%TO.P,U2,17,GND*%
%TO.N,GND*%
X127254000Y-90432000D03*
%TD*%
D17*
%TO.P,U1,1,M0*%
%TO.N,Net-(U1-Pad1)*%
X104155000Y-77277000D03*
%TO.P,U1,2,M1*%
%TO.N,Net-(U1-Pad2)*%
X106695000Y-77277000D03*
%TO.P,U1,3,RXD*%
%TO.N,Net-(U1-Pad3)*%
X109235000Y-77277000D03*
%TO.P,U1,4,TXD*%
%TO.N,Net-(U1-Pad4)*%
X111775000Y-77277000D03*
%TO.P,U1,5,AUX*%
%TO.N,unconnected-(U1-Pad5)*%
X114315000Y-77277000D03*
%TO.P,U1,6,VCC*%
%TO.N,+3.3V*%
X116855000Y-77277000D03*
%TO.P,U1,7,GND*%
%TO.N,GND*%
X119395000Y-77277000D03*
%TO.P,U1,8,Fixing_Hole*%
%TO.N,unconnected-(U1-Pad8)*%
X109935000Y-45777000D03*
%TO.P,U1,9,Fixing_Hole*%
%TO.N,unconnected-(U1-Pad9)*%
X107395000Y-45777000D03*
%TO.P,U1,10,Fixing_Hole*%
%TO.N,unconnected-(U1-Pad10)*%
X104855000Y-45777000D03*
%TD*%
D18*
%TO.P,R1,1*%
%TO.N,Net-(R1-Pad1)*%
X156160000Y-55372000D03*
D19*
%TO.P,R1,2*%
%TO.N,+3.3V*%
X153620000Y-55372000D03*
%TD*%
D20*
%TO.N,GND*%
X179324000Y-93726000D03*
%TO.N,+3.3V*%
X164084000Y-96266000D03*
%TO.N,GND*%
X180340000Y-55118000D03*
X163068000Y-58674000D03*
%TO.N,+3.3V*%
X108966000Y-88138000D03*
%TO.N,GND*%
X116332000Y-119634000D03*
X193548000Y-109474000D03*
X192786000Y-67818000D03*
%TO.N,+3.3V*%
X165862000Y-75946000D03*
%TD*%
D21*
%TO.N,GND*%
X111584000Y-119634000D02*
X111506000Y-119712000D01*
X116332000Y-119634000D02*
X111584000Y-119634000D01*
X196828000Y-112778000D02*
X196828000Y-132078000D01*
X111506000Y-97712000D02*
X111506000Y-119712000D01*
X193548000Y-109498000D02*
X196828000Y-112778000D01*
X193548000Y-109474000D02*
X193548000Y-109498000D01*
X180260000Y-55038000D02*
X180340000Y-55118000D01*
X180260000Y-49911000D02*
X180260000Y-55038000D01*
%TO.N,+3.3V*%
X108966000Y-88138000D02*
X108966000Y-97712000D01*
X164084000Y-96266000D02*
X172420000Y-96266000D01*
%TO.N,GND*%
X172420000Y-93726000D02*
X179324000Y-93726000D01*
X192786000Y-62276000D02*
X192786000Y-67818000D01*
%TO.N,Net-(U3-Pad1+)*%
X123928000Y-112778000D02*
X123928000Y-132078000D01*
%TO.N,GND*%
X162988000Y-58594000D02*
X162988000Y-49911000D01*
X163068000Y-58674000D02*
X162988000Y-58594000D01*
%TO.N,+3.3V*%
X108966000Y-87122000D02*
X108966000Y-88138000D01*
X116855000Y-79233000D02*
X108966000Y-87122000D01*
X116855000Y-77277000D02*
X116855000Y-79233000D01*
X109212000Y-87892000D02*
X108966000Y-88138000D01*
X127254000Y-87892000D02*
X109212000Y-87892000D01*
X168402000Y-78486000D02*
X165862000Y-75946000D01*
X172420000Y-78486000D02*
X168402000Y-78486000D01*
X189738000Y-45974000D02*
X174197000Y-45974000D01*
X174197000Y-45974000D02*
X170260000Y-49911000D01*
X195326000Y-51562000D02*
X189738000Y-45974000D01*
X195326000Y-62276000D02*
X195326000Y-51562000D01*
D22*
X165815000Y-45466000D02*
X170260000Y-49911000D01*
X157433000Y-45466000D02*
X165815000Y-45466000D01*
X152988000Y-49911000D02*
X157433000Y-45466000D01*
D21*
%TO.N,GND*%
X111506000Y-97712000D02*
X119974000Y-97712000D01*
X119974000Y-97712000D02*
X127254000Y-90432000D01*
%TO.N,Net-(U10-Pad1)*%
X107364000Y-119712000D02*
X108966000Y-119712000D01*
X106426000Y-120650000D02*
X107364000Y-119712000D01*
X106426000Y-124714000D02*
X106426000Y-120650000D01*
X108585000Y-126873000D02*
X106426000Y-124714000D01*
X108585000Y-127888000D02*
X108585000Y-126873000D01*
%TO.N,Net-(U3-Pad1+)*%
X123118000Y-132888000D02*
X123928000Y-132078000D01*
X108585000Y-132888000D02*
X123118000Y-132888000D01*
D22*
%TO.N,Net-(U1-Pad2)*%
X121412000Y-49530000D02*
X124206000Y-46736000D01*
X124206000Y-46736000D02*
X129540000Y-46736000D01*
X129540000Y-46736000D02*
X132080000Y-49276000D01*
X132080000Y-49276000D02*
X132080000Y-65024000D01*
%TO.N,Net-(U1-Pad1)*%
X136652000Y-48260000D02*
X136652000Y-67056000D01*
X136652000Y-67056000D02*
X133596000Y-70112000D01*
X118110000Y-47498000D02*
X121412000Y-44196000D01*
X118110000Y-54102000D02*
X118110000Y-47498000D01*
X104155000Y-68057000D02*
X118110000Y-54102000D01*
X121412000Y-44196000D02*
X132588000Y-44196000D01*
X132588000Y-44196000D02*
X136652000Y-48260000D01*
X133596000Y-70112000D02*
X127254000Y-70112000D01*
X104155000Y-77277000D02*
X104155000Y-68057000D01*
%TO.N,Net-(U1-Pad2)*%
X121412000Y-56896000D02*
X121412000Y-49530000D01*
X129532000Y-67572000D02*
X127254000Y-67572000D01*
X132080000Y-65024000D02*
X129532000Y-67572000D01*
X106695000Y-71613000D02*
X121412000Y-56896000D01*
X106695000Y-77277000D02*
X106695000Y-71613000D01*
%TO.N,Net-(U1-Pad3)*%
X109235000Y-73167000D02*
X109235000Y-77277000D01*
X109220000Y-73152000D02*
X109235000Y-73167000D01*
X119880000Y-62492000D02*
X109220000Y-73152000D01*
X127254000Y-62492000D02*
X119880000Y-62492000D01*
%TO.N,Net-(U1-Pad4)*%
X111775000Y-75199000D02*
X111775000Y-77277000D01*
X121912000Y-65032000D02*
X111760000Y-75184000D01*
X111760000Y-75184000D02*
X111775000Y-75199000D01*
X127254000Y-65032000D02*
X121912000Y-65032000D01*
%TO.N,Net-(U2-Pad29)*%
X165600000Y-62492000D02*
X145034000Y-62492000D01*
X175260000Y-52832000D02*
X165600000Y-62492000D01*
X175260000Y-49911000D02*
X175260000Y-52832000D01*
%TO.N,+3.3V*%
X153620000Y-50543000D02*
X152988000Y-49911000D01*
X153620000Y-55372000D02*
X153620000Y-50543000D01*
%TO.N,Net-(R1-Pad1)*%
X156160000Y-51739000D02*
X157988000Y-49911000D01*
X156160000Y-55372000D02*
X156160000Y-51739000D01*
X156160000Y-57708000D02*
X156160000Y-55372000D01*
X153916000Y-59952000D02*
X156160000Y-57708000D01*
X145034000Y-59952000D02*
X153916000Y-59952000D01*
%TO.N,Net-(U2-Pad24)*%
X157988000Y-96520000D02*
X165862000Y-88646000D01*
X165862000Y-88646000D02*
X172420000Y-88646000D01*
X143256000Y-96520000D02*
X157988000Y-96520000D01*
X138176000Y-79248000D02*
X138176000Y-91440000D01*
X142232000Y-75192000D02*
X138176000Y-79248000D01*
X138176000Y-91440000D02*
X143256000Y-96520000D01*
X145034000Y-75192000D02*
X142232000Y-75192000D01*
%TO.N,Net-(U2-Pad23)*%
X180848000Y-82804000D02*
X187706000Y-75946000D01*
X160528000Y-77724000D02*
X165608000Y-82804000D01*
X187706000Y-75946000D02*
X187706000Y-62276000D01*
X149352000Y-77724000D02*
X160528000Y-77724000D01*
X149344000Y-77732000D02*
X149352000Y-77724000D01*
X165608000Y-82804000D02*
X180848000Y-82804000D01*
X145034000Y-77732000D02*
X149344000Y-77732000D01*
%TO.N,Net-(U2-Pad25)*%
X168402000Y-70866000D02*
X172420000Y-70866000D01*
X166616000Y-72652000D02*
X168402000Y-70866000D01*
X145034000Y-72652000D02*
X166616000Y-72652000D01*
%TD*%
M02*
