M48
; DRILL file {KiCad (6.0.8)} date Mon Oct 31 22:25:23 2022
; FORMAT={-:-/ absolute / inch / decimal}
; #@! TF.CreationDate,2022-10-31T22:25:23+07:00
; #@! TF.GenerationSoftware,Kicad,Pcbnew,(6.0.8)
; #@! TF.FileFunction,Plated,1,2,PTH
FMAT,2
INCH
; #@! TA.AperFunction,Plated,PTH,ViaDrill
T1C0.0236
; #@! TA.AperFunction,Plated,PTH,ComponentDrill
T2C0.0276
; #@! TA.AperFunction,Plated,PTH,ComponentDrill
T3C0.0300
; #@! TA.AperFunction,Plated,PTH,ComponentDrill
T4C0.0315
; #@! TA.AperFunction,Plated,PTH,ComponentDrill
T5C0.0394
; #@! TA.AperFunction,Plated,PTH,ComponentDrill
T6C0.0472
; #@! TA.AperFunction,Plated,PTH,ComponentDrill
T7C0.0630
%
G90
G05
T1
X4.29Y-3.47
X4.58Y-4.71
X6.42Y-2.31
X6.46Y-3.79
X6.53Y-2.99
X7.06Y-3.69
X7.1Y-2.17
X7.59Y-2.67
X7.62Y-4.31
T2
X6.048Y-2.18
X6.148Y-2.18
T3
X4.1006Y-3.0424
X4.1281Y-1.8022
X4.2006Y-3.0424
X4.2281Y-1.8022
X4.3006Y-3.0424
X4.3281Y-1.8022
X4.4006Y-3.0424
X4.5006Y-3.0424
X4.6006Y-3.0424
X4.7006Y-3.0424
X6.7882Y-2.79
X6.7882Y-2.89
X6.7882Y-2.99
X6.7882Y-3.09
X6.7882Y-3.49
X6.7882Y-3.59
X6.7882Y-3.69
X6.7882Y-3.79
X7.39Y-2.4518
X7.49Y-2.4518
X7.59Y-2.4518
X7.69Y-2.4518
T4
X4.29Y-3.8469
X4.29Y-4.7131
X4.39Y-3.8469
X4.39Y-4.7131
T5
X5.01Y-1.9603
X5.01Y-2.0603
X5.01Y-2.1603
X5.01Y-2.2603
X5.01Y-2.3603
X5.01Y-2.4603
X5.01Y-2.5603
X5.01Y-2.6603
X5.01Y-2.7603
X5.01Y-2.8603
X5.01Y-2.9603
X5.01Y-3.0603
X5.01Y-3.1603
X5.01Y-3.2603
X5.01Y-3.3603
X5.01Y-3.4603
X5.01Y-3.5603
X5.71Y-1.9603
X5.71Y-2.0603
X5.71Y-2.1603
X5.71Y-2.2603
X5.71Y-2.3603
X5.71Y-2.4603
X5.71Y-2.5603
X5.71Y-2.6603
X5.71Y-2.7603
X5.71Y-2.8603
X5.71Y-2.9603
X5.71Y-3.0603
X5.71Y-3.1603
X5.71Y-3.2603
X5.71Y-3.3603
X5.71Y-3.4603
X5.71Y-3.5603
T6
X6.0231Y-1.965
X6.22Y-1.965
X6.4169Y-1.965
X6.7031Y-1.965
X6.9Y-1.965
X7.0969Y-1.965
T7
X4.8791Y-4.4401
X4.8791Y-5.1999
X7.7491Y-4.4401
X7.7491Y-5.1999
T5
G00X4.3144Y-5.035
M15
G01X4.2356Y-5.035
M16
G05
G00X4.3144Y-5.2318
M15
G01X4.2356Y-5.2318
M16
G05
T0
M30
